if (_typeface_js && _typeface_js.loadFace) _typeface_js.loadFace({"glyphs":{"ợ":{"x_min":78.015625,"x_max":885.3125,"ha":846,"o":"m 761 372 q 669 88 761 190 q 416 -14 578 -14 q 239 32 316 -14 q 120 167 162 79 q 78 372 78 254 q 168 655 78 554 q 421 757 259 757 q 661 661 568 757 q 715 693 696 671 q 744 748 735 715 q 753 857 753 782 l 875 857 l 885 841 q 823 676 864 735 q 713 591 782 617 q 761 372 761 497 m 194 372 q 248 154 194 228 q 419 80 301 80 q 591 154 538 80 q 644 372 644 228 q 590 588 644 514 q 417 661 536 661 q 247 588 300 661 q 194 372 194 514 m 350 -164 q 370 -107 350 -125 q 418 -89 390 -89 q 465 -107 445 -89 q 485 -164 485 -125 q 465 -220 485 -201 q 418 -239 445 -239 q 370 -220 390 -239 q 350 -164 350 -201 "},"ҷ":{"x_min":105.828125,"x_max":827,"ha":846,"o":"m 218 743 l 218 472 q 367 342 218 342 q 485 360 428 342 q 612 425 541 379 l 612 743 l 725 743 l 725 96 l 827 96 l 827 -257 l 714 -257 l 714 0 l 612 0 l 612 336 q 480 267 541 287 q 343 247 419 247 q 168 306 232 247 q 105 463 105 364 l 105 743 l 218 743 "},"Ẩ":{"x_min":0,"x_max":879,"ha":879,"o":"m 759 0 l 636 315 l 238 315 l 116 0 l 0 0 l 392 996 l 489 996 l 879 0 l 759 0 m 600 419 l 484 726 q 438 869 462 784 q 396 726 423 804 l 279 419 l 600 419 m 637 1071 l 574 1071 q 431 1183 498 1121 q 287 1071 353 1115 l 224 1071 l 224 1087 l 260 1128 q 371 1264 336 1211 l 490 1264 q 637 1087 535 1200 l 637 1071 m 751 1344 q 665 1255 751 1274 l 661 1200 l 607 1200 l 600 1288 q 660 1305 639 1295 q 681 1342 681 1316 q 662 1376 681 1367 q 614 1384 643 1384 q 565 1380 582 1384 l 565 1434 q 619 1439 582 1439 q 751 1344 751 1439 "},"Ҿ":{"x_min":41.375,"x_max":1084.640625,"ha":1164,"o":"m 629 -8 q 355 128 454 11 q 242 452 255 246 q 93 493 146 452 q 41 612 41 533 q 59 699 41 662 l 158 699 q 144 624 144 664 q 221 554 144 554 l 244 554 l 247 583 q 380 896 267 785 q 682 1007 493 1007 q 984 878 883 1007 q 1084 499 1084 749 l 1084 452 l 365 452 q 463 181 375 274 q 719 88 552 88 q 856 99 788 88 q 1020 139 925 110 l 1020 33 q 742 -12 901 -8 l 742 -258 l 629 -258 l 629 -8 m 681 903 q 457 813 539 903 q 365 554 376 722 l 961 554 q 892 818 961 733 q 681 903 823 903 "},"ӱ":{"x_min":1.359375,"x_max":698.640625,"ha":700,"o":"m 1 743 l 122 743 l 284 319 q 351 109 338 173 l 356 109 q 393 227 365 144 q 577 743 421 311 l 698 743 l 379 -103 q 268 -281 331 -228 q 112 -334 204 -334 q 10 -322 61 -334 l 10 -232 q 94 -240 48 -240 q 259 -110 210 -240 l 301 -4 l 1 743 m 159 945 q 177 996 159 980 q 220 1012 195 1012 q 265 996 246 1012 q 283 945 283 980 q 265 894 283 911 q 220 878 246 878 q 177 894 195 878 q 159 945 159 911 m 418 945 q 436 996 418 980 q 479 1012 454 1012 q 523 996 504 1012 q 541 945 541 980 q 523 894 541 911 q 479 878 504 878 q 436 894 454 878 q 418 945 418 911 "},"ǻ":{"x_min":63.796875,"x_max":660.34375,"ha":773,"o":"m 319 1189 l 319 1199 q 386 1269 350 1228 q 437 1331 422 1309 l 614 1331 l 614 1322 q 544 1270 599 1306 q 401 1189 488 1235 l 319 1189 m 576 0 l 554 105 l 549 105 q 438 10 493 35 q 300 -14 382 -14 q 126 43 189 -14 q 63 205 63 100 q 428 441 63 431 l 550 446 l 550 492 q 510 621 550 580 q 379 663 469 663 q 257 645 314 663 q 152 606 200 627 l 115 692 q 242 738 172 721 q 382 756 313 756 q 592 696 523 756 q 660 507 660 637 l 660 0 l 576 0 m 322 78 q 487 136 427 78 q 547 298 547 194 l 547 365 l 435 361 q 241 319 300 356 q 181 204 181 282 q 218 110 181 142 q 322 78 255 78 m 544 989 q 503 882 544 922 q 392 842 461 842 q 282 881 323 842 q 241 987 241 920 q 282 1093 241 1054 q 392 1132 323 1132 q 502 1091 460 1132 q 544 989 544 1051 m 471 987 q 448 1046 471 1025 q 392 1066 426 1066 q 335 1046 357 1066 q 312 987 312 1025 q 333 929 312 949 q 392 908 353 908 q 449 929 427 908 q 471 987 471 949 "},"Ổ":{"x_min":84.796875,"x_max":997.203125,"ha":1082,"o":"m 997 496 q 876 122 997 258 q 542 -14 756 -14 q 203 119 322 -14 q 84 498 84 253 q 204 873 84 740 q 543 1007 323 1007 q 877 871 757 1007 q 997 496 997 735 m 206 496 q 292 191 206 295 q 542 87 378 87 q 791 190 706 87 q 875 496 875 294 q 791 800 875 696 q 543 903 707 903 q 292 799 378 903 q 206 496 206 695 m 747 1071 l 684 1071 q 541 1183 608 1121 q 397 1071 463 1115 l 334 1071 l 334 1087 l 370 1128 q 481 1264 446 1211 l 600 1264 q 747 1087 645 1200 l 747 1071 m 861 1344 q 775 1255 861 1274 l 771 1200 l 717 1200 l 710 1288 q 770 1305 749 1295 q 791 1342 791 1316 q 772 1376 791 1367 q 724 1384 753 1384 q 675 1380 692 1384 l 675 1434 q 729 1439 692 1439 q 861 1344 861 1439 "},"Ừ":{"x_min":126.171875,"x_max":1125.296875,"ha":1067,"o":"m 885 992 l 885 857 q 948 884 924 863 q 982 943 972 905 q 993 1056 993 981 l 1115 1056 l 1125 1041 q 1044 854 1102 917 q 885 775 986 792 l 885 349 q 787 80 885 174 q 511 -14 690 -14 q 227 83 329 -14 q 126 352 126 180 l 126 992 l 241 992 l 241 344 q 310 153 241 220 q 514 87 379 87 q 704 152 638 87 q 769 345 769 218 l 769 992 l 885 992 m 594 1071 l 519 1071 q 415 1171 475 1106 q 327 1278 354 1236 l 327 1293 l 465 1293 q 525 1185 487 1246 q 594 1087 564 1123 l 594 1071 "},"Á":{"x_min":0,"x_max":879,"ha":879,"o":"m 759 0 l 636 315 l 238 315 l 116 0 l 0 0 l 392 996 l 489 996 l 879 0 l 759 0 m 600 419 l 484 726 q 438 869 462 784 q 396 726 423 804 l 279 419 l 600 419 m 356 1087 q 426 1189 389 1129 q 486 1293 464 1249 l 623 1293 l 623 1278 q 534 1170 593 1234 q 431 1071 475 1106 l 356 1071 l 356 1087 "},"ѩ":{"x_min":119.359375,"x_max":1055.1875,"ha":1064,"o":"m 741 743 l 1055 0 l 939 0 l 798 334 l 722 334 l 722 0 l 619 0 l 619 334 l 544 334 l 402 0 l 286 0 l 427 334 l 231 334 l 231 0 l 119 0 l 119 743 l 231 743 l 231 430 l 469 430 l 602 743 l 741 743 m 673 664 l 667 664 q 650 609 661 641 q 579 430 639 577 l 760 430 l 673 664 "},"ĥ":{"x_min":119.4375,"x_max":741.03125,"ha":853,"o":"m 628 0 l 628 481 q 587 616 628 572 q 457 661 545 661 q 285 597 339 661 q 232 388 232 534 l 232 0 l 119 0 l 119 1055 l 232 1055 l 232 736 q 226 640 232 678 l 233 640 q 328 725 266 694 q 468 756 389 756 q 672 691 604 756 q 741 485 741 626 l 741 0 l 628 0 m 202 1124 q 323 1259 288 1216 q 373 1331 358 1303 l 486 1331 q 538 1257 501 1302 q 659 1124 575 1212 l 659 1109 l 579 1109 q 429 1234 519 1146 q 280 1109 337 1144 l 202 1109 l 202 1124 "},"ѷ":{"x_min":0,"x_max":736.234375,"ha":703,"o":"m 275 0 l 0 743 l 118 743 l 270 327 q 351 77 338 145 l 356 77 q 428 339 372 157 l 493 548 q 542 673 518 631 q 597 732 566 714 q 685 750 628 750 q 736 743 715 750 l 736 657 q 690 662 716 662 q 639 634 658 662 q 600 543 619 605 l 432 0 l 275 0 m 536 842 l 471 842 q 376 938 436 870 q 291 1049 316 1007 l 291 1064 l 417 1064 q 470 963 436 1022 q 536 858 503 904 l 536 842 m 295 842 l 230 842 q 133 939 192 871 q 49 1049 74 1007 l 49 1064 l 176 1064 q 228 963 195 1022 q 295 858 262 904 l 295 842 "},"Κ":{"x_min":136.40625,"x_max":853,"ha":853,"o":"m 853 0 l 717 0 l 355 481 l 251 388 l 251 0 l 136 0 l 136 992 l 251 992 l 251 500 l 701 992 l 838 992 l 439 561 l 853 0 "},"҅":{"x_min":325,"x_max":486.5,"ha":802,"o":"m 325 992 q 347 1053 325 1030 q 408 1077 370 1077 q 470 1025 470 1077 q 460 998 470 1007 q 438 984 450 990 q 415 973 426 979 q 405 953 405 967 q 486 890 405 917 l 486 840 q 325 992 325 883 "},"»":{"x_min":54.21875,"x_max":634.421875,"ha":690,"o":"m 634 355 l 401 79 l 321 127 l 516 365 l 321 603 l 401 650 l 634 373 l 634 355 m 366 355 l 133 79 l 54 127 l 248 365 l 54 603 l 133 650 l 366 373 l 366 355 "},"∆":{"x_min":26.4375,"x_max":768.234375,"ha":794,"o":"m 26 70 l 340 992 l 452 992 l 768 69 l 768 0 l 26 0 l 26 70 m 395 860 q 327 625 354 707 l 151 103 l 640 103 l 465 619 q 395 860 419 756 "},"ỹ":{"x_min":1.359375,"x_max":698.640625,"ha":700,"o":"m 1 743 l 122 743 l 284 319 q 351 109 338 173 l 356 109 q 393 227 365 144 q 577 743 421 311 l 698 743 l 379 -103 q 268 -281 331 -228 q 112 -334 204 -334 q 10 -322 61 -334 l 10 -232 q 94 -240 48 -240 q 259 -110 210 -240 l 301 -4 l 1 743 m 454 843 q 397 855 425 843 q 342 883 369 868 q 291 911 316 898 q 243 924 266 924 q 192 903 209 924 q 165 842 175 883 l 99 842 q 146 970 107 924 q 247 1017 185 1017 q 307 1004 278 1017 q 363 976 337 991 q 414 948 390 961 q 460 935 438 935 q 510 955 493 935 q 536 1018 526 975 l 603 1018 q 556 889 594 935 q 454 843 518 843 "},"Ԓ":{"x_min":0,"x_max":940.390625,"ha":973,"o":"m 841 0 l 726 0 l 726 889 l 404 889 l 383 726 q 310 251 341 401 q 227 41 278 100 q 90 -16 175 -17 q 0 0 40 -16 l 0 97 q 76 80 36 80 q 139 109 112 80 q 186 212 166 139 q 239 489 207 285 q 308 992 270 693 l 841 992 l 841 0 m 940 104 l 940 -91 q 785 -268 940 -268 q 706 -251 747 -268 l 706 -156 q 776 -169 734 -169 q 840 -101 840 -169 l 840 104 l 940 104 "},"ў":{"x_min":1.359375,"x_max":698.640625,"ha":700,"o":"m 1 743 l 122 743 l 284 319 q 351 109 338 173 l 356 109 q 393 227 365 144 q 577 743 421 311 l 698 743 l 379 -103 q 268 -281 331 -228 q 112 -334 204 -334 q 10 -322 61 -334 l 10 -232 q 94 -240 48 -240 q 259 -110 210 -240 l 301 -4 l 1 743 m 346 842 q 163 890 220 842 q 98 1050 105 938 l 204 1050 q 241 951 210 979 q 348 924 272 924 q 452 953 418 924 q 493 1050 486 983 l 600 1050 q 531 892 591 942 q 346 842 471 842 "},"ţ":{"x_min":21.015625,"x_max":460.859375,"ha":490,"o":"m 359 78 q 416 83 389 78 q 460 92 444 87 l 460 6 q 406 -8 442 -2 q 342 -14 371 -14 q 127 213 127 -14 l 127 655 l 21 655 l 21 709 l 127 756 l 174 915 l 240 915 l 240 743 l 455 743 l 455 655 l 240 655 l 240 217 q 271 114 240 150 q 359 78 303 78 m 429 -196 q 377 -298 429 -262 q 224 -334 325 -334 q 159 -327 189 -334 l 159 -256 q 229 -261 189 -261 q 310 -247 282 -261 q 337 -197 337 -234 q 311 -150 337 -168 q 210 -120 284 -132 l 270 0 l 344 0 l 307 -78 q 429 -196 429 -104 "},"«":{"x_min":55.578125,"x_max":635.78125,"ha":690,"o":"m 55 373 l 287 650 l 368 603 l 172 365 l 368 127 l 287 79 l 55 355 l 55 373 m 323 373 l 556 650 l 635 603 l 441 365 l 635 127 l 556 79 l 323 355 l 323 373 "},"ử":{"x_min":111.265625,"x_max":970.0625,"ha":924,"o":"m 225 742 l 225 260 q 266 125 225 169 q 396 80 307 80 q 566 144 512 80 q 620 352 620 207 l 620 742 l 733 742 l 733 659 q 814 710 788 667 q 839 859 839 754 l 959 859 l 970 843 q 888 652 948 717 q 733 577 828 587 l 733 0 l 640 0 l 624 99 l 618 99 q 521 14 582 43 q 384 -14 459 -14 q 179 50 246 -14 q 111 256 111 114 l 111 742 l 225 742 m 573 1013 q 461 895 573 918 l 454 819 l 383 819 l 375 938 q 459 964 433 947 q 486 1010 486 981 q 463 1053 486 1039 q 391 1067 440 1067 q 327 1063 349 1067 l 327 1131 q 400 1138 353 1138 q 573 1013 573 1138 "},"í":{"x_min":114.65625,"x_max":381.3125,"ha":351,"o":"m 231 0 l 119 0 l 119 743 l 231 743 l 231 0 m 114 858 q 184 960 147 900 q 244 1064 222 1020 l 381 1064 l 381 1049 q 292 941 351 1005 q 189 842 233 877 l 114 842 l 114 858 "},"ң":{"x_min":119.359375,"x_max":862.703125,"ha":900,"o":"m 231 743 l 231 432 l 648 432 l 648 743 l 760 743 l 760 96 l 862 96 l 862 -256 l 750 -256 l 750 0 l 648 0 l 648 335 l 231 335 l 231 0 l 119 0 l 119 743 l 231 743 "},"ņ":{"x_min":119.4375,"x_max":741.03125,"ha":853,"o":"m 628 0 l 628 480 q 587 616 628 571 q 457 661 545 661 q 286 598 340 661 q 232 390 232 535 l 232 0 l 119 0 l 119 743 l 210 743 l 229 641 l 234 641 q 331 726 269 696 q 470 757 394 757 q 673 692 605 757 q 741 485 741 627 l 741 0 l 628 0 m 308 -290 q 344 -183 327 -246 q 366 -85 362 -120 l 480 -85 l 480 -97 q 440 -197 473 -131 q 369 -307 406 -262 l 308 -307 l 308 -290 "},"µ":{"x_min":119.375,"x_max":740.625,"ha":860,"o":"m 231 257 q 404 80 231 80 q 574 144 520 80 q 628 352 628 208 l 628 743 l 740 743 l 740 0 l 648 0 l 630 99 l 623 99 q 393 -14 548 -14 q 231 48 291 -14 l 225 48 q 231 -117 231 -8 l 231 -334 l 119 -334 l 119 743 l 231 743 l 231 257 "},"ỳ":{"x_min":1.359375,"x_max":698.640625,"ha":700,"o":"m 1 743 l 122 743 l 284 319 q 351 109 338 173 l 356 109 q 393 227 365 144 q 577 743 421 311 l 698 743 l 379 -103 q 268 -281 331 -228 q 112 -334 204 -334 q 10 -322 61 -334 l 10 -232 q 94 -240 48 -240 q 259 -110 210 -240 l 301 -4 l 1 743 m 425 842 l 350 842 q 246 942 306 877 q 158 1049 185 1007 l 158 1064 l 296 1064 q 356 956 318 1017 q 425 858 395 894 l 425 842 "},"Ҫ":{"x_min":84.75,"x_max":834.640625,"ha":876,"o":"m 560 902 q 302 793 397 902 q 208 495 208 685 q 299 194 208 300 q 559 88 390 88 q 796 125 663 88 l 796 24 q 541 -14 692 -14 q 203 119 322 -14 q 84 497 84 252 q 142 765 84 650 q 307 943 199 881 q 562 1006 415 1006 q 834 949 718 1006 l 785 850 q 560 902 673 902 m 523 -161 q 429 0 523 -91 l 512 0 q 619 -170 619 -81 q 585 -267 619 -232 q 483 -302 550 -302 q 405 -291 439 -302 l 405 -217 q 463 -224 426 -224 q 506 -208 488 -224 q 523 -161 523 -192 "},"қ":{"x_min":119.390625,"x_max":735.96875,"ha":757,"o":"m 552 743 l 676 743 l 355 384 l 615 96 l 735 96 l 735 -257 l 628 -257 l 628 0 l 571 0 l 231 376 l 231 0 l 119 0 l 119 743 l 231 743 l 231 381 l 552 743 "},"Ι":{"x_min":136.234375,"x_max":251.53125,"ha":387,"o":"m 136 0 l 136 992 l 251 992 l 251 0 l 136 0 "},"Ύ":{"x_min":-29.3125,"x_max":958,"ha":958,"o":"m 568 496 l 833 992 l 958 992 l 626 384 l 626 0 l 510 0 l 510 379 l 180 992 l 306 992 l 568 496 m -29 790 q 6 916 -11 839 q 33 1049 24 993 l 157 1049 l 157 1033 q 108 902 145 983 q 38 771 71 822 l -29 771 l -29 790 "},"ѕ":{"x_min":71.9375,"x_max":599.203125,"ha":663,"o":"m 599 202 q 521 42 599 98 q 304 -14 444 -14 q 73 33 156 -14 l 73 138 q 189 94 127 110 q 307 78 250 78 q 443 107 395 78 q 490 193 490 135 q 453 267 490 236 q 306 340 415 298 q 158 407 202 378 q 93 473 114 436 q 71 560 71 509 q 145 704 71 651 q 348 757 219 757 q 583 708 468 757 l 543 616 q 340 662 431 662 q 219 637 260 662 q 179 568 179 612 q 194 517 179 538 q 243 477 209 496 q 373 422 277 458 q 552 325 506 374 q 599 202 599 276 "},"Ш":{"x_min":136.34375,"x_max":1297.65625,"ha":1434,"o":"m 1297 0 l 136 0 l 136 992 l 251 992 l 251 104 l 658 104 l 658 992 l 773 992 l 773 104 l 1181 104 l 1181 992 l 1297 992 l 1297 0 "},"M":{"x_min":136.3125,"x_max":1118.359375,"ha":1254,"o":"m 575 0 l 238 879 l 233 879 q 242 631 242 774 l 242 0 l 136 0 l 136 992 l 309 992 l 623 173 l 629 173 l 946 992 l 1118 992 l 1118 0 l 1003 0 l 1003 639 q 1012 878 1003 749 l 1007 878 l 668 0 l 575 0 "},"Ψ":{"x_min":73.953125,"x_max":1032.71875,"ha":1106,"o":"m 609 0 l 494 0 l 494 302 l 464 302 q 258 344 344 302 q 122 469 171 385 q 73 664 73 553 l 73 992 l 191 992 l 191 666 q 262 471 191 539 q 476 403 332 403 l 494 403 l 494 992 l 609 992 l 609 403 l 629 403 q 843 470 772 403 q 913 664 913 537 l 913 992 l 1032 992 l 1032 665 q 983 469 1032 553 q 847 344 935 386 q 640 302 759 302 l 609 302 l 609 0 "},"ӊ":{"x_min":119.390625,"x_max":880.546875,"ha":907,"o":"m 231 742 l 231 432 l 648 432 l 648 742 l 761 742 l 761 96 l 880 96 l 793 -256 l 676 -256 l 761 0 l 648 0 l 648 335 l 231 335 l 231 0 l 119 0 l 119 742 l 231 742 "},"ũ":{"x_min":111.296875,"x_max":733.5625,"ha":853,"o":"m 225 743 l 225 260 q 266 125 225 169 q 396 80 308 80 q 567 144 513 80 q 620 352 620 207 l 620 743 l 733 743 l 733 0 l 640 0 l 624 99 l 618 99 q 522 15 583 44 q 382 -14 460 -14 q 178 50 246 -14 q 111 256 111 114 l 111 743 l 225 743 m 528 843 q 471 855 499 843 q 416 883 443 868 q 365 911 390 898 q 317 924 340 924 q 266 903 283 924 q 239 842 249 883 l 173 842 q 220 970 181 924 q 321 1017 259 1017 q 381 1004 352 1017 q 437 976 411 991 q 488 948 464 961 q 534 935 512 935 q 584 955 567 935 q 610 1018 600 975 l 677 1018 q 630 889 668 935 q 528 843 592 843 "},"ŭ":{"x_min":111.296875,"x_max":733.5625,"ha":853,"o":"m 225 743 l 225 260 q 266 125 225 169 q 396 80 308 80 q 567 144 513 80 q 620 352 620 207 l 620 743 l 733 743 l 733 0 l 640 0 l 624 99 l 618 99 q 522 15 583 44 q 382 -14 460 -14 q 178 50 246 -14 q 111 256 111 114 l 111 743 l 225 743 m 417 842 q 269 888 322 842 q 210 1024 216 935 l 281 1024 q 299 971 285 990 q 337 943 313 952 q 420 934 362 934 q 521 956 488 934 q 560 1024 553 978 l 631 1024 q 567 890 624 938 q 417 842 511 842 "},"―":{"x_min":55.609375,"x_max":1333.390625,"ha":1389,"o":"m 55 320 l 55 424 l 1333 424 l 1333 320 l 55 320 "},"{":{"x_min":41.34375,"x_max":477.875,"ha":526,"o":"m 322 8 q 361 -92 322 -61 q 477 -125 401 -123 l 477 -220 q 278 -160 349 -218 q 208 1 208 -103 l 208 206 q 165 307 208 277 q 41 337 122 337 l 41 433 q 168 466 129 434 q 208 562 208 497 l 208 770 q 281 933 208 875 q 477 992 354 992 l 477 897 q 322 762 322 893 l 322 562 q 170 390 322 416 l 170 381 q 322 209 322 355 l 322 8 "},"ҿ":{"x_min":34.609375,"x_max":844.75,"ha":916,"o":"m 491 -7 q 290 106 362 14 q 215 351 219 199 q 34 504 34 354 q 51 585 34 551 l 147 585 q 133 512 133 553 q 205 443 133 443 l 219 443 l 223 466 q 331 679 246 603 q 540 756 416 756 q 762 666 681 756 q 844 422 844 576 l 844 351 l 331 351 q 394 150 335 216 q 569 84 452 84 q 692 95 638 84 q 812 134 746 106 l 812 34 q 604 -12 716 -9 l 604 -256 l 491 -256 l 491 -7 m 538 661 q 396 606 447 661 q 335 443 344 550 l 724 443 q 676 605 724 549 q 538 661 629 661 "},"¼":{"x_min":50.515625,"x_max":1010.125,"ha":1083,"o":"m 879 992 l 267 0 l 170 0 l 782 992 l 879 992 m 228 992 l 325 992 l 325 397 l 234 397 l 234 790 q 239 913 234 852 q 205 883 224 898 q 95 803 187 867 l 50 868 l 228 992 m 1010 137 l 925 137 l 925 0 l 827 0 l 827 137 l 554 137 l 554 206 l 831 599 l 925 599 l 925 217 l 1010 217 l 1010 137 m 827 217 l 827 349 q 831 491 827 440 q 819 469 827 483 q 801 441 811 456 q 780 410 791 426 q 763 383 770 395 l 649 217 l 827 217 "},"Ḿ":{"x_min":136.3125,"x_max":1118.359375,"ha":1254,"o":"m 575 0 l 238 879 l 233 879 q 242 631 242 774 l 242 0 l 136 0 l 136 992 l 309 992 l 623 173 l 629 173 l 946 992 l 1118 992 l 1118 0 l 1003 0 l 1003 639 q 1012 878 1003 749 l 1007 878 l 668 0 l 575 0 m 545 1089 q 615 1191 578 1131 q 675 1295 653 1251 l 812 1295 l 812 1280 q 723 1172 782 1236 q 620 1073 664 1108 l 545 1073 l 545 1089 "},"Ӄ":{"x_min":136.328125,"x_max":885.109375,"ha":957,"o":"m 411 430 q 251 409 316 430 l 251 0 l 136 0 l 136 992 l 251 992 l 251 511 l 691 992 l 830 992 l 400 527 l 417 529 q 765 418 645 529 q 885 101 885 308 q 785 -229 885 -111 q 503 -347 685 -347 q 406 -340 448 -347 q 316 -313 364 -333 l 316 -210 q 502 -243 399 -243 q 697 -152 629 -243 q 765 101 765 -61 q 671 344 765 259 q 411 430 577 430 "},"ι":{"x_min":114.015625,"x_max":447.25,"ha":471,"o":"m 226 743 l 226 217 q 251 113 226 147 q 335 78 276 78 q 394 83 360 78 q 447 92 428 87 l 447 6 q 390 -8 426 -2 q 321 -14 354 -14 q 163 42 212 -14 q 114 214 114 99 l 114 743 l 226 743 "},"Ĳ":{"x_min":136.234375,"x_max":631.15625,"ha":758,"o":"m 136 0 l 136 992 l 251 992 l 251 0 l 136 0 m 378 -261 q 278 -242 315 -261 l 278 -144 q 378 -157 326 -157 q 480 -117 446 -157 q 515 0 515 -76 l 515 992 l 631 992 l 631 9 q 566 -190 631 -119 q 378 -261 500 -261 "},"Ê":{"x_min":136.40625,"x_max":689.53125,"ha":773,"o":"m 689 0 l 136 0 l 136 992 l 689 992 l 689 889 l 251 889 l 251 570 l 663 570 l 663 468 l 251 468 l 251 103 l 689 103 l 689 0 m 178 1086 q 299 1221 264 1178 q 349 1293 334 1265 l 462 1293 q 514 1219 477 1264 q 635 1086 551 1174 l 635 1071 l 555 1071 q 405 1196 495 1108 q 256 1071 313 1106 l 178 1071 l 178 1086 "},"Ά":{"x_min":0,"x_max":879,"ha":879,"o":"m 759 0 l 636 315 l 238 315 l 116 0 l 0 0 l 392 996 l 489 996 l 879 0 l 759 0 m 600 419 l 484 726 q 438 869 462 784 q 396 726 423 804 l 279 419 l 600 419 m 18 790 q 54 916 37 839 q 81 1049 72 993 l 205 1049 l 205 1033 q 156 902 193 983 q 86 771 119 822 l 18 771 l 18 790 "},")":{"x_min":41.375,"x_max":355.390625,"ha":411,"o":"m 355 380 q 302 48 355 202 q 151 -220 250 -106 l 42 -220 q 187 63 137 -92 q 237 381 237 219 q 188 704 237 547 q 41 992 139 861 l 151 992 q 303 716 250 873 q 355 380 355 559 "},"ε":{"x_min":61.046875,"x_max":612.515625,"ha":660,"o":"m 485 435 l 485 339 l 384 339 q 173 206 173 339 q 223 112 173 145 q 372 78 273 78 q 485 92 429 78 q 609 137 541 105 l 609 36 q 366 -14 516 -14 q 142 43 224 -14 q 61 201 61 100 q 98 312 61 267 q 223 384 135 356 l 223 392 q 121 454 157 411 q 84 559 84 497 q 160 703 84 649 q 366 757 236 757 q 488 745 432 757 q 612 704 544 734 l 569 613 q 461 651 506 642 q 364 661 417 661 q 194 551 194 661 q 409 435 194 435 l 485 435 "},"э":{"x_min":38.671875,"x_max":605.96875,"ha":684,"o":"m 232 -14 q 38 24 118 -14 l 38 124 q 126 96 79 108 q 236 84 174 84 q 418 147 354 84 q 489 336 482 210 l 112 336 l 112 432 l 487 432 q 419 603 477 548 q 253 657 362 657 q 80 620 183 657 l 48 715 q 141 745 86 733 q 251 757 197 757 q 515 657 425 757 q 605 370 605 558 q 507 87 605 188 q 232 -14 409 -14 "},"Ӷ":{"x_min":136.359375,"x_max":700.109375,"ha":732,"o":"m 136 992 l 700 992 l 700 888 l 251 888 l 251 104 l 360 104 l 360 -258 l 251 -258 l 251 0 l 136 0 l 136 992 "},"ӫ":{"x_min":78,"x_max":761,"ha":839,"o":"m 761 372 q 669 88 761 190 q 416 -14 577 -14 q 239 32 316 -14 q 120 167 162 79 q 78 372 78 254 q 168 655 78 554 q 421 757 259 757 q 669 653 577 757 q 761 372 761 549 m 419 80 q 581 142 526 80 q 644 335 637 205 l 194 335 q 255 144 200 208 q 419 80 309 80 m 417 661 q 258 602 311 661 q 196 431 204 544 l 642 431 q 578 603 632 544 q 417 661 523 661 m 227 945 q 245 996 227 980 q 288 1012 263 1012 q 333 996 314 1012 q 351 945 351 980 q 333 894 351 911 q 288 878 314 878 q 245 894 263 878 q 227 945 227 911 m 486 945 q 504 996 486 980 q 547 1012 522 1012 q 591 996 572 1012 q 609 945 609 980 q 591 894 609 911 q 547 878 572 878 q 504 894 522 878 q 486 945 486 911 "},"ԋ":{"x_min":119.34375,"x_max":1155.4375,"ha":1268,"o":"m 231 743 l 231 432 l 633 432 l 633 743 l 745 743 l 745 263 q 781 125 745 170 q 898 80 817 80 q 1042 262 1042 80 l 1042 475 l 1155 475 l 1155 255 q 1092 52 1155 118 q 898 -14 1028 -14 q 702 53 772 -14 q 633 256 633 120 l 633 335 l 231 335 l 231 0 l 119 0 l 119 743 l 231 743 "},"ш":{"x_min":119.328125,"x_max":1116.671875,"ha":1236,"o":"m 673 96 l 1002 96 l 1002 743 l 1116 743 l 1116 0 l 119 0 l 119 743 l 231 743 l 231 96 l 560 96 l 560 743 l 673 743 l 673 96 "},"Я":{"x_min":34.59375,"x_max":747.640625,"ha":884,"o":"m 430 414 l 170 0 l 34 0 l 312 433 q 154 538 203 468 q 104 715 104 608 q 196 920 104 848 q 474 992 288 992 l 747 992 l 747 0 l 632 0 l 632 414 l 430 414 m 632 892 l 478 892 q 289 849 354 892 q 225 710 225 806 q 482 513 225 513 l 632 513 l 632 892 "},"a":{"x_min":63.796875,"x_max":660.34375,"ha":773,"o":"m 576 0 l 554 105 l 549 105 q 438 10 493 35 q 299 -14 382 -14 q 126 43 189 -14 q 63 205 63 100 q 424 441 63 431 l 550 446 l 550 492 q 512 621 550 579 q 392 663 475 663 q 181 606 299 663 l 147 692 q 267 739 202 722 q 399 756 333 756 q 596 696 532 756 q 660 507 660 637 l 660 0 l 576 0 m 322 78 q 487 136 427 78 q 547 298 547 194 l 547 365 l 435 361 q 241 319 300 356 q 181 204 181 282 q 218 110 181 142 q 322 78 255 78 "},"Ę":{"x_min":136.40625,"x_max":689.53125,"ha":773,"o":"m 689 0 l 136 0 l 136 992 l 689 992 l 689 889 l 251 889 l 251 570 l 663 570 l 663 468 l 251 468 l 251 103 l 689 103 l 689 0 m 545 -160 q 609 -224 545 -224 q 674 -215 637 -224 l 674 -289 q 590 -302 630 -302 q 450 -174 450 -302 q 479 -81 450 -127 q 557 0 508 -35 l 638 0 q 569 -81 592 -44 q 545 -160 545 -118 "},"Ӣ":{"x_min":137.71875,"x_max":924,"ha":1059,"o":"m 137 992 l 245 992 l 245 440 q 236 164 245 287 l 241 164 l 797 992 l 924 992 l 924 0 l 815 0 l 815 546 q 827 832 815 682 l 820 832 l 263 0 l 137 0 l 137 992 m 326 1163 l 732 1163 l 732 1071 l 326 1071 l 326 1163 "},"Z":{"x_min":55.625,"x_max":737.375,"ha":793,"o":"m 737 0 l 55 0 l 55 90 l 582 888 l 71 888 l 71 992 l 722 992 l 722 901 l 196 104 l 737 104 l 737 0 "},"⁸":{"x_min":34.578125,"x_max":446.75,"ha":482,"o":"m 241 1003 q 376 962 325 1003 q 427 852 427 922 q 327 712 427 764 q 446 555 446 662 q 390 432 446 478 q 241 386 334 386 q 88 429 142 386 q 34 551 34 472 q 59 637 34 597 q 141 707 84 676 q 72 770 91 738 q 52 848 52 802 q 106 960 52 917 q 241 1003 159 1003 m 123 551 q 151 485 123 510 q 238 461 180 461 q 328 485 299 461 q 356 551 356 510 q 325 620 356 593 q 238 666 293 647 l 219 673 q 147 621 170 650 q 123 551 123 593 m 239 929 q 168 908 193 929 q 143 849 143 888 q 166 793 143 817 q 244 747 189 769 q 338 849 338 783 q 312 908 338 888 q 239 929 286 929 "}," ":{"x_min":0,"x_max":0,"ha":232},"k":{"x_min":119.34375,"x_max":714.078125,"ha":729,"o":"m 230 380 q 319 488 259 421 l 559 743 l 693 743 l 391 426 l 714 0 l 577 0 l 315 351 l 230 277 l 230 0 l 119 0 l 119 1055 l 230 1055 l 230 495 q 225 380 230 458 l 230 380 "},"Ù":{"x_min":126.125,"x_max":884.875,"ha":1011,"o":"m 884 992 l 884 349 q 782 83 884 180 q 501 -14 680 -14 q 224 83 322 -14 q 126 352 126 181 l 126 992 l 241 992 l 241 344 q 309 153 241 220 q 508 87 377 87 q 701 153 633 87 q 769 345 769 220 l 769 992 l 884 992 m 580 1071 l 505 1071 q 401 1171 461 1106 q 313 1278 340 1236 l 313 1293 l 451 1293 q 511 1185 473 1246 q 580 1087 550 1123 l 580 1071 "},"Ҷ":{"x_min":115.296875,"x_max":938.625,"ha":961,"o":"m 829 104 l 938 104 l 938 -258 l 829 -258 l 829 0 l 714 0 l 714 410 q 545 361 613 374 q 406 347 478 347 q 190 412 266 347 q 115 598 115 476 l 115 992 l 230 992 l 230 611 q 273 490 230 529 q 413 451 316 451 q 539 460 479 451 q 714 507 599 470 l 714 992 l 829 992 l 829 104 "},"Ů":{"x_min":126.125,"x_max":884.875,"ha":1011,"o":"m 884 992 l 884 349 q 782 83 884 180 q 501 -14 680 -14 q 224 83 322 -14 q 126 352 126 181 l 126 992 l 241 992 l 241 344 q 309 153 241 220 q 508 87 377 87 q 701 153 633 87 q 769 345 769 220 l 769 992 l 884 992 m 657 1218 q 615 1111 657 1151 q 504 1071 574 1071 q 395 1110 436 1071 q 355 1216 355 1150 q 396 1322 355 1283 q 504 1361 437 1361 q 615 1320 573 1361 q 657 1218 657 1280 m 584 1216 q 561 1275 584 1254 q 504 1295 539 1295 q 447 1275 470 1295 q 425 1216 425 1254 q 445 1158 425 1178 q 504 1137 466 1137 q 562 1158 540 1137 q 584 1216 584 1178 "},"¢":{"x_min":128.828125,"x_max":669.234375,"ha":794,"o":"m 658 162 q 487 122 587 126 l 487 -14 l 397 -14 l 397 126 q 194 240 259 147 q 128 502 128 333 q 397 889 128 847 l 397 1006 l 488 1006 l 488 895 q 587 881 539 892 q 669 854 636 870 l 636 760 q 471 794 545 794 q 300 723 355 794 q 245 504 245 651 q 299 291 245 360 q 466 222 353 222 q 658 262 562 222 l 658 162 "},"В":{"x_min":136.328125,"x_max":823.359375,"ha":900,"o":"m 136 992 l 416 992 q 701 932 613 992 q 790 746 790 873 q 740 600 790 658 q 597 526 691 543 l 597 519 q 823 282 823 480 q 733 74 823 149 q 482 0 643 0 l 136 0 l 136 992 m 251 567 l 441 567 q 617 605 563 567 q 670 734 670 643 q 611 855 670 818 q 421 892 551 892 l 251 892 l 251 567 m 251 469 l 251 98 l 458 98 q 639 144 578 98 q 699 290 699 191 q 637 425 699 382 q 448 469 575 469 l 251 469 "},"І":{"x_min":136.234375,"x_max":251.53125,"ha":387,"o":"m 136 0 l 136 992 l 251 992 l 251 0 l 136 0 "},"ē":{"x_min":77.96875,"x_max":706.453125,"ha":779,"o":"m 433 -14 q 173 86 268 -14 q 77 365 77 186 q 166 651 77 545 q 404 757 254 757 q 625 665 543 757 q 706 422 706 573 l 706 351 l 194 351 q 260 152 198 220 q 437 84 323 84 q 674 134 557 84 l 674 34 q 561 -2 614 8 q 433 -14 508 -14 m 402 662 q 260 604 313 662 q 197 443 206 546 l 585 443 q 538 606 585 549 q 402 662 490 662 m 211 934 l 617 934 l 617 842 l 211 842 l 211 934 "},"Ẹ":{"x_min":136.40625,"x_max":689.53125,"ha":773,"o":"m 689 0 l 136 0 l 136 992 l 689 992 l 689 889 l 251 889 l 251 570 l 663 570 l 663 468 l 251 468 l 251 103 l 689 103 l 689 0 m 344 -164 q 364 -107 344 -125 q 412 -89 384 -89 q 459 -107 439 -89 q 479 -164 479 -125 q 459 -220 479 -201 q 412 -239 439 -239 q 364 -220 384 -239 q 344 -164 344 -201 "},"β":{"x_min":119.34375,"x_max":808.265625,"ha":872,"o":"m 446 1063 q 680 992 596 1063 q 764 797 764 921 q 552 563 764 598 l 552 558 q 808 280 808 529 q 718 62 808 138 q 467 -14 629 -14 q 339 -3 393 -14 q 231 33 285 7 l 231 -334 l 119 -334 l 119 743 q 205 979 119 896 q 446 1063 290 1063 m 445 968 q 285 909 338 968 q 231 739 231 851 l 231 137 q 349 91 294 104 q 462 78 404 78 q 637 129 578 78 q 695 287 695 180 q 631 449 695 394 q 446 505 566 505 l 370 505 l 370 602 l 433 602 q 593 651 538 602 q 648 794 648 701 q 595 922 648 877 q 445 968 542 968 "},"≠":{"x_min":70.515625,"x_max":722.125,"ha":794,"o":"m 258 305 l 70 305 l 70 397 l 301 397 l 387 582 l 70 582 l 70 675 l 430 675 l 522 870 l 606 831 l 532 675 l 722 675 l 722 582 l 490 582 l 402 397 l 722 397 l 722 305 l 359 305 l 270 113 l 185 150 l 258 305 "},"‼":{"x_min":103.09375,"x_max":571.546875,"ha":675,"o":"m 221 273 l 149 273 l 115 992 l 255 992 l 221 273 m 103 71 q 184 163 103 163 q 245 140 223 163 q 266 71 266 116 q 244 4 266 28 q 184 -20 223 -20 q 126 1 149 -20 q 103 71 103 22 m 526 273 l 454 273 l 420 992 l 560 992 l 526 273 m 408 71 q 489 163 408 163 q 550 140 528 163 q 571 71 571 116 q 549 4 571 28 q 489 -20 528 -20 q 431 1 454 -20 q 408 71 408 22 "},"Ғ":{"x_min":31.890625,"x_max":700.109375,"ha":732,"o":"m 700 992 l 700 888 l 251 888 l 251 542 l 539 542 l 539 440 l 251 440 l 251 0 l 136 0 l 136 440 l 31 440 l 31 542 l 136 542 l 136 992 l 700 992 "},"¥":{"x_min":21.015625,"x_max":770.953125,"ha":794,"o":"m 395 499 l 652 992 l 770 992 l 488 470 l 666 470 l 666 383 l 451 383 l 451 268 l 666 268 l 666 181 l 451 181 l 451 0 l 340 0 l 340 181 l 126 181 l 126 268 l 340 268 l 340 383 l 126 383 l 126 470 l 299 470 l 21 992 l 141 992 l 395 499 "},"Ĥ":{"x_min":136.34375,"x_max":889.328125,"ha":1025,"o":"m 889 0 l 774 0 l 774 466 l 251 466 l 251 0 l 136 0 l 136 992 l 251 992 l 251 570 l 774 570 l 774 992 l 889 992 l 889 0 m 283 1086 q 404 1221 369 1178 q 454 1293 439 1265 l 567 1293 q 619 1219 582 1264 q 740 1086 656 1174 l 740 1071 l 660 1071 q 510 1196 600 1108 q 361 1071 418 1106 l 283 1071 l 283 1086 "},"U":{"x_min":126.125,"x_max":884.875,"ha":1011,"o":"m 884 992 l 884 349 q 782 83 884 180 q 501 -14 680 -14 q 224 83 322 -14 q 126 352 126 181 l 126 992 l 241 992 l 241 344 q 309 153 241 220 q 508 87 377 87 q 701 153 633 87 q 769 345 769 220 l 769 992 l 884 992 "},"Ñ":{"x_min":136.296875,"x_max":910.703125,"ha":1047,"o":"m 910 0 l 779 0 l 237 832 l 231 832 q 242 563 242 685 l 242 0 l 136 0 l 136 992 l 266 992 l 806 162 l 812 162 q 806 280 811 181 q 802 422 801 379 l 802 992 l 910 992 l 910 0 m 634 1072 q 577 1084 605 1072 q 522 1112 549 1097 q 471 1140 496 1127 q 423 1153 446 1153 q 372 1132 389 1153 q 345 1071 355 1112 l 279 1071 q 326 1199 287 1153 q 427 1246 365 1246 q 487 1233 458 1246 q 543 1205 517 1220 q 594 1177 570 1190 q 640 1164 618 1164 q 690 1184 673 1164 q 716 1247 706 1204 l 783 1247 q 736 1118 774 1164 q 634 1072 698 1072 "},"F":{"x_min":136.34375,"x_max":689.1875,"ha":717,"o":"m 251 0 l 136 0 l 136 992 l 689 992 l 689 889 l 251 889 l 251 527 l 662 527 l 662 424 l 251 424 l 251 0 "},"ả":{"x_min":63.796875,"x_max":660.34375,"ha":773,"o":"m 576 0 l 554 105 l 549 105 q 438 10 493 35 q 299 -14 382 -14 q 126 43 189 -14 q 63 205 63 100 q 424 441 63 431 l 550 446 l 550 492 q 512 621 550 579 q 392 663 475 663 q 181 606 299 663 l 147 692 q 267 739 202 722 q 399 756 333 756 q 596 696 532 756 q 660 507 660 637 l 660 0 l 576 0 m 322 78 q 487 136 427 78 q 547 298 547 194 l 547 365 l 435 361 q 241 319 300 356 q 181 204 181 282 q 218 110 181 142 q 322 78 255 78 m 537 1013 q 425 895 537 918 l 418 819 l 347 819 l 339 938 q 423 964 397 947 q 450 1010 450 981 q 427 1053 450 1039 q 355 1067 404 1067 q 291 1063 313 1067 l 291 1131 q 364 1138 317 1138 q 537 1013 537 1138 "},"ϑ":{"x_min":6.78125,"x_max":845.6875,"ha":864,"o":"m 752 573 q 755 498 755 542 q 657 122 755 258 q 384 -14 560 -14 q 118 219 118 -14 q 128 341 118 258 q 139 440 139 424 q 126 483 139 472 q 92 495 114 495 q 57 490 75 495 q 29 479 39 485 l 6 559 q 127 586 63 586 q 218 554 187 586 q 250 459 250 522 q 240 347 250 435 q 229 218 229 257 q 387 77 229 77 q 641 500 641 77 q 638 573 641 543 q 382 610 487 574 q 222 709 276 646 q 168 862 168 773 q 229 1015 168 960 q 405 1071 291 1071 q 633 966 546 1071 q 748 661 720 862 l 845 661 l 845 573 l 752 573 m 633 661 q 552 891 614 804 q 406 978 490 978 q 310 945 343 978 q 278 862 278 913 q 371 714 278 766 q 633 661 464 662 "},"Ӹ":{"x_min":136.34375,"x_max":1048.65625,"ha":1185,"o":"m 136 0 l 136 992 l 251 992 l 251 569 l 413 569 q 683 499 590 569 q 776 289 776 429 q 688 74 776 149 q 432 0 600 0 l 136 0 m 251 98 l 419 98 q 599 146 541 98 q 657 289 657 194 q 596 424 657 382 q 400 465 535 465 l 251 465 l 251 98 m 1048 0 l 933 0 l 933 992 l 1048 992 l 1048 0 m 401 1174 q 419 1225 401 1209 q 462 1241 437 1241 q 507 1225 488 1241 q 525 1174 525 1209 q 507 1123 525 1140 q 462 1107 488 1107 q 419 1123 437 1107 q 401 1174 401 1140 m 660 1174 q 678 1225 660 1209 q 721 1241 696 1241 q 765 1225 746 1241 q 783 1174 783 1209 q 765 1123 783 1140 q 721 1107 746 1107 q 678 1123 696 1107 q 660 1174 660 1140 "},"Ќ":{"x_min":136.359375,"x_max":850,"ha":850,"o":"m 850 0 l 710 0 l 251 502 l 251 0 l 136 0 l 136 992 l 251 992 l 251 511 l 698 992 l 831 992 l 392 510 l 850 0 m 376 1087 q 446 1189 409 1129 q 506 1293 484 1249 l 643 1293 l 643 1278 q 554 1170 613 1234 q 451 1071 495 1106 l 376 1071 l 376 1087 "},"ờ":{"x_min":78.015625,"x_max":885.3125,"ha":846,"o":"m 761 372 q 669 88 761 190 q 416 -14 578 -14 q 239 32 316 -14 q 120 167 162 79 q 78 372 78 254 q 168 655 78 554 q 421 757 259 757 q 661 661 568 757 q 715 693 696 671 q 744 748 735 715 q 753 857 753 782 l 875 857 l 885 841 q 823 676 864 735 q 713 591 782 617 q 761 372 761 497 m 194 372 q 248 154 194 228 q 419 80 301 80 q 591 154 538 80 q 644 372 644 228 q 590 588 644 514 q 417 661 536 661 q 247 588 300 661 q 194 372 194 514 m 503 842 l 428 842 q 324 942 384 877 q 236 1049 263 1007 l 236 1064 l 374 1064 q 434 956 396 1017 q 503 858 473 894 l 503 842 "},"҄":{"x_min":168.265625,"x_max":669.6875,"ha":802,"o":"m 176 934 q 359 974 257 934 q 515 1014 460 1014 q 630 976 590 1014 q 669 871 669 938 l 669 850 l 584 850 l 584 861 q 512 930 584 930 q 449 918 483 930 q 373 891 414 906 q 284 864 332 877 q 179 852 236 852 l 168 852 l 168 934 l 176 934 "},"å":{"x_min":63.796875,"x_max":660.34375,"ha":773,"o":"m 576 0 l 554 105 l 549 105 q 438 10 493 35 q 299 -14 382 -14 q 126 43 189 -14 q 63 205 63 100 q 424 441 63 431 l 550 446 l 550 492 q 512 621 550 579 q 392 663 475 663 q 181 606 299 663 l 147 692 q 267 739 202 722 q 399 756 333 756 q 596 696 532 756 q 660 507 660 637 l 660 0 l 576 0 m 322 78 q 487 136 427 78 q 547 298 547 194 l 547 365 l 435 361 q 241 319 300 356 q 181 204 181 282 q 218 110 181 142 q 322 78 255 78 m 545 989 q 503 882 545 922 q 392 842 462 842 q 283 881 324 842 q 243 987 243 921 q 284 1093 243 1054 q 392 1132 325 1132 q 503 1091 461 1132 q 545 989 545 1051 m 472 987 q 449 1046 472 1025 q 392 1066 427 1066 q 335 1046 358 1066 q 313 987 313 1025 q 333 929 313 949 q 392 908 354 908 q 450 929 428 908 q 472 987 472 949 "},"Ϋ":{"x_min":0,"x_max":778,"ha":778,"o":"m 388 496 l 653 992 l 778 992 l 446 384 l 446 0 l 330 0 l 330 379 l 0 992 l 126 992 l 388 496 m 197 1174 q 215 1225 197 1209 q 258 1241 233 1241 q 303 1225 284 1241 q 321 1174 321 1209 q 303 1123 321 1140 q 258 1107 284 1107 q 215 1123 233 1107 q 197 1174 197 1140 m 456 1174 q 474 1225 456 1209 q 517 1241 492 1241 q 561 1225 542 1241 q 579 1174 579 1209 q 561 1123 579 1140 q 517 1107 542 1107 q 474 1123 492 1107 q 456 1174 456 1140 "},"0":{"x_min":69.15625,"x_max":724.84375,"ha":794,"o":"m 724 496 q 643 112 724 239 q 395 -14 562 -14 q 152 115 235 -14 q 69 496 69 245 q 149 881 69 755 q 395 1007 230 1007 q 641 876 557 1007 q 724 496 724 745 m 183 496 q 233 181 183 280 q 395 82 284 82 q 559 183 508 82 q 609 496 609 283 q 559 809 609 710 q 395 909 508 909 q 233 811 284 909 q 183 496 183 713 "},"ō":{"x_min":78,"x_max":761,"ha":839,"o":"m 761 372 q 669 88 761 190 q 416 -14 577 -14 q 239 32 316 -14 q 120 167 162 79 q 78 372 78 254 q 168 655 78 554 q 421 757 259 757 q 669 653 577 757 q 761 372 761 549 m 194 372 q 251 154 194 229 q 419 80 308 80 q 587 154 529 80 q 644 372 644 228 q 587 587 644 514 q 417 661 529 661 q 250 588 307 661 q 194 372 194 516 m 216 934 l 622 934 l 622 842 l 216 842 l 216 934 "},"”":{"x_min":16.953125,"x_max":469.046875,"ha":486,"o":"m 209 992 l 219 977 q 168 819 201 909 q 99 652 135 729 l 16 652 q 86 992 64 845 l 209 992 m 459 992 l 469 977 q 420 825 452 915 q 349 652 387 734 l 265 652 q 305 824 282 719 q 336 992 327 928 l 459 992 "},"Ӕ":{"x_min":-1.359375,"x_max":1129.5625,"ha":1213,"o":"m 1129 0 l 620 0 l 620 315 l 272 315 l 118 0 l -1 0 l 472 992 l 1129 992 l 1129 889 l 736 889 l 736 570 l 1103 570 l 1103 468 l 736 468 l 736 103 l 1129 103 l 1129 0 m 318 419 l 620 419 l 620 889 l 540 889 l 318 419 "},"҆":{"x_min":326.359375,"x_max":487.84375,"ha":802,"o":"m 487 992 q 326 840 487 883 l 326 890 q 407 953 407 917 q 396 973 407 967 q 374 984 386 979 q 352 998 362 990 q 341 1025 341 1007 q 404 1077 341 1077 q 465 1053 442 1077 q 487 992 487 1030 "},"ö":{"x_min":78,"x_max":761,"ha":839,"o":"m 761 372 q 669 88 761 190 q 416 -14 577 -14 q 239 32 316 -14 q 120 167 162 79 q 78 372 78 254 q 168 655 78 554 q 421 757 259 757 q 669 653 577 757 q 761 372 761 549 m 194 372 q 251 154 194 229 q 419 80 308 80 q 587 154 529 80 q 644 372 644 228 q 587 587 644 514 q 417 661 529 661 q 250 588 307 661 q 194 372 194 516 m 227 945 q 245 996 227 980 q 288 1012 263 1012 q 333 996 314 1012 q 351 945 351 980 q 333 894 351 911 q 288 878 314 878 q 245 894 263 878 q 227 945 227 911 m 486 945 q 504 996 486 980 q 547 1012 522 1012 q 591 996 572 1012 q 609 945 609 980 q 591 894 609 911 q 547 878 572 878 q 504 894 522 878 q 486 945 486 911 "},"ć":{"x_min":77.96875,"x_max":614.90625,"ha":661,"o":"m 416 -14 q 166 85 254 -14 q 77 366 77 184 q 167 655 77 553 q 423 757 257 757 q 530 745 477 757 q 614 718 584 733 l 580 622 q 498 647 543 637 q 421 657 454 657 q 194 368 194 657 q 249 157 194 230 q 413 84 305 84 q 604 124 506 84 l 604 24 q 416 -14 529 -14 m 312 858 q 382 960 345 900 q 442 1064 420 1020 l 579 1064 l 579 1049 q 490 941 549 1005 q 387 842 431 877 l 312 842 l 312 858 "},"þ":{"x_min":119.34375,"x_max":773.703125,"ha":851,"o":"m 233 642 q 335 730 278 703 q 465 757 393 757 q 692 655 610 757 q 773 372 773 553 q 691 88 773 190 q 465 -14 610 -14 q 231 95 314 -14 l 223 95 l 226 72 q 231 -22 231 19 l 231 -334 l 119 -334 l 119 1055 l 231 1055 l 231 739 q 227 642 231 703 l 233 642 m 450 661 q 284 598 336 661 q 231 400 233 536 l 231 372 q 284 147 231 215 q 451 80 336 80 q 657 373 657 80 q 606 590 657 519 q 450 661 556 661 "},"]":{"x_min":34.578125,"x_max":344.4375,"ha":457,"o":"m 34 -123 l 230 -123 l 230 896 l 34 896 l 34 992 l 344 992 l 344 -220 l 34 -220 l 34 -123 "},"А":{"x_min":0,"x_max":879,"ha":879,"o":"m 759 0 l 636 315 l 238 315 l 116 0 l 0 0 l 392 996 l 489 996 l 879 0 l 759 0 m 600 419 l 484 726 q 438 869 462 784 q 396 726 423 804 l 279 419 l 600 419 "},"′":{"x_min":90.140625,"x_max":216.296875,"ha":307,"o":"m 216 992 l 189 634 l 117 634 l 90 992 l 216 992 "},"Ы":{"x_min":136.34375,"x_max":1048.65625,"ha":1185,"o":"m 136 0 l 136 992 l 251 992 l 251 569 l 413 569 q 683 499 590 569 q 776 289 776 429 q 688 74 776 149 q 432 0 600 0 l 136 0 m 251 98 l 419 98 q 599 146 541 98 q 657 289 657 194 q 596 424 657 382 q 400 465 535 465 l 251 465 l 251 98 m 1048 0 l 933 0 l 933 992 l 1048 992 l 1048 0 "},"ẁ":{"x_min":15.59375,"x_max":1065.078125,"ha":1080,"o":"m 726 0 l 589 435 q 541 617 576 475 l 536 617 q 488 434 509 498 l 348 0 l 218 0 l 15 743 l 133 743 q 243 316 205 463 q 286 119 280 170 l 291 119 q 315 219 298 157 q 344 316 332 280 l 480 743 l 602 743 l 735 316 q 787 120 773 199 l 792 120 q 807 195 795 145 q 948 743 818 246 l 1065 743 l 859 0 l 726 0 m 611 842 l 536 842 q 432 942 492 877 q 344 1049 371 1007 l 344 1064 l 482 1064 q 542 956 504 1017 q 611 858 581 894 l 611 842 "},"ệ":{"x_min":77.96875,"x_max":706.453125,"ha":779,"o":"m 433 -14 q 173 86 268 -14 q 77 365 77 186 q 166 651 77 545 q 404 757 254 757 q 625 665 543 757 q 706 422 706 573 l 706 351 l 194 351 q 260 152 198 220 q 437 84 323 84 q 674 134 557 84 l 674 34 q 561 -2 614 8 q 433 -14 508 -14 m 402 662 q 260 604 313 662 q 197 443 206 546 l 585 443 q 538 606 585 549 q 402 662 490 662 m 333 -164 q 353 -107 333 -125 q 401 -89 373 -89 q 448 -107 428 -89 q 468 -164 468 -125 q 448 -220 468 -201 q 401 -239 428 -239 q 353 -220 373 -239 q 333 -164 333 -201 m 171 857 q 292 992 257 949 q 342 1064 327 1036 l 455 1064 q 507 990 470 1035 q 628 857 544 945 l 628 842 l 548 842 q 398 967 488 879 q 249 842 306 877 l 171 842 l 171 857 "},"ĭ":{"x_min":-35.28125,"x_max":385.21875,"ha":351,"o":"m 231 0 l 119 0 l 119 743 l 231 743 l 231 0 m 171 842 q 23 888 76 842 q -35 1024 -29 935 l 35 1024 q 53 971 39 990 q 91 943 67 952 q 174 934 116 934 q 275 956 242 934 q 314 1024 307 978 l 385 1024 q 321 890 378 938 q 171 842 265 842 "},"8":{"x_min":70.515625,"x_max":722.125,"ha":794,"o":"m 395 1006 q 610 942 531 1006 q 690 768 690 879 q 644 634 690 695 q 499 524 599 574 q 671 403 620 466 q 722 256 722 340 q 636 59 722 133 q 400 -14 549 -14 q 155 55 241 -14 q 70 252 70 125 q 278 517 70 422 q 143 632 184 570 q 103 769 103 693 q 182 941 103 877 q 395 1006 262 1006 m 181 249 q 238 123 181 168 q 397 77 294 77 q 554 125 498 77 q 610 255 610 172 q 558 372 610 321 q 373 471 505 423 q 227 375 272 428 q 181 249 181 323 m 394 914 q 261 873 309 914 q 213 765 213 832 q 253 657 213 702 q 401 568 293 612 q 538 655 498 608 q 579 765 579 702 q 529 874 579 833 q 394 914 480 914 "},"ѯ":{"x_min":16.96875,"x_max":607.21875,"ha":671,"o":"m 515 921 q 580 910 550 921 l 580 834 q 536 841 564 841 q 469 814 504 841 q 404 746 434 788 q 534 680 487 727 q 582 561 582 633 q 438 397 582 436 l 438 392 q 607 206 607 344 q 525 49 607 106 q 290 -10 443 -7 q 190 -19 227 -11 q 137 -41 153 -26 q 120 -85 120 -55 q 146 -133 120 -118 q 232 -147 171 -147 q 373 -144 290 -147 l 491 -140 q 603 -167 576 -140 l 603 -264 q 560 -243 588 -251 q 494 -235 531 -235 l 373 -238 q 222 -242 284 -242 q 70 -201 124 -242 q 16 -85 16 -161 q 81 35 16 -6 q 268 80 145 78 q 494 212 494 82 q 441 308 494 278 q 280 339 388 339 l 180 339 l 180 435 l 261 435 q 472 551 472 435 q 301 661 472 661 q 202 649 251 661 q 94 613 154 638 l 54 705 q 223 753 138 742 q 91 898 161 832 l 91 917 l 175 917 q 320 788 225 881 q 426 892 380 863 q 515 921 471 921 "},"Ӝ":{"x_min":1.359375,"x_max":1169.609375,"ha":1173,"o":"m 405 510 l 15 992 l 144 992 l 530 511 l 530 992 l 641 992 l 641 511 l 1028 992 l 1157 992 l 766 511 l 1169 0 l 1036 0 l 641 502 l 641 0 l 530 0 l 530 502 l 136 0 l 1 0 l 405 510 m 393 1174 q 411 1225 393 1209 q 454 1241 429 1241 q 499 1225 480 1241 q 517 1174 517 1209 q 499 1123 517 1140 q 454 1107 480 1107 q 411 1123 429 1107 q 393 1174 393 1140 m 652 1174 q 670 1225 652 1209 q 713 1241 688 1241 q 757 1225 738 1241 q 775 1174 775 1209 q 757 1123 775 1140 q 713 1107 738 1107 q 670 1123 688 1107 q 652 1174 652 1140 "},"Ữ":{"x_min":126.171875,"x_max":1125.296875,"ha":1067,"o":"m 885 992 l 885 857 q 948 884 924 863 q 982 943 972 905 q 993 1056 993 981 l 1115 1056 l 1125 1041 q 1044 854 1102 917 q 885 775 986 792 l 885 349 q 787 80 885 174 q 511 -14 690 -14 q 227 83 329 -14 q 126 352 126 180 l 126 992 l 241 992 l 241 344 q 310 153 241 220 q 514 87 379 87 q 704 152 638 87 q 769 345 769 218 l 769 992 l 885 992 m 620 1072 q 563 1084 591 1072 q 508 1112 535 1097 q 457 1140 482 1127 q 409 1153 432 1153 q 358 1132 375 1153 q 331 1071 341 1112 l 265 1071 q 312 1199 273 1153 q 413 1246 351 1246 q 473 1233 444 1246 q 529 1205 503 1220 q 580 1177 556 1190 q 626 1164 604 1164 q 676 1184 659 1164 q 702 1247 692 1204 l 769 1247 q 722 1118 760 1164 q 620 1072 684 1072 "},"ѡ":{"x_min":0,"x_max":1061.0625,"ha":1137,"o":"m 547 309 q 533 274 540 292 q 405 0 526 257 l 261 0 l 0 743 l 116 743 l 283 271 q 336 80 305 208 l 341 80 q 379 171 354 116 q 501 425 404 227 l 384 743 l 505 743 q 700 172 684 221 q 722 94 715 124 l 727 94 q 896 366 844 218 q 948 743 948 513 l 1061 743 q 994 326 1061 497 q 780 0 928 155 l 656 0 l 572 234 q 547 309 549 296 "},"R":{"x_min":136.375,"x_max":835.25,"ha":859,"o":"m 251 412 l 251 0 l 136 0 l 136 992 l 408 992 q 678 922 590 992 q 765 711 765 852 q 565 446 765 515 l 835 0 l 698 0 l 458 412 l 251 412 m 251 512 l 409 512 q 588 560 531 512 q 646 705 646 608 q 587 847 646 804 q 401 890 529 890 l 251 890 l 251 512 "},"Ż":{"x_min":55.625,"x_max":737.375,"ha":793,"o":"m 737 0 l 55 0 l 55 90 l 582 888 l 71 888 l 71 992 l 722 992 l 722 901 l 196 104 l 737 104 l 737 0 m 329 1173 q 348 1230 329 1212 q 396 1248 367 1248 q 443 1229 423 1248 q 462 1173 462 1211 q 443 1116 462 1135 q 396 1098 423 1098 q 348 1116 367 1098 q 329 1173 329 1135 "},"Ң":{"x_min":136.28125,"x_max":998.703125,"ha":1036,"o":"m 888 104 l 998 104 l 998 -258 l 888 -258 l 888 0 l 773 0 l 773 466 l 251 466 l 251 0 l 136 0 l 136 992 l 251 992 l 251 570 l 773 570 l 773 992 l 888 992 l 888 104 "},"ħ":{"x_min":13.578125,"x_max":741.03125,"ha":853,"o":"m 628 0 l 628 454 q 587 589 628 544 q 457 634 545 634 q 285 571 339 634 q 232 363 232 508 l 232 0 l 119 0 l 119 842 l 13 842 l 13 929 l 119 929 l 119 1055 l 232 1055 l 232 929 l 536 929 l 536 842 l 232 842 l 232 709 q 226 615 232 652 l 233 615 q 328 699 266 668 q 468 730 389 730 q 672 665 604 730 q 741 458 741 600 l 741 0 l 628 0 "},"õ":{"x_min":78,"x_max":761,"ha":839,"o":"m 761 372 q 669 88 761 190 q 416 -14 577 -14 q 239 32 316 -14 q 120 167 162 79 q 78 372 78 254 q 168 655 78 554 q 421 757 259 757 q 669 653 577 757 q 761 372 761 549 m 194 372 q 251 154 194 229 q 419 80 308 80 q 587 154 529 80 q 644 372 644 228 q 587 587 644 514 q 417 661 529 661 q 250 588 307 661 q 194 372 194 516 m 524 843 q 467 855 495 843 q 412 883 439 868 q 361 911 386 898 q 313 924 336 924 q 262 903 279 924 q 235 842 245 883 l 169 842 q 216 970 177 924 q 317 1017 255 1017 q 377 1004 348 1017 q 433 976 407 991 q 484 948 460 961 q 530 935 508 935 q 580 955 563 935 q 606 1018 596 975 l 673 1018 q 626 889 664 935 q 524 843 588 843 "},"ẫ":{"x_min":63.796875,"x_max":660.34375,"ha":773,"o":"m 576 0 l 554 105 l 549 105 q 438 10 493 35 q 299 -14 382 -14 q 126 43 189 -14 q 63 205 63 100 q 424 441 63 431 l 550 446 l 550 492 q 512 621 550 579 q 392 663 475 663 q 181 606 299 663 l 147 692 q 267 739 202 722 q 399 756 333 756 q 596 696 532 756 q 660 507 660 637 l 660 0 l 576 0 m 322 78 q 487 136 427 78 q 547 298 547 194 l 547 365 l 435 361 q 241 319 300 356 q 181 204 181 282 q 218 110 181 142 q 322 78 255 78 m 476 1078 q 427 1088 451 1078 q 380 1111 403 1098 q 336 1134 357 1124 q 295 1144 314 1144 q 254 1127 268 1144 q 230 1077 240 1111 l 169 1077 q 212 1187 177 1149 q 297 1226 246 1226 q 347 1215 322 1226 q 394 1193 371 1205 q 438 1170 417 1180 q 477 1160 459 1160 q 519 1176 504 1160 q 541 1227 533 1193 l 602 1227 q 561 1117 594 1156 q 476 1078 527 1078 m 591 842 l 527 842 q 384 954 462 886 q 241 842 312 889 l 177 842 l 177 857 l 213 898 q 325 1034 289 981 l 444 1034 q 591 857 489 970 l 591 842 "},"ҭ":{"x_min":27.796875,"x_max":618.859375,"ha":648,"o":"m 266 648 l 27 648 l 27 743 l 618 743 l 618 648 l 378 648 l 378 96 l 480 96 l 480 -256 l 368 -256 l 368 0 l 266 0 l 266 648 "},"ғ":{"x_min":12.21875,"x_max":565.828125,"ha":595,"o":"m 565 648 l 231 648 l 231 415 l 466 415 l 466 328 l 231 328 l 231 0 l 119 0 l 119 328 l 12 328 l 12 415 l 119 415 l 119 743 l 565 743 l 565 648 "},"Ӎ":{"x_min":136.28125,"x_max":1242.796875,"ha":1255,"o":"m 574 0 l 238 879 l 233 879 l 238 793 q 242 631 242 662 l 242 0 l 136 0 l 136 992 l 309 992 l 625 173 l 630 173 l 945 992 l 1118 992 l 1118 104 l 1242 104 l 1145 -258 l 1010 -258 l 1118 0 l 1002 0 l 1002 639 q 1012 878 1002 728 l 1006 878 l 667 0 l 574 0 "},"˙":{"x_min":109.765625,"x_max":242.6875,"ha":351,"o":"m 109 944 q 128 1001 109 983 q 176 1019 147 1019 q 223 1000 203 1019 q 242 944 242 982 q 223 887 242 906 q 176 869 203 869 q 128 887 147 869 q 109 944 109 906 "},"ê":{"x_min":77.96875,"x_max":706.453125,"ha":779,"o":"m 433 -14 q 173 86 268 -14 q 77 365 77 186 q 166 651 77 545 q 404 757 254 757 q 625 665 543 757 q 706 422 706 573 l 706 351 l 194 351 q 260 152 198 220 q 437 84 323 84 q 674 134 557 84 l 674 34 q 561 -2 614 8 q 433 -14 508 -14 m 402 662 q 260 604 313 662 q 197 443 206 546 l 585 443 q 538 606 585 549 q 402 662 490 662 m 175 857 q 296 992 261 949 q 346 1064 331 1036 l 459 1064 q 511 990 474 1035 q 632 857 548 945 l 632 842 l 552 842 q 402 967 492 879 q 253 842 310 877 l 175 842 l 175 857 "},"″":{"x_min":90.234375,"x_max":466.765625,"ha":546,"o":"m 216 992 l 189 634 l 118 634 l 90 992 l 216 992 m 466 992 l 438 634 l 368 634 l 340 992 l 466 992 "},"„":{"x_min":16.953125,"x_max":469.046875,"ha":562,"o":"m 209 162 l 219 147 q 168 -10 201 79 q 99 -178 135 -100 l 16 -178 q 86 162 64 15 l 209 162 m 459 162 l 469 147 q 420 -4 452 85 q 349 -178 387 -95 l 265 -178 q 305 -5 282 -110 q 336 162 327 98 l 459 162 "},"ӷ":{"x_min":119.40625,"x_max":565.828125,"ha":595,"o":"m 119 742 l 565 742 l 565 647 l 231 647 l 231 96 l 333 96 l 333 -256 l 221 -256 l 221 0 l 119 0 l 119 742 "},"ч":{"x_min":105.75,"x_max":724.6875,"ha":844,"o":"m 218 743 l 218 472 q 366 342 218 342 q 484 360 428 342 q 612 425 540 379 l 612 743 l 724 743 l 724 0 l 612 0 l 612 336 q 480 267 540 287 q 343 247 419 247 q 168 306 231 247 q 105 463 105 364 l 105 743 l 218 743 "},"δ":{"x_min":76.671875,"x_max":759.859375,"ha":806,"o":"m 369 634 q 235 741 274 687 q 196 862 196 795 q 261 1002 196 950 q 438 1054 327 1054 q 572 1038 508 1054 q 722 980 637 1023 l 673 889 q 543 946 597 931 q 434 961 489 961 q 344 934 377 961 q 311 862 311 907 q 347 776 311 814 q 497 677 383 739 q 699 517 639 599 q 759 324 759 435 q 667 75 759 165 q 415 -14 575 -14 q 168 70 261 -14 q 76 296 76 154 q 153 505 76 416 q 369 634 230 593 m 643 324 q 601 473 643 411 q 464 585 559 535 q 259 476 324 549 q 194 294 194 402 q 255 138 194 196 q 415 80 315 80 q 584 143 525 80 q 643 324 643 206 "},"Â":{"x_min":0,"x_max":879,"ha":879,"o":"m 759 0 l 636 315 l 238 315 l 116 0 l 0 0 l 392 996 l 489 996 l 879 0 l 759 0 m 600 419 l 484 726 q 438 869 462 784 q 396 726 423 804 l 279 419 l 600 419 m 205 1086 q 326 1221 291 1178 q 376 1293 361 1265 l 489 1293 q 541 1219 504 1264 q 662 1086 578 1174 l 662 1071 l 582 1071 q 432 1196 522 1108 q 283 1071 340 1106 l 205 1071 l 205 1086 "},"Į":{"x_min":58.0625,"x_max":282.96875,"ha":387,"o":"m 136 0 l 136 992 l 251 992 l 251 0 l 136 0 m 153 -160 q 217 -224 153 -224 q 282 -215 245 -224 l 282 -289 q 198 -302 238 -302 q 58 -174 58 -302 q 87 -81 58 -127 q 165 0 116 -35 l 246 0 q 177 -81 200 -44 q 153 -160 153 -118 "},"ҫ":{"x_min":77.96875,"x_max":614.90625,"ha":661,"o":"m 416 -14 q 166 85 254 -14 q 77 366 77 184 q 167 655 77 553 q 423 757 257 757 q 530 745 477 757 q 614 718 584 733 l 580 622 q 498 647 543 637 q 421 657 454 657 q 194 368 194 657 q 249 157 194 230 q 413 84 305 84 q 604 124 506 84 l 604 24 q 416 -14 529 -14 m 413 -161 q 319 0 413 -91 l 402 0 q 509 -170 509 -81 q 475 -267 509 -232 q 373 -302 440 -302 q 295 -291 329 -302 l 295 -217 q 353 -224 316 -224 q 396 -208 378 -224 q 413 -161 413 -192 "},"ω":{"x_min":78.015625,"x_max":995.984375,"ha":1074,"o":"m 339 -14 q 146 86 215 -14 q 78 359 78 186 q 96 552 78 464 q 161 743 115 639 l 278 743 q 212 550 231 637 q 193 357 193 464 q 234 153 193 226 q 347 80 274 80 q 446 128 411 80 q 482 262 482 177 l 482 473 l 591 473 l 591 262 q 627 127 591 175 q 726 80 663 80 q 839 153 799 80 q 880 357 880 226 q 862 548 880 460 q 796 743 843 636 l 913 743 q 976 554 957 643 q 995 359 995 465 q 927 87 995 188 q 734 -14 858 -14 q 539 109 585 -14 l 533 109 q 339 -14 489 -14 "},"Ţ":{"x_min":12.203125,"x_max":755.125,"ha":768,"o":"m 441 0 l 326 0 l 326 889 l 12 889 l 12 992 l 755 992 l 755 889 l 441 889 l 441 0 m 511 -196 q 459 -298 511 -262 q 306 -334 407 -334 q 241 -327 271 -334 l 241 -256 q 311 -261 271 -261 q 392 -247 364 -261 q 419 -197 419 -234 q 393 -150 419 -168 q 292 -120 366 -132 l 352 0 l 426 0 l 389 -78 q 511 -196 511 -104 "},"´":{"x_min":266.65625,"x_max":533.3125,"ha":802,"o":"m 266 858 q 336 960 299 900 q 396 1064 374 1020 l 533 1064 l 533 1049 q 444 941 503 1005 q 341 842 385 877 l 266 842 l 266 858 "},"ỏ":{"x_min":78,"x_max":761,"ha":839,"o":"m 761 372 q 669 88 761 190 q 416 -14 577 -14 q 239 32 316 -14 q 120 167 162 79 q 78 372 78 254 q 168 655 78 554 q 421 757 259 757 q 669 653 577 757 q 761 372 761 549 m 194 372 q 251 154 194 229 q 419 80 308 80 q 587 154 529 80 q 644 372 644 228 q 587 587 644 514 q 417 661 529 661 q 250 588 307 661 q 194 372 194 516 m 572 1013 q 460 895 572 918 l 453 819 l 382 819 l 374 938 q 458 964 432 947 q 485 1010 485 981 q 462 1053 485 1039 q 390 1067 439 1067 q 326 1063 348 1067 l 326 1131 q 399 1138 352 1138 q 572 1013 572 1138 "},"Ĉ":{"x_min":84.75,"x_max":834.640625,"ha":876,"o":"m 560 902 q 302 793 397 902 q 208 495 208 685 q 299 194 208 300 q 559 88 390 88 q 796 125 663 88 l 796 24 q 541 -14 692 -14 q 203 119 322 -14 q 84 497 84 252 q 142 765 84 650 q 307 943 199 881 q 562 1006 415 1006 q 834 949 718 1006 l 785 850 q 560 902 673 902 m 298 1086 q 419 1221 384 1178 q 469 1293 454 1265 l 582 1293 q 634 1219 597 1264 q 755 1086 671 1174 l 755 1071 l 675 1071 q 525 1196 615 1108 q 376 1071 433 1106 l 298 1071 l 298 1086 "},"И":{"x_min":137.71875,"x_max":924,"ha":1059,"o":"m 137 992 l 245 992 l 245 440 q 236 164 245 287 l 241 164 l 797 992 l 924 992 l 924 0 l 815 0 l 815 546 q 827 832 815 682 l 820 832 l 263 0 l 137 0 l 137 992 "},"Љ":{"x_min":0,"x_max":1239.4375,"ha":1291,"o":"m 1239 288 q 1146 74 1239 149 q 876 0 1052 0 l 654 0 l 654 889 l 407 889 q 339 413 368 590 q 284 151 311 236 q 209 25 257 66 q 90 -16 162 -16 q 0 0 43 -16 l 0 97 q 76 80 33 80 q 131 101 109 80 q 167 157 153 122 q 201 277 182 192 q 242 513 219 362 q 310 992 265 664 l 769 992 l 769 568 l 852 568 q 1239 288 1239 568 m 769 99 l 860 99 q 1056 146 994 99 q 1118 288 1118 193 q 1053 424 1118 382 q 839 466 988 466 l 769 466 l 769 99 "},"Ờ":{"x_min":84.765625,"x_max":1109.46875,"ha":1083,"o":"m 995 496 q 875 121 995 256 q 541 -14 754 -14 q 203 119 322 -14 q 84 498 84 252 q 204 874 84 742 q 543 1007 324 1007 q 884 861 763 1007 q 938 891 918 869 q 967 949 958 914 q 976 1055 976 983 l 1099 1055 l 1109 1040 q 1045 876 1089 935 q 930 791 1000 817 q 995 496 995 671 m 206 496 q 291 190 206 294 q 541 87 376 87 q 790 190 706 87 q 873 496 873 293 q 790 800 873 696 q 543 903 707 903 q 292 801 378 903 q 206 496 206 698 m 625 1071 l 550 1071 q 446 1171 506 1106 q 358 1278 385 1236 l 358 1293 l 496 1293 q 556 1185 518 1246 q 625 1087 595 1123 l 625 1071 "},"р":{"x_min":119.34375,"x_max":773.703125,"ha":851,"o":"m 465 -14 q 332 12 392 -14 q 231 95 272 39 l 223 95 q 231 -28 231 30 l 231 -334 l 119 -334 l 119 743 l 210 743 l 226 641 l 231 641 q 332 729 275 702 q 465 757 390 757 q 693 655 613 757 q 773 372 773 554 q 691 87 773 188 q 465 -14 610 -14 m 448 661 q 284 598 334 661 q 231 397 233 535 l 231 372 q 284 147 231 215 q 451 80 336 80 q 602 158 547 80 q 657 373 657 236 q 602 587 657 512 q 448 661 547 661 "},"Ω":{"x_min":54.28125,"x_max":1034.078125,"ha":1087,"o":"m 543 903 q 297 816 381 903 q 212 558 212 729 q 271 292 212 405 q 451 90 329 179 l 451 0 l 54 0 l 54 103 l 301 103 q 144 301 198 183 q 90 558 90 420 q 210 887 90 768 q 543 1007 330 1007 q 877 889 757 1007 q 997 559 997 771 q 943 301 997 419 q 787 103 890 184 l 1034 103 l 1034 0 l 636 0 l 636 90 q 818 294 760 181 q 875 558 875 407 q 790 816 875 728 q 543 903 706 903 "},"т":{"x_min":27.796875,"x_max":620.203125,"ha":648,"o":"m 620 646 l 378 646 l 378 0 l 266 0 l 266 646 l 27 646 l 27 743 l 620 743 l 620 646 "},"П":{"x_min":136.375,"x_max":876.625,"ha":1013,"o":"m 876 0 l 761 0 l 761 889 l 251 889 l 251 0 l 136 0 l 136 992 l 876 992 l 876 0 "},"Ö":{"x_min":84.796875,"x_max":997.203125,"ha":1082,"o":"m 997 496 q 876 122 997 258 q 542 -14 756 -14 q 203 119 322 -14 q 84 498 84 253 q 204 873 84 740 q 543 1007 323 1007 q 877 871 757 1007 q 997 496 997 735 m 206 496 q 292 191 206 295 q 542 87 378 87 q 791 190 706 87 q 875 496 875 294 q 791 800 875 696 q 543 903 707 903 q 292 799 378 903 q 206 496 206 695 m 353 1174 q 371 1225 353 1209 q 414 1241 389 1241 q 459 1225 440 1241 q 477 1174 477 1209 q 459 1123 477 1140 q 414 1107 440 1107 q 371 1123 389 1107 q 353 1174 353 1140 m 612 1174 q 630 1225 612 1209 q 673 1241 648 1241 q 717 1225 698 1241 q 735 1174 735 1209 q 717 1123 735 1140 q 673 1107 698 1107 q 630 1123 648 1107 q 612 1174 612 1140 "},"z":{"x_min":55.640625,"x_max":595.046875,"ha":650,"o":"m 595 0 l 55 0 l 55 76 l 461 655 l 80 655 l 80 743 l 584 743 l 584 655 l 184 87 l 595 87 l 595 0 "},"™":{"x_min":25.09375,"x_max":958.59375,"ha":1078,"o":"m 250 503 l 166 503 l 166 920 l 25 920 l 25 992 l 393 992 l 393 920 l 250 920 l 250 503 m 657 503 l 521 882 l 515 882 l 519 794 l 519 503 l 438 503 l 438 992 l 565 992 l 698 612 l 836 992 l 958 992 l 958 503 l 872 503 l 872 787 l 876 880 l 871 880 l 727 503 l 657 503 "},"ặ":{"x_min":63.796875,"x_max":660.34375,"ha":773,"o":"m 576 0 l 554 105 l 549 105 q 438 10 493 35 q 299 -14 382 -14 q 126 43 189 -14 q 63 205 63 100 q 424 441 63 431 l 550 446 l 550 492 q 512 621 550 579 q 392 663 475 663 q 181 606 299 663 l 147 692 q 267 739 202 722 q 399 756 333 756 q 596 696 532 756 q 660 507 660 637 l 660 0 l 576 0 m 322 78 q 487 136 427 78 q 547 298 547 194 l 547 365 l 435 361 q 241 319 300 356 q 181 204 181 282 q 218 110 181 142 q 322 78 255 78 m 378 842 q 230 888 283 842 q 171 1024 177 935 l 242 1024 q 260 971 246 990 q 298 943 274 952 q 381 934 323 934 q 482 956 449 934 q 521 1024 514 978 l 592 1024 q 528 890 585 938 q 378 842 472 842 m 296 -164 q 316 -107 296 -125 q 364 -89 336 -89 q 411 -107 391 -89 q 431 -164 431 -125 q 411 -220 431 -201 q 364 -239 391 -239 q 316 -220 336 -239 q 296 -164 296 -201 "},"Θ":{"x_min":84.796875,"x_max":997.203125,"ha":1082,"o":"m 327 555 l 754 555 l 754 453 l 327 453 l 327 555 m 997 496 q 876 122 997 258 q 542 -14 756 -14 q 203 119 322 -14 q 84 498 84 253 q 204 873 84 740 q 543 1007 323 1007 q 877 871 757 1007 q 997 496 997 735 m 206 496 q 291 191 206 296 q 542 87 376 87 q 791 190 706 87 q 875 496 875 293 q 791 801 875 699 q 543 903 707 903 q 292 800 377 903 q 206 496 206 696 "},"Ř":{"x_min":136.375,"x_max":835.25,"ha":859,"o":"m 251 412 l 251 0 l 136 0 l 136 992 l 408 992 q 678 922 590 992 q 765 711 765 852 q 565 446 765 515 l 835 0 l 698 0 l 458 412 l 251 412 m 251 512 l 409 512 q 588 560 531 512 q 646 705 646 608 q 587 847 646 804 q 401 890 529 890 l 251 890 l 251 512 m 199 1293 l 277 1293 q 426 1165 355 1243 q 576 1293 514 1253 l 656 1293 l 656 1276 l 612 1230 q 483 1071 514 1129 l 370 1071 q 320 1141 355 1098 q 199 1276 285 1184 l 199 1293 "},"Ň":{"x_min":136.296875,"x_max":910.703125,"ha":1047,"o":"m 910 0 l 779 0 l 237 832 l 231 832 q 242 563 242 685 l 242 0 l 136 0 l 136 992 l 266 992 l 806 162 l 812 162 q 806 280 811 181 q 802 422 801 379 l 802 992 l 910 992 l 910 0 m 294 1293 l 372 1293 q 521 1165 450 1243 q 671 1293 609 1253 l 751 1293 l 751 1276 l 707 1230 q 578 1071 609 1129 l 465 1071 q 415 1141 450 1098 q 294 1276 380 1184 l 294 1293 "},"ừ":{"x_min":111.265625,"x_max":970.0625,"ha":924,"o":"m 225 742 l 225 260 q 266 125 225 169 q 396 80 307 80 q 566 144 512 80 q 620 352 620 207 l 620 742 l 733 742 l 733 659 q 814 710 788 667 q 839 859 839 754 l 959 859 l 970 843 q 888 652 948 717 q 733 577 828 587 l 733 0 l 640 0 l 624 99 l 618 99 q 521 14 582 43 q 384 -14 459 -14 q 179 50 246 -14 q 111 256 111 114 l 111 742 l 225 742 m 486 842 l 411 842 q 307 942 367 877 q 219 1049 246 1007 l 219 1064 l 357 1064 q 417 956 379 1017 q 486 858 456 894 l 486 842 "},"Ợ":{"x_min":84.765625,"x_max":1109.46875,"ha":1083,"o":"m 995 496 q 875 121 995 256 q 541 -14 754 -14 q 203 119 322 -14 q 84 498 84 252 q 204 874 84 742 q 543 1007 324 1007 q 884 861 763 1007 q 938 891 918 869 q 967 949 958 914 q 976 1055 976 983 l 1099 1055 l 1109 1040 q 1045 876 1089 935 q 930 791 1000 817 q 995 496 995 671 m 206 496 q 291 190 206 294 q 541 87 376 87 q 790 190 706 87 q 873 496 873 293 q 790 800 873 696 q 543 903 707 903 q 292 801 378 903 q 206 496 206 698 m 471 -164 q 491 -107 471 -125 q 539 -89 511 -89 q 586 -107 566 -89 q 606 -164 606 -125 q 586 -220 606 -201 q 539 -239 566 -239 q 491 -220 511 -239 q 471 -164 471 -201 "},"É":{"x_min":136.40625,"x_max":689.53125,"ha":773,"o":"m 689 0 l 136 0 l 136 992 l 689 992 l 689 889 l 251 889 l 251 570 l 663 570 l 663 468 l 251 468 l 251 103 l 689 103 l 689 0 m 309 1087 q 379 1189 342 1129 q 439 1293 417 1249 l 576 1293 l 576 1278 q 487 1170 546 1234 q 384 1071 428 1106 l 309 1071 l 309 1087 "},"ұ":{"x_min":0,"x_max":696,"ha":696,"o":"m 404 -87 l 404 -334 l 291 -334 l 291 -87 l 103 -87 l 103 0 l 290 0 l 0 743 l 116 743 l 276 327 q 345 111 333 176 l 351 111 q 421 327 373 204 l 579 743 l 696 743 l 405 0 l 591 0 l 591 -87 l 404 -87 "},"ѿ":{"x_min":0,"x_max":1061.0625,"ha":1137,"o":"m 817 979 l 817 960 l 762 844 l 741 844 l 707 913 l 580 913 l 547 844 l 526 844 l 492 913 l 365 913 l 331 844 l 311 844 l 256 960 l 256 979 l 817 979 m 547 309 l 520 245 l 405 0 l 261 0 l 0 743 l 116 743 l 283 271 q 337 80 309 196 l 343 80 q 363 131 351 104 q 501 425 374 159 l 384 743 l 505 743 q 700 172 684 221 q 722 94 715 124 l 727 94 q 896 366 844 218 q 948 743 948 513 l 1061 743 q 994 326 1061 497 q 780 0 928 155 l 656 0 l 572 234 q 547 309 549 296 "},"и":{"x_min":119.328125,"x_max":760.671875,"ha":880,"o":"m 225 743 l 225 271 l 220 148 l 218 109 l 620 743 l 760 743 l 760 0 l 655 0 l 655 454 l 657 543 l 660 631 l 259 0 l 119 0 l 119 743 l 225 743 "},"³":{"x_min":22.375,"x_max":442.6875,"ha":482,"o":"m 425 850 q 397 761 425 796 q 323 711 369 726 q 442 569 442 679 q 380 434 442 482 q 204 386 317 386 q 22 423 101 386 l 22 507 q 205 461 122 461 q 348 571 348 461 q 191 669 348 669 l 112 669 l 112 742 l 193 742 q 296 768 263 742 q 330 841 330 795 q 303 905 330 882 q 230 928 275 928 q 147 914 185 928 q 71 875 109 899 l 25 936 q 115 985 67 967 q 226 1004 162 1004 q 371 963 318 1004 q 425 850 425 923 "},"Ӿ":{"x_min":4.078125,"x_max":796.578125,"ha":802,"o":"m 86 578 l 294 578 l 27 992 l 155 992 l 401 597 l 648 992 l 772 992 l 501 578 l 715 578 l 715 474 l 494 474 l 796 0 l 665 0 l 398 436 l 127 0 l 4 0 l 307 474 l 86 474 l 86 578 "},"Ӫ":{"x_min":84.765625,"x_max":996.875,"ha":1083,"o":"m 996 496 q 876 122 996 258 q 541 -14 756 -14 q 203 119 322 -14 q 84 498 84 253 q 204 873 84 740 q 543 1007 323 1007 q 876 871 756 1007 q 996 496 996 735 m 541 87 q 780 179 697 87 q 873 453 864 272 l 208 453 q 301 179 217 272 q 541 87 385 87 m 543 903 q 306 816 391 903 q 208 555 221 728 l 872 555 q 777 815 860 727 q 543 903 695 903 m 351 1174 q 369 1225 351 1209 q 412 1241 387 1241 q 457 1225 438 1241 q 475 1174 475 1209 q 457 1123 475 1140 q 412 1107 438 1107 q 369 1123 387 1107 q 351 1174 351 1140 m 610 1174 q 628 1225 610 1209 q 671 1241 646 1241 q 715 1225 696 1241 q 733 1174 733 1209 q 715 1123 733 1140 q 671 1107 696 1107 q 628 1123 646 1107 q 610 1174 610 1140 "},"Ѧ":{"x_min":0,"x_max":942,"ha":942,"o":"m 623 462 l 523 462 l 523 0 l 417 0 l 417 462 l 316 462 l 120 0 l 0 0 l 417 992 l 524 992 l 942 0 l 817 0 l 623 462 m 359 564 l 584 564 l 528 704 q 470 869 491 802 q 410 692 454 803 l 359 564 "},"[":{"x_min":112.5625,"x_max":422.421875,"ha":457,"o":"m 422 -220 l 112 -220 l 112 992 l 422 992 l 422 896 l 226 896 l 226 -123 l 422 -123 l 422 -220 "},"Ҝ":{"x_min":136.40625,"x_max":853,"ha":853,"o":"m 336 461 l 251 388 l 251 0 l 136 0 l 136 992 l 251 992 l 251 496 l 336 590 l 336 827 l 421 827 l 421 683 l 700 992 l 838 992 l 439 561 l 853 0 l 717 0 l 421 409 l 421 202 l 336 202 l 336 461 "},"ζ":{"x_min":78.015625,"x_max":629.609375,"ha":671,"o":"m 119 959 l 119 1055 l 629 1055 l 629 967 q 386 735 483 845 q 241 528 288 626 q 194 317 194 430 q 214 211 194 251 q 277 146 234 171 q 436 96 319 121 q 583 38 537 75 q 629 -59 629 1 q 543 -272 629 -160 l 430 -272 q 515 -90 515 -162 q 478 -31 515 -52 q 343 6 440 -10 q 141 105 205 31 q 78 311 78 179 q 98 458 78 388 q 156 595 118 529 q 262 739 194 661 q 494 964 330 816 q 283 959 467 959 l 119 959 "},"∏":{"x_min":136.296875,"x_max":890.375,"ha":1026,"o":"m 775 -336 l 775 888 l 251 888 l 251 -336 l 136 -336 l 136 992 l 890 992 l 890 -336 l 775 -336 "},"Έ":{"x_min":-29.3125,"x_max":774.53125,"ha":859,"o":"m 774 0 l 221 0 l 221 992 l 774 992 l 774 889 l 336 889 l 336 570 l 748 570 l 748 468 l 336 468 l 336 103 l 774 103 l 774 0 m -29 790 q 6 916 -11 839 q 33 1049 24 993 l 157 1049 l 157 1033 q 108 902 145 983 q 38 771 71 822 l -29 771 l -29 790 "},"Ρ":{"x_min":136.28125,"x_max":764.8125,"ha":836,"o":"m 764 702 q 662 471 764 552 q 368 389 559 389 l 251 389 l 251 0 l 136 0 l 136 992 l 393 992 q 764 702 764 992 m 251 489 l 355 489 q 576 538 508 489 q 645 697 645 588 q 581 844 645 795 q 380 892 516 892 l 251 892 l 251 489 "},"ğ":{"x_min":26.453125,"x_max":727.765625,"ha":761,"o":"m 727 743 l 727 671 l 590 655 q 624 593 609 631 q 638 507 638 555 q 564 333 638 398 q 359 268 489 268 q 297 273 326 268 q 225 177 225 235 q 250 132 225 147 q 336 118 275 118 l 467 118 q 653 67 588 118 q 718 -80 718 16 q 619 -269 718 -204 q 330 -334 520 -334 q 105 -279 184 -334 q 26 -126 26 -225 q 69 -8 26 -58 q 191 58 113 40 q 144 98 163 71 q 124 161 124 125 q 146 232 124 202 q 215 291 168 263 q 121 372 157 315 q 84 502 84 429 q 158 690 84 624 q 365 757 231 757 q 470 743 423 757 l 727 743 m 134 -124 q 185 -216 134 -185 q 331 -247 236 -247 q 541 -205 473 -247 q 609 -90 609 -162 q 572 -6 609 -29 q 432 16 535 16 l 297 16 q 177 -19 220 16 q 134 -124 134 -56 m 196 505 q 240 387 196 427 q 362 347 284 347 q 527 507 527 347 q 360 674 527 674 q 238 632 281 674 q 196 505 196 589 m 371 842 q 223 888 276 842 q 164 1024 170 935 l 235 1024 q 253 971 239 990 q 291 943 267 952 q 374 934 316 934 q 475 956 442 934 q 514 1024 507 978 l 585 1024 q 521 890 578 938 q 371 842 465 842 "},"Ở":{"x_min":84.765625,"x_max":1109.46875,"ha":1083,"o":"m 995 496 q 875 121 995 256 q 541 -14 754 -14 q 203 119 322 -14 q 84 498 84 252 q 204 874 84 742 q 543 1007 324 1007 q 884 861 763 1007 q 938 891 918 869 q 967 949 958 914 q 976 1055 976 983 l 1099 1055 l 1109 1040 q 1045 876 1089 935 q 930 791 1000 817 q 995 496 995 671 m 206 496 q 291 190 206 294 q 541 87 376 87 q 790 190 706 87 q 873 496 873 293 q 790 800 873 696 q 543 903 707 903 q 292 801 378 903 q 206 496 206 698 m 695 1242 q 583 1124 695 1147 l 576 1048 l 505 1048 l 497 1167 q 581 1193 555 1176 q 608 1239 608 1210 q 585 1282 608 1268 q 513 1296 562 1296 q 449 1292 471 1296 l 449 1360 q 522 1367 475 1367 q 695 1242 695 1367 "},"Ӏ":{"x_min":136.234375,"x_max":251.53125,"ha":387,"o":"m 136 0 l 136 992 l 251 992 l 251 0 l 136 0 "},"ª":{"x_min":47.5,"x_max":424.140625,"ha":492,"o":"m 361 543 l 344 599 q 187 534 282 534 q 85 567 122 534 q 47 670 47 601 q 99 775 47 739 q 264 815 152 811 l 343 818 l 343 844 q 242 934 343 934 q 104 899 175 934 l 75 965 q 242 1003 152 1003 q 377 967 331 1003 q 424 849 424 931 l 424 543 l 361 543 m 130 670 q 206 602 130 602 q 343 724 343 602 l 343 758 l 276 755 q 165 733 200 752 q 130 670 130 714 "},"ї":{"x_min":-13.34375,"x_max":368.65625,"ha":351,"o":"m 231 0 l 119 0 l 119 743 l 231 743 l 231 0 m -13 945 q 4 996 -13 980 q 47 1012 22 1012 q 92 996 73 1012 q 110 945 110 980 q 92 894 110 911 q 47 878 73 878 q 4 894 22 878 q -13 945 -13 911 m 245 945 q 263 996 245 980 q 306 1012 281 1012 q 350 996 331 1012 q 368 945 368 980 q 350 894 368 911 q 306 878 331 878 q 263 894 281 878 q 245 945 245 911 "},"ﬀ":{"x_min":19.6875,"x_max":1001.484375,"ha":942,"o":"m 925 655 l 736 655 l 736 0 l 623 0 l 623 655 l 490 655 l 490 706 l 623 747 l 623 788 q 863 1063 623 1063 q 1001 1039 922 1063 l 972 949 q 861 970 907 970 q 766 927 797 970 q 736 791 736 885 l 736 742 l 925 742 l 925 655 m 454 655 l 265 655 l 265 0 l 152 0 l 152 655 l 19 655 l 19 706 l 152 747 l 152 788 q 392 1063 152 1063 q 530 1039 451 1063 l 501 949 q 390 970 436 970 q 295 927 326 970 q 265 791 265 885 l 265 742 l 454 742 l 454 655 "},"T":{"x_min":12.203125,"x_max":755.125,"ha":768,"o":"m 441 0 l 326 0 l 326 889 l 12 889 l 12 992 l 755 992 l 755 889 l 441 889 l 441 0 "},"š":{"x_min":71.9375,"x_max":599.203125,"ha":663,"o":"m 599 202 q 521 42 599 98 q 304 -14 444 -14 q 73 33 156 -14 l 73 138 q 189 94 127 110 q 307 78 250 78 q 443 107 395 78 q 490 193 490 135 q 453 267 490 236 q 306 340 415 298 q 158 407 202 378 q 93 473 114 436 q 71 560 71 509 q 145 704 71 651 q 348 757 219 757 q 583 708 468 757 l 543 616 q 340 662 431 662 q 219 637 260 662 q 179 568 179 612 q 194 517 179 538 q 243 477 209 496 q 373 422 277 458 q 552 325 506 374 q 599 202 599 276 m 111 1064 l 189 1064 q 338 936 267 1014 q 488 1064 426 1024 l 568 1064 l 568 1047 l 524 1001 q 395 842 426 900 l 282 842 q 232 912 267 869 q 111 1047 197 955 l 111 1064 "},"є":{"x_min":78.03125,"x_max":636.5,"ha":684,"o":"m 429 -14 q 169 84 261 -14 q 78 368 78 183 q 171 655 78 554 q 434 757 264 757 q 544 746 490 757 q 636 718 597 735 l 603 622 q 432 657 506 657 q 263 601 320 657 q 194 432 205 546 l 570 432 l 570 336 l 193 336 q 257 145 199 207 q 428 84 314 84 q 625 124 523 84 l 625 24 q 429 -14 546 -14 "},"Þ":{"x_min":136.25,"x_max":776.140625,"ha":848,"o":"m 776 532 q 673 297 776 378 q 376 216 570 216 l 251 216 l 251 0 l 136 0 l 136 992 l 251 992 l 251 818 l 397 818 q 681 747 587 818 q 776 532 776 677 m 251 316 l 365 316 q 586 364 518 316 q 655 523 655 412 q 591 671 655 624 q 389 718 526 718 l 251 718 l 251 316 "},"j":{"x_min":-75.390625,"x_max":242.6875,"ha":351,"o":"m 29 -334 q -75 -317 -35 -334 l -75 -225 q 16 -239 -28 -239 q 94 -210 69 -239 q 119 -122 119 -181 l 119 743 l 231 743 l 231 -114 q 29 -334 231 -334 m 109 944 q 128 1000 109 982 q 176 1018 147 1018 q 223 1000 203 1018 q 242 944 242 982 q 223 887 242 906 q 176 869 203 869 q 128 887 147 869 q 109 944 109 906 "},"Ѱ":{"x_min":73.953125,"x_max":1032.71875,"ha":1106,"o":"m 609 0 l 494 0 l 494 302 l 464 302 q 258 344 344 302 q 122 469 171 385 q 73 664 73 553 l 73 992 l 191 992 l 191 666 q 262 471 191 539 q 476 403 332 403 l 494 403 l 494 992 l 609 992 l 609 403 l 629 403 q 843 470 772 403 q 913 664 913 537 l 913 992 l 1032 992 l 1032 665 q 983 469 1032 553 q 847 344 935 386 q 640 302 759 302 l 609 302 l 609 0 "},"Σ":{"x_min":50.15625,"x_max":756.5,"ha":787,"o":"m 50 0 l 50 95 l 376 518 l 58 894 l 58 992 l 716 992 l 716 888 l 258 888 l 193 889 l 505 519 l 179 103 l 756 103 l 756 0 l 50 0 "},"1":{"x_min":127.46875,"x_max":484.828125,"ha":794,"o":"m 484 0 l 374 0 l 374 707 q 380 874 374 795 q 348 844 366 859 q 187 712 330 828 l 127 789 l 389 992 l 484 992 l 484 0 "},"ϒ":{"x_min":0,"x_max":778.21875,"ha":785,"o":"m 386 486 q 516 788 468 683 q 590 930 564 894 q 647 983 616 967 q 718 1000 679 1000 q 778 989 751 1000 l 778 898 q 739 902 760 902 q 692 883 712 902 q 643 809 672 864 q 571 669 614 755 q 495 504 529 584 q 440 366 461 424 l 440 0 l 323 0 l 323 379 l 0 992 l 126 992 l 386 486 "},"ҍ":{"x_min":13.5625,"x_max":746.046875,"ha":822,"o":"m 231 889 l 432 889 l 432 801 l 231 801 l 231 436 l 448 436 q 673 383 600 436 q 746 226 746 331 q 670 57 746 115 q 444 0 594 0 l 119 0 l 119 801 l 13 801 l 13 889 l 119 889 l 119 1055 l 231 1055 l 231 889 m 231 339 l 231 94 l 438 94 q 633 219 633 94 q 588 310 633 282 q 436 339 543 339 l 231 339 "},"ℓ":{"x_min":80.671875,"x_max":626.40625,"ha":722,"o":"m 431 74 q 562 219 549 74 l 626 219 q 569 46 620 106 q 421 -14 517 -14 q 265 47 319 -14 q 210 223 210 108 l 210 388 q 80 350 145 364 l 80 426 q 210 466 133 440 l 210 804 q 261 952 210 898 q 404 1006 312 1006 q 529 951 483 1006 q 574 803 574 896 q 505 574 574 677 q 316 421 435 471 l 316 229 q 344 116 316 158 q 431 74 372 74 m 490 799 q 404 930 490 930 q 337 901 358 930 q 316 799 316 872 l 316 502 q 490 799 490 595 "},"ӡ":{"x_min":18.3125,"x_max":633.546875,"ha":679,"o":"m 290 314 q 469 270 391 309 q 590 163 547 231 q 633 2 633 94 q 533 -241 633 -148 q 270 -334 432 -334 q 18 -286 111 -334 l 18 -182 q 278 -240 142 -240 q 454 -175 387 -240 q 520 -2 520 -111 q 448 166 520 108 q 238 223 375 223 l 156 223 l 156 301 l 464 646 l 35 646 l 35 743 l 594 743 l 594 659 l 290 314 "},"Ү":{"x_min":0,"x_max":778,"ha":778,"o":"m 388 496 l 653 992 l 778 992 l 446 384 l 446 0 l 330 0 l 330 379 l 0 992 l 126 992 l 388 496 "},"ĉ":{"x_min":77.96875,"x_max":614.90625,"ha":661,"o":"m 416 -14 q 166 85 254 -14 q 77 366 77 184 q 167 655 77 553 q 423 757 257 757 q 530 745 477 757 q 614 718 584 733 l 580 622 q 498 647 543 637 q 421 657 454 657 q 194 368 194 657 q 249 157 194 230 q 413 84 305 84 q 604 124 506 84 l 604 24 q 416 -14 529 -14 m 151 857 q 272 992 237 949 q 322 1064 307 1036 l 435 1064 q 487 990 450 1035 q 608 857 524 945 l 608 842 l 528 842 q 378 967 468 879 q 229 842 286 877 l 151 842 l 151 857 "},"ī":{"x_min":-25.90625,"x_max":380.90625,"ha":351,"o":"m 231 0 l 119 0 l 119 743 l 231 743 l 231 0 m -25 934 l 380 934 l 380 842 l -25 842 l -25 934 "},"ӹ":{"x_min":119.421875,"x_max":950.578125,"ha":1070,"o":"m 232 436 l 434 436 q 644 383 576 436 q 713 226 713 330 q 640 57 713 114 q 428 0 568 0 l 119 0 l 119 743 l 232 743 l 232 436 m 950 0 l 838 0 l 838 743 l 950 743 l 950 0 m 232 339 l 232 94 l 422 94 q 601 219 601 94 q 560 310 601 282 q 419 339 519 339 l 232 339 m 343 945 q 361 996 343 980 q 404 1012 379 1012 q 449 996 430 1012 q 467 945 467 980 q 449 894 467 911 q 404 878 430 878 q 361 894 379 878 q 343 945 343 911 m 602 945 q 620 996 602 980 q 663 1012 638 1012 q 707 996 688 1012 q 725 945 725 980 q 707 894 725 911 q 663 878 688 878 q 620 894 638 878 q 602 945 602 911 "},"О":{"x_min":84.796875,"x_max":997.203125,"ha":1082,"o":"m 997 496 q 876 122 997 258 q 542 -14 756 -14 q 203 119 322 -14 q 84 498 84 253 q 204 873 84 740 q 543 1007 323 1007 q 877 871 757 1007 q 997 496 997 735 m 206 496 q 292 191 206 295 q 542 87 378 87 q 791 190 706 87 q 875 496 875 294 q 791 800 875 696 q 543 903 707 903 q 292 799 378 903 q 206 496 206 695 "},"ξ":{"x_min":76.65625,"x_max":629.46875,"ha":660,"o":"m 579 511 l 458 511 q 266 451 339 511 q 194 294 194 390 q 211 206 194 240 q 260 153 228 173 q 338 120 293 132 q 441 95 384 107 q 583 38 537 76 q 629 -59 629 1 q 611 -154 629 -103 q 547 -272 592 -204 l 441 -272 q 499 -173 477 -223 q 522 -88 522 -124 q 483 -30 522 -51 q 347 6 444 -10 q 144 97 211 29 q 76 284 76 165 q 130 451 76 379 q 270 548 183 522 l 270 556 q 123 747 123 600 q 170 880 123 826 q 330 967 217 933 q 165 959 243 959 l 119 959 l 119 1055 l 592 1055 l 592 966 l 558 966 q 394 939 470 966 q 275 863 318 911 q 231 750 231 814 q 288 635 231 672 q 463 599 345 599 l 579 599 l 579 511 "},"Ď":{"x_min":136.375,"x_max":928.1875,"ha":1013,"o":"m 928 505 q 794 129 928 259 q 411 0 661 0 l 136 0 l 136 992 l 440 992 q 799 863 671 992 q 928 505 928 735 m 806 501 q 708 793 806 695 q 419 892 611 892 l 251 892 l 251 99 l 392 99 q 702 201 598 99 q 806 501 806 302 m 241 1293 l 319 1293 q 468 1165 397 1243 q 618 1293 556 1253 l 698 1293 l 698 1276 l 654 1230 q 525 1071 556 1129 l 412 1071 q 362 1141 397 1098 q 241 1276 327 1184 l 241 1293 "},"&":{"x_min":76.640625,"x_max":1011.28125,"ha":1014,"o":"m 280 794 q 305 705 280 747 q 388 603 329 662 q 510 696 476 653 q 544 796 544 739 q 509 881 544 848 q 416 914 474 914 q 318 881 356 914 q 280 794 280 849 m 385 87 q 657 192 549 87 l 360 479 q 254 403 285 433 q 208 338 223 373 q 193 259 193 303 q 245 133 193 180 q 385 87 298 87 m 76 256 q 123 413 76 345 q 293 550 170 481 q 214 647 235 614 q 181 716 193 681 q 169 791 169 752 q 236 950 169 893 q 421 1007 302 1007 q 594 950 531 1007 q 657 792 657 893 q 611 659 657 720 q 458 534 564 597 l 734 269 q 795 368 772 311 q 833 492 817 424 l 947 492 q 808 197 901 297 l 1011 0 l 855 0 l 730 120 q 567 17 650 48 q 383 -14 484 -14 q 157 57 237 -14 q 76 256 76 129 "},"G":{"x_min":84.765625,"x_max":909.296875,"ha":1011,"o":"m 572 519 l 909 519 l 909 36 q 749 -1 830 11 q 560 -14 667 -14 q 210 120 335 -14 q 84 495 84 254 q 146 766 84 650 q 325 944 208 883 q 598 1006 442 1006 q 894 947 757 1006 l 849 845 q 591 902 715 902 q 308 794 410 902 q 206 495 206 687 q 304 190 206 294 q 592 87 402 87 q 794 110 695 87 l 794 415 l 572 415 l 572 519 "},"ΰ":{"x_min":111.265625,"x_max":771.375,"ha":846,"o":"m 425 -14 q 189 70 268 -14 q 111 336 111 155 l 111 743 l 223 743 l 223 341 q 277 145 223 211 q 434 78 331 78 q 602 159 548 78 q 657 410 657 240 q 647 574 657 498 q 615 743 638 650 l 727 743 q 761 572 752 645 q 771 405 771 500 q 683 87 771 189 q 425 -14 596 -14 m 387 958 q 452 1164 431 1073 l 580 1164 l 580 1150 q 517 1044 558 1104 q 441 942 476 983 l 387 942 l 387 958 m 232 945 q 249 996 232 980 q 293 1012 267 1012 q 337 994 320 1012 q 354 945 354 976 q 335 894 354 911 q 293 878 316 878 q 249 894 267 878 q 232 945 232 911 m 527 945 q 545 996 527 980 q 588 1012 563 1012 q 633 994 616 1012 q 649 945 649 976 q 631 894 649 911 q 588 878 612 878 q 545 894 563 878 q 527 945 527 911 "},"`":{"x_min":266.65625,"x_max":533.3125,"ha":802,"o":"m 533 842 l 458 842 q 354 942 414 877 q 266 1049 293 1007 l 266 1064 l 404 1064 q 464 956 426 1017 q 533 858 503 894 l 533 842 "},"ỗ":{"x_min":78,"x_max":761,"ha":839,"o":"m 761 372 q 669 88 761 190 q 416 -14 577 -14 q 239 32 316 -14 q 120 167 162 79 q 78 372 78 254 q 168 655 78 554 q 421 757 259 757 q 669 653 577 757 q 761 372 761 549 m 194 372 q 251 154 194 229 q 419 80 308 80 q 587 154 529 80 q 644 372 644 228 q 587 587 644 514 q 417 661 529 661 q 250 588 307 661 q 194 372 194 516 m 511 1078 q 462 1088 486 1078 q 415 1111 438 1098 q 371 1134 392 1124 q 330 1144 349 1144 q 289 1127 303 1144 q 265 1077 275 1111 l 204 1077 q 247 1187 212 1149 q 332 1226 281 1226 q 382 1215 357 1226 q 429 1193 406 1205 q 473 1170 452 1180 q 512 1160 494 1160 q 554 1176 539 1160 q 576 1227 568 1193 l 637 1227 q 596 1117 629 1156 q 511 1078 562 1078 m 626 842 l 562 842 q 419 954 497 886 q 276 842 347 889 l 212 842 l 212 857 l 248 898 q 360 1034 324 981 l 479 1034 q 626 857 524 970 l 626 842 "},"Ễ":{"x_min":136.40625,"x_max":689.53125,"ha":773,"o":"m 689 0 l 136 0 l 136 992 l 689 992 l 689 889 l 251 889 l 251 570 l 663 570 l 663 468 l 251 468 l 251 103 l 689 103 l 689 0 m 502 1307 q 453 1317 477 1307 q 406 1340 429 1327 q 362 1363 383 1353 q 321 1373 340 1373 q 280 1356 294 1373 q 256 1306 266 1340 l 195 1306 q 238 1416 203 1378 q 323 1455 272 1455 q 373 1444 348 1455 q 420 1422 397 1434 q 464 1399 443 1409 q 503 1389 485 1389 q 545 1405 530 1389 q 567 1456 559 1422 l 628 1456 q 587 1346 620 1385 q 502 1307 553 1307 m 617 1071 l 553 1071 q 410 1183 488 1115 q 267 1071 338 1118 l 203 1071 l 203 1086 l 239 1127 q 351 1263 315 1210 l 470 1263 q 617 1086 515 1199 l 617 1071 "},"ằ":{"x_min":63.796875,"x_max":660.34375,"ha":773,"o":"m 576 0 l 554 105 l 549 105 q 438 10 493 35 q 299 -14 382 -14 q 126 43 189 -14 q 63 205 63 100 q 424 441 63 431 l 550 446 l 550 492 q 512 621 550 579 q 392 663 475 663 q 181 606 299 663 l 147 692 q 267 739 202 722 q 399 756 333 756 q 596 696 532 756 q 660 507 660 637 l 660 0 l 576 0 m 322 78 q 487 136 427 78 q 547 298 547 194 l 547 365 l 435 361 q 241 319 300 356 q 181 204 181 282 q 218 110 181 142 q 322 78 255 78 m 418 1018 l 355 1018 q 216 1158 274 1081 l 216 1173 l 332 1173 q 418 1033 368 1099 l 418 1018 m 382 842 q 185 1018 195 842 l 254 1018 q 286 950 260 969 q 384 930 312 930 q 479 952 450 930 q 514 1018 509 974 l 585 1018 q 527 889 578 936 q 382 842 477 842 "},"ŏ":{"x_min":78,"x_max":761,"ha":839,"o":"m 761 372 q 669 88 761 190 q 416 -14 577 -14 q 239 32 316 -14 q 120 167 162 79 q 78 372 78 254 q 168 655 78 554 q 421 757 259 757 q 669 653 577 757 q 761 372 761 549 m 194 372 q 251 154 194 229 q 419 80 308 80 q 587 154 529 80 q 644 372 644 228 q 587 587 644 514 q 417 661 529 661 q 250 588 307 661 q 194 372 194 516 m 415 842 q 267 888 320 842 q 208 1024 214 935 l 279 1024 q 297 971 283 990 q 335 943 311 952 q 418 934 360 934 q 519 956 486 934 q 558 1024 551 978 l 629 1024 q 565 890 622 938 q 415 842 509 842 "},"Ả":{"x_min":0,"x_max":879,"ha":879,"o":"m 759 0 l 636 315 l 238 315 l 116 0 l 0 0 l 392 996 l 489 996 l 879 0 l 759 0 m 600 419 l 484 726 q 438 869 462 784 q 396 726 423 804 l 279 419 l 600 419 m 595 1242 q 483 1124 595 1147 l 476 1048 l 405 1048 l 397 1167 q 481 1193 455 1176 q 508 1239 508 1210 q 485 1282 508 1268 q 413 1296 462 1296 q 349 1292 371 1296 l 349 1360 q 422 1367 375 1367 q 595 1242 595 1367 "},"ý":{"x_min":1.359375,"x_max":698.640625,"ha":700,"o":"m 1 743 l 122 743 l 284 319 q 351 109 338 173 l 356 109 q 393 227 365 144 q 577 743 421 311 l 698 743 l 379 -103 q 268 -281 331 -228 q 112 -334 204 -334 q 10 -322 61 -334 l 10 -232 q 94 -240 48 -240 q 259 -110 210 -240 l 301 -4 l 1 743 m 278 858 q 348 960 311 900 q 408 1064 386 1020 l 545 1064 l 545 1049 q 456 941 515 1005 q 353 842 397 877 l 278 842 l 278 858 "},"º":{"x_min":44.765625,"x_max":476.21875,"ha":521,"o":"m 476 769 q 418 596 476 658 q 258 534 360 534 q 102 597 159 534 q 44 769 44 660 q 101 941 44 880 q 261 1003 158 1003 q 420 941 364 1003 q 476 769 476 879 m 127 769 q 158 645 127 686 q 259 603 189 603 q 362 645 331 603 q 393 769 393 686 q 362 893 393 853 q 259 933 331 933 q 158 893 189 933 q 127 769 127 853 "},"Ԁ":{"x_min":88.828125,"x_max":731.65625,"ha":851,"o":"m 88 285 q 187 499 88 429 q 482 569 286 569 l 616 569 l 616 992 l 731 992 l 731 0 l 451 0 q 179 72 270 0 q 88 285 88 144 m 616 467 l 490 467 q 273 425 339 467 q 208 286 208 383 q 269 144 208 189 q 469 99 331 99 l 616 99 l 616 467 "},"∞":{"x_min":80.671875,"x_max":898.328125,"ha":979,"o":"m 898 487 q 841 336 898 399 q 698 273 785 273 q 583 309 635 273 q 487 424 531 345 q 394 315 446 353 q 283 277 343 277 q 137 335 194 277 q 80 490 80 394 q 137 642 80 581 q 283 703 194 703 q 488 554 406 703 q 698 700 572 700 q 843 640 788 700 q 898 487 898 581 m 288 361 q 370 391 333 361 q 444 490 407 422 q 373 588 410 556 q 287 619 336 619 q 202 583 235 619 q 168 489 168 548 q 201 397 168 433 q 288 361 233 361 m 690 616 q 608 585 645 616 q 534 487 571 554 q 606 390 568 422 q 691 358 643 358 q 776 394 743 358 q 810 487 810 430 q 776 581 810 545 q 690 616 742 616 "},"ź":{"x_min":55.640625,"x_max":595.046875,"ha":650,"o":"m 595 0 l 55 0 l 55 76 l 461 655 l 80 655 l 80 743 l 584 743 l 584 655 l 184 87 l 595 87 l 595 0 m 250 858 q 320 960 283 900 q 380 1064 358 1020 l 517 1064 l 517 1049 q 428 941 487 1005 q 325 842 369 877 l 250 842 l 250 858 "},"я":{"x_min":25.09375,"x_max":651.65625,"ha":771,"o":"m 156 0 l 25 0 l 238 313 q 106 387 152 332 q 61 524 61 442 q 129 684 61 626 q 320 743 198 743 l 651 743 l 651 0 l 539 0 l 539 297 l 351 297 l 156 0 m 170 523 q 358 394 170 394 l 539 394 l 539 645 l 334 645 q 170 523 170 645 "},"ӛ":{"x_min":69.21875,"x_max":698.953125,"ha":777,"o":"m 343 757 q 604 655 509 757 q 698 376 698 553 q 611 91 698 197 q 375 -14 523 -14 q 151 76 234 -14 q 69 320 69 167 l 69 392 l 582 392 q 518 593 578 530 q 344 657 457 657 q 222 646 278 657 q 101 607 166 634 l 101 706 q 217 745 162 733 q 343 757 272 757 m 376 80 q 519 136 466 80 q 579 298 571 192 l 190 298 q 238 135 190 191 q 376 80 286 80 m 194 945 q 212 996 194 980 q 255 1012 230 1012 q 300 996 281 1012 q 318 945 318 980 q 300 894 318 911 q 255 878 281 878 q 212 894 230 878 q 194 945 194 911 m 453 945 q 471 996 453 980 q 514 1012 489 1012 q 558 996 539 1012 q 576 945 576 980 q 558 894 576 911 q 514 878 539 878 q 471 894 489 878 q 453 945 453 911 "},"Ё":{"x_min":136.40625,"x_max":689.53125,"ha":773,"o":"m 689 0 l 136 0 l 136 992 l 689 992 l 689 889 l 251 889 l 251 570 l 663 570 l 663 468 l 251 468 l 251 103 l 689 103 l 689 0 m 235 1174 q 253 1225 235 1209 q 296 1241 271 1241 q 341 1225 322 1241 q 359 1174 359 1209 q 341 1123 359 1140 q 296 1107 322 1107 q 253 1123 271 1107 q 235 1174 235 1140 m 494 1174 q 512 1225 494 1209 q 555 1241 530 1241 q 599 1225 580 1241 q 617 1174 617 1209 q 599 1123 617 1140 q 555 1107 580 1107 q 512 1123 530 1107 q 494 1174 494 1140 "},"Ư":{"x_min":126.171875,"x_max":1125.296875,"ha":1067,"o":"m 885 992 l 885 857 q 948 884 924 863 q 982 943 972 905 q 993 1056 993 981 l 1115 1056 l 1125 1041 q 1044 854 1102 917 q 885 775 986 792 l 885 349 q 787 80 885 174 q 511 -14 690 -14 q 227 83 329 -14 q 126 352 126 180 l 126 992 l 241 992 l 241 344 q 310 153 241 220 q 514 87 379 87 q 704 152 638 87 q 769 345 769 218 l 769 992 l 885 992 "},"ń":{"x_min":119.4375,"x_max":741.03125,"ha":853,"o":"m 628 0 l 628 480 q 587 616 628 571 q 457 661 545 661 q 286 598 340 661 q 232 390 232 535 l 232 0 l 119 0 l 119 743 l 210 743 l 229 641 l 234 641 q 331 726 269 696 q 470 757 394 757 q 673 692 605 757 q 741 485 741 627 l 741 0 l 628 0 m 348 858 q 418 960 381 900 q 478 1064 456 1020 l 615 1064 l 615 1049 q 526 941 585 1005 q 423 842 467 877 l 348 842 l 348 858 "}," ":{"x_min":0,"x_max":0,"ha":347},"Г":{"x_min":136.265625,"x_max":688.78125,"ha":722,"o":"m 688 992 l 688 888 l 251 888 l 251 0 l 136 0 l 136 992 l 688 992 "},"Ь":{"x_min":136.296875,"x_max":820.453125,"ha":893,"o":"m 820 289 q 728 75 820 151 q 466 0 636 0 l 136 0 l 136 992 l 251 992 l 251 569 l 448 569 q 725 497 629 569 q 820 289 820 425 m 251 99 l 454 99 q 701 289 701 99 q 637 424 701 380 q 434 467 574 467 l 251 467 l 251 99 "},"ѝ":{"x_min":119.328125,"x_max":760.671875,"ha":880,"o":"m 225 743 l 225 271 l 220 148 l 218 109 l 620 743 l 760 743 l 760 0 l 655 0 l 655 454 l 657 543 l 660 631 l 259 0 l 119 0 l 119 743 l 225 743 m 509 842 l 434 842 q 330 942 390 877 q 242 1049 269 1007 l 242 1064 l 380 1064 q 440 956 402 1017 q 509 858 479 894 l 509 842 "},"ԓ":{"x_min":10.859375,"x_max":772.390625,"ha":793,"o":"m 673 0 l 559 0 l 559 646 l 336 646 q 285 263 318 405 q 201 55 253 121 q 69 -10 149 -10 q 10 -1 32 -10 l 10 81 q 44 77 25 77 q 168 242 122 77 q 238 743 215 407 l 673 743 l 673 0 m 772 97 l 772 -91 q 617 -268 772 -268 q 538 -251 579 -268 l 538 -156 q 608 -169 566 -169 q 672 -101 672 -169 l 672 97 l 772 97 "},"¤":{"x_min":83.390625,"x_max":709.921875,"ha":794,"o":"m 124 489 q 174 645 124 572 l 83 740 l 147 802 l 238 712 q 397 762 309 762 q 552 712 483 762 l 645 802 l 709 740 l 619 646 q 669 489 669 569 q 619 331 669 400 l 707 239 l 645 176 l 552 267 q 397 219 483 219 q 238 268 306 219 l 147 178 l 84 240 l 174 333 q 124 489 124 405 m 212 489 q 265 359 212 413 q 397 305 318 305 q 529 359 475 305 q 583 489 583 413 q 528 622 583 567 q 397 677 474 677 q 265 621 318 677 q 212 489 212 565 "},"Ĝ":{"x_min":84.765625,"x_max":909.296875,"ha":1011,"o":"m 572 519 l 909 519 l 909 36 q 749 -1 830 11 q 560 -14 667 -14 q 210 120 335 -14 q 84 495 84 254 q 146 766 84 650 q 325 944 208 883 q 598 1006 442 1006 q 894 947 757 1006 l 849 845 q 591 902 715 902 q 308 794 410 902 q 206 495 206 687 q 304 190 206 294 q 592 87 402 87 q 794 110 695 87 l 794 415 l 572 415 l 572 519 m 339 1086 q 460 1221 425 1178 q 510 1293 495 1265 l 623 1293 q 675 1219 638 1264 q 796 1086 712 1174 l 796 1071 l 716 1071 q 566 1196 656 1108 q 417 1071 474 1106 l 339 1071 l 339 1086 "},"p":{"x_min":119.34375,"x_max":773.703125,"ha":851,"o":"m 465 -14 q 332 12 392 -14 q 231 95 272 39 l 223 95 q 231 -28 231 30 l 231 -334 l 119 -334 l 119 743 l 210 743 l 226 641 l 231 641 q 332 729 275 702 q 465 757 390 757 q 693 655 613 757 q 773 372 773 554 q 691 87 773 188 q 465 -14 610 -14 m 448 661 q 284 598 334 661 q 231 397 233 535 l 231 372 q 284 147 231 215 q 451 80 336 80 q 602 158 547 80 q 657 373 657 236 q 602 587 657 512 q 448 661 547 661 "},"ӓ":{"x_min":63.796875,"x_max":660.34375,"ha":773,"o":"m 576 0 l 554 105 l 549 105 q 438 10 493 35 q 299 -14 382 -14 q 126 43 189 -14 q 63 205 63 100 q 424 441 63 431 l 550 446 l 550 492 q 512 621 550 579 q 392 663 475 663 q 181 606 299 663 l 147 692 q 267 739 202 722 q 399 756 333 756 q 596 696 532 756 q 660 507 660 637 l 660 0 l 576 0 m 322 78 q 487 136 427 78 q 547 298 547 194 l 547 365 l 435 361 q 241 319 300 356 q 181 204 181 282 q 218 110 181 142 q 322 78 255 78 m 200 945 q 218 996 200 980 q 261 1012 236 1012 q 306 996 287 1012 q 324 945 324 980 q 306 894 324 911 q 261 878 287 878 q 218 894 236 878 q 200 945 200 911 m 459 945 q 477 996 459 980 q 520 1012 495 1012 q 564 996 545 1012 q 582 945 582 980 q 564 894 582 911 q 520 878 545 878 q 477 894 495 878 q 459 945 459 911 "},"Ѹ":{"x_min":84.765625,"x_max":1672.21875,"ha":1679,"o":"m 924 496 q 814 122 924 258 q 505 -14 703 -14 q 194 119 303 -14 q 84 498 84 253 q 194 874 84 741 q 507 1007 303 1007 q 814 871 704 1007 q 924 496 924 735 m 206 496 q 282 191 206 295 q 505 87 358 87 q 727 190 653 87 q 802 496 802 293 q 728 801 802 698 q 507 903 653 903 q 283 801 359 903 q 206 496 206 699 m 976 743 l 1095 743 l 1262 316 q 1329 106 1315 175 l 1334 106 q 1370 221 1341 136 q 1552 743 1398 306 l 1672 743 l 1354 -103 q 1243 -280 1307 -226 q 1087 -334 1179 -334 q 985 -322 1036 -334 l 985 -232 q 1068 -240 1023 -240 q 1171 -205 1131 -240 q 1234 -110 1211 -170 l 1276 -4 l 976 743 "},"Ю":{"x_min":136.3125,"x_max":1371.875,"ha":1458,"o":"m 1371 496 q 1256 121 1371 256 q 934 -14 1140 -14 q 614 110 730 -14 q 491 466 499 235 l 251 466 l 251 0 l 136 0 l 136 992 l 251 992 l 251 570 l 493 570 q 622 893 508 780 q 931 1007 737 1007 q 1255 870 1139 1007 q 1371 496 1371 734 m 612 496 q 693 191 612 296 q 930 87 773 87 q 1169 190 1089 87 q 1249 496 1249 294 q 1170 801 1249 699 q 933 903 1090 903 q 693 800 775 903 q 612 496 612 696 "},"ο":{"x_min":78,"x_max":761,"ha":839,"o":"m 761 372 q 669 88 761 190 q 416 -14 577 -14 q 239 32 316 -14 q 120 167 162 79 q 78 372 78 254 q 168 655 78 554 q 421 757 259 757 q 669 653 577 757 q 761 372 761 549 m 194 372 q 251 154 194 229 q 419 80 308 80 q 587 154 529 80 q 644 372 644 228 q 587 587 644 514 q 417 661 529 661 q 250 588 307 661 q 194 372 194 516 "},"S":{"x_min":71.859375,"x_max":695.5625,"ha":762,"o":"m 695 263 q 600 59 695 132 q 343 -14 505 -14 q 71 31 166 -14 l 71 142 q 204 101 132 116 q 347 87 276 87 q 520 130 462 87 q 578 252 578 174 q 558 337 578 304 q 489 397 537 370 q 341 461 440 425 q 144 578 203 510 q 84 755 84 646 q 170 938 84 870 q 398 1006 256 1006 q 670 951 546 1006 l 634 851 q 395 902 511 902 q 252 863 304 902 q 201 754 201 824 q 220 669 201 702 q 284 609 239 636 q 422 548 329 581 q 636 429 578 492 q 695 263 695 365 "},"ễ":{"x_min":77.96875,"x_max":706.453125,"ha":779,"o":"m 433 -14 q 173 86 268 -14 q 77 365 77 186 q 166 651 77 545 q 404 757 254 757 q 625 665 543 757 q 706 422 706 573 l 706 351 l 194 351 q 260 152 198 220 q 437 84 323 84 q 674 134 557 84 l 674 34 q 561 -2 614 8 q 433 -14 508 -14 m 402 662 q 260 604 313 662 q 197 443 206 546 l 585 443 q 538 606 585 549 q 402 662 490 662 m 487 1078 q 438 1088 462 1078 q 391 1111 414 1098 q 347 1134 368 1124 q 306 1144 325 1144 q 265 1127 279 1144 q 241 1077 251 1111 l 180 1077 q 223 1187 188 1149 q 308 1226 257 1226 q 358 1215 333 1226 q 405 1193 382 1205 q 449 1170 428 1180 q 488 1160 470 1160 q 530 1176 515 1160 q 552 1227 544 1193 l 613 1227 q 572 1117 605 1156 q 487 1078 538 1078 m 602 842 l 538 842 q 395 954 473 886 q 252 842 323 889 l 188 842 l 188 857 l 224 898 q 336 1034 300 981 l 455 1034 q 602 857 500 970 l 602 842 "},"/":{"x_min":13.5625,"x_max":495.765625,"ha":510,"o":"m 495 992 l 126 0 l 13 0 l 383 992 l 495 992 "},"Ọ":{"x_min":84.796875,"x_max":997.203125,"ha":1082,"o":"m 997 496 q 876 122 997 258 q 542 -14 756 -14 q 203 119 322 -14 q 84 498 84 253 q 204 873 84 740 q 543 1007 323 1007 q 877 871 757 1007 q 997 496 997 735 m 206 496 q 292 191 206 295 q 542 87 378 87 q 791 190 706 87 q 875 496 875 294 q 791 800 875 696 q 543 903 707 903 q 292 799 378 903 q 206 496 206 695 m 473 -164 q 493 -107 473 -125 q 541 -89 513 -89 q 588 -107 568 -89 q 608 -164 608 -125 q 588 -220 608 -201 q 541 -239 568 -239 q 493 -220 513 -239 q 473 -164 473 -201 "},"Ӭ":{"x_min":41.375,"x_max":787.5,"ha":875,"o":"m 316 902 q 90 851 200 902 l 41 949 q 318 1006 158 1006 q 571 946 465 1006 q 732 775 677 886 q 787 515 787 665 q 664 123 787 260 q 308 -14 540 -14 q 48 24 154 -14 l 48 125 q 163 99 105 111 q 288 88 221 88 q 566 186 472 88 q 665 468 660 284 l 177 468 l 177 572 l 664 572 q 557 815 649 727 q 316 902 465 902 m 196 1174 q 214 1225 196 1209 q 257 1241 232 1241 q 302 1225 283 1241 q 320 1174 320 1209 q 302 1123 320 1140 q 257 1107 283 1107 q 214 1123 232 1107 q 196 1174 196 1140 m 455 1174 q 473 1225 455 1209 q 516 1241 491 1241 q 560 1225 541 1241 q 578 1174 578 1209 q 560 1123 578 1140 q 516 1107 541 1107 q 473 1123 491 1107 q 455 1174 455 1140 "},"Ŧ":{"x_min":12.203125,"x_max":755.125,"ha":768,"o":"m 326 553 l 326 889 l 12 889 l 12 992 l 755 992 l 755 889 l 441 889 l 441 553 l 651 553 l 651 457 l 441 457 l 441 0 l 326 0 l 326 457 l 113 457 l 113 553 l 326 553 "},"ђ":{"x_min":13.578125,"x_max":741.03125,"ha":853,"o":"m 553 -334 q 464 -317 499 -334 l 464 -224 q 540 -237 503 -237 q 628 -122 628 -237 l 628 454 q 587 589 628 544 q 457 634 545 634 q 286 570 339 634 q 233 363 233 506 l 233 0 l 119 0 l 119 842 l 13 842 l 13 929 l 119 929 l 119 1055 l 232 1055 l 232 929 l 504 929 l 504 842 l 232 842 l 232 709 q 226 615 232 652 l 233 615 q 328 699 266 668 q 468 730 389 730 q 672 665 604 730 q 741 458 741 600 l 741 -112 q 694 -276 741 -218 q 553 -334 648 -334 "},"y":{"x_min":1.359375,"x_max":698.640625,"ha":700,"o":"m 1 743 l 122 743 l 284 319 q 351 109 338 173 l 356 109 q 393 227 365 144 q 577 743 421 311 l 698 743 l 379 -103 q 268 -281 331 -228 q 112 -334 204 -334 q 10 -322 61 -334 l 10 -232 q 94 -240 48 -240 q 259 -110 210 -240 l 301 -4 l 1 743 "},"Π":{"x_min":136.375,"x_max":876.625,"ha":1013,"o":"m 876 0 l 761 0 l 761 889 l 251 889 l 251 0 l 136 0 l 136 992 l 876 992 l 876 0 "},"‗":{"x_min":-2.71875,"x_max":573.71875,"ha":571,"o":"m 573 -314 l -2 -314 l -2 -219 l 573 -219 l 573 -314 m 573 -125 l -2 -125 l -2 -31 l 573 -31 l 573 -125 "},"–":{"x_min":55.65625,"x_max":639.34375,"ha":695,"o":"m 55 320 l 55 424 l 639 424 l 639 320 l 55 320 "},"ë":{"x_min":77.96875,"x_max":706.453125,"ha":779,"o":"m 433 -14 q 173 86 268 -14 q 77 365 77 186 q 166 651 77 545 q 404 757 254 757 q 625 665 543 757 q 706 422 706 573 l 706 351 l 194 351 q 260 152 198 220 q 437 84 323 84 q 674 134 557 84 l 674 34 q 561 -2 614 8 q 433 -14 508 -14 m 402 662 q 260 604 313 662 q 197 443 206 546 l 585 443 q 538 606 585 549 q 402 662 490 662 m 216 945 q 234 996 216 980 q 277 1012 252 1012 q 322 996 303 1012 q 340 945 340 980 q 322 894 340 911 q 277 878 303 878 q 234 894 252 878 q 216 945 216 911 m 475 945 q 493 996 475 980 q 536 1012 511 1012 q 580 996 561 1012 q 598 945 598 980 q 580 894 598 911 q 536 878 561 878 q 493 894 511 878 q 475 945 475 911 "},"б":{"x_min":80.703125,"x_max":751.375,"ha":828,"o":"m 80 445 q 152 826 80 689 q 380 996 224 962 q 722 1064 574 1038 l 743 965 q 406 902 507 925 q 259 796 308 880 q 205 569 210 713 l 213 569 q 322 659 255 626 q 461 692 388 692 q 674 603 598 692 q 751 356 751 514 q 662 84 751 182 q 415 -14 573 -14 q 169 106 258 -14 q 80 445 80 226 m 425 80 q 632 344 632 80 q 444 596 632 596 q 344 574 392 596 q 257 518 297 553 q 196 445 217 482 q 252 173 196 267 q 425 80 308 80 "},"ƒ":{"x_min":132.3125,"x_max":710.40625,"ha":802,"o":"m 222 -334 q 132 -321 175 -334 l 132 -226 q 221 -239 179 -239 q 311 -204 285 -239 q 337 -93 337 -169 l 337 567 l 187 567 l 187 618 l 337 659 l 337 753 q 392 945 337 885 q 571 1006 447 1006 q 710 976 628 1006 l 695 933 l 681 889 q 571 911 612 911 q 477 875 504 911 q 450 755 450 839 l 450 654 l 641 654 l 641 567 l 453 567 l 453 -90 q 399 -274 453 -215 q 222 -334 346 -334 "},"у":{"x_min":1.359375,"x_max":698.640625,"ha":700,"o":"m 1 743 l 122 743 l 284 319 q 351 109 338 173 l 356 109 q 393 227 365 144 q 577 743 421 311 l 698 743 l 379 -103 q 268 -281 331 -228 q 112 -334 204 -334 q 10 -322 61 -334 l 10 -232 q 94 -240 48 -240 q 259 -110 210 -240 l 301 -4 l 1 743 "},"J":{"x_min":-108.515625,"x_max":244.15625,"ha":371,"o":"m -8 -261 q -108 -242 -71 -261 l -108 -144 q -8 -157 -60 -157 q 93 -117 59 -157 q 128 0 128 -76 l 128 992 l 244 992 l 244 9 q 179 -190 244 -119 q -8 -261 113 -261 "},"ŷ":{"x_min":1.359375,"x_max":698.640625,"ha":700,"o":"m 1 743 l 122 743 l 284 319 q 351 109 338 173 l 356 109 q 393 227 365 144 q 577 743 421 311 l 698 743 l 379 -103 q 268 -281 331 -228 q 112 -334 204 -334 q 10 -322 61 -334 l 10 -232 q 94 -240 48 -240 q 259 -110 210 -240 l 301 -4 l 1 743 m 125 857 q 246 992 211 949 q 296 1064 281 1036 l 409 1064 q 461 990 424 1035 q 582 857 498 945 l 582 842 l 502 842 q 352 967 442 879 q 203 842 260 877 l 125 842 l 125 857 "},"ŕ":{"x_min":119.375,"x_max":547.328125,"ha":567,"o":"m 458 757 q 547 748 507 757 l 531 644 q 450 654 485 654 q 296 581 360 654 q 231 398 231 508 l 231 0 l 119 0 l 119 743 l 212 743 l 225 605 l 230 605 q 330 717 271 678 q 458 757 388 757 m 242 858 q 312 960 275 900 q 372 1064 350 1020 l 509 1064 l 509 1049 q 420 941 479 1005 q 317 842 361 877 l 242 842 l 242 858 "},"ӌ":{"x_min":105.75,"x_max":724.6875,"ha":844,"o":"m 218 743 l 218 472 q 366 342 218 342 q 484 360 428 342 q 612 425 540 379 l 612 743 l 724 743 l 724 0 l 623 0 l 623 -257 l 511 -257 l 511 96 l 612 96 l 612 336 q 480 267 540 287 q 343 247 419 247 q 168 306 231 247 q 105 463 105 364 l 105 743 l 218 743 "},"ώ":{"x_min":78.015625,"x_max":995.984375,"ha":1074,"o":"m 339 -14 q 146 86 215 -14 q 78 359 78 186 q 96 552 78 464 q 161 743 115 639 l 278 743 q 212 550 231 637 q 193 357 193 464 q 234 153 193 226 q 347 80 274 80 q 446 128 411 80 q 482 262 482 177 l 482 473 l 591 473 l 591 262 q 627 127 591 175 q 726 80 663 80 q 839 153 799 80 q 880 357 880 226 q 862 548 880 460 q 796 743 843 636 l 913 743 q 976 554 957 643 q 995 359 995 465 q 927 87 995 188 q 734 -14 858 -14 q 539 109 585 -14 l 533 109 q 339 -14 489 -14 m 480 861 q 516 987 499 910 q 543 1120 534 1064 l 667 1120 l 667 1104 q 618 973 655 1054 q 548 842 581 893 l 480 842 l 480 861 "},"˘":{"x_min":198.71875,"x_max":619.21875,"ha":822,"o":"m 405 842 q 257 888 310 842 q 198 1024 204 935 l 269 1024 q 287 971 273 990 q 325 943 301 952 q 408 934 350 934 q 509 956 476 934 q 548 1024 541 978 l 619 1024 q 555 890 612 938 q 405 842 499 842 "},"҃":{"x_min":137.703125,"x_max":637.65625,"ha":774,"o":"m 265 856 q 246 809 261 826 q 200 792 232 792 q 151 809 165 792 q 137 862 137 826 q 151 912 137 898 q 202 926 166 926 l 507 926 q 526 973 511 957 q 572 989 540 989 q 622 973 607 989 q 637 921 637 956 q 622 870 637 883 q 571 856 607 856 l 265 856 "},"D":{"x_min":136.375,"x_max":928.1875,"ha":1013,"o":"m 928 505 q 794 129 928 259 q 411 0 661 0 l 136 0 l 136 992 l 440 992 q 799 863 671 992 q 928 505 928 735 m 806 501 q 708 793 806 695 q 419 892 611 892 l 251 892 l 251 99 l 392 99 q 702 201 598 99 q 806 501 806 302 "},"ł":{"x_min":-2.71875,"x_max":373.859375,"ha":363,"o":"m 232 586 l 324 650 l 373 573 l 232 478 l 232 0 l 119 0 l 119 403 l 44 355 l -2 431 l 119 512 l 119 1055 l 232 1055 l 232 586 "},"ĺ":{"x_min":110.65625,"x_max":377.3125,"ha":351,"o":"m 231 0 l 119 0 l 119 1055 l 231 1055 l 231 0 m 110 1126 q 180 1228 143 1168 q 240 1332 218 1288 l 377 1332 l 377 1317 q 288 1209 347 1273 q 185 1110 229 1145 l 110 1110 l 110 1126 "},"ӳ":{"x_min":1.359375,"x_max":698.640625,"ha":700,"o":"m 1 743 l 122 743 l 284 319 q 351 109 338 173 l 356 109 q 393 227 365 144 q 577 743 421 311 l 698 743 l 379 -103 q 268 -281 331 -228 q 112 -334 204 -334 q 10 -322 61 -334 l 10 -232 q 94 -240 48 -240 q 259 -110 210 -240 l 301 -4 l 1 743 m 159 858 q 221 954 184 891 q 279 1064 258 1017 l 406 1064 l 406 1049 q 322 940 380 1007 q 225 842 264 874 l 159 842 l 159 858 m 401 858 q 469 964 435 904 q 521 1064 503 1024 l 647 1064 l 647 1049 q 564 940 622 1007 q 467 842 506 874 l 401 842 l 401 858 "},"ц":{"x_min":119.296875,"x_max":843.921875,"ha":869,"o":"m 843 -257 l 731 -257 l 731 0 l 119 0 l 119 743 l 231 743 l 231 96 l 626 96 l 626 743 l 738 743 l 738 96 l 843 96 l 843 -257 "},"Л":{"x_min":0,"x_max":841.671875,"ha":978,"o":"m 841 0 l 726 0 l 726 889 l 404 889 l 383 726 q 310 251 341 401 q 227 41 278 100 q 90 -16 175 -17 q 0 0 40 -16 l 0 97 q 76 80 36 80 q 139 109 112 80 q 186 212 166 139 q 239 489 207 285 q 308 992 270 693 l 841 992 l 841 0 "},"$":{"x_min":88.828125,"x_max":702.46875,"ha":794,"o":"m 702 304 q 633 151 702 211 q 440 76 564 91 l 440 -81 l 352 -81 l 352 70 q 205 81 276 70 q 88 114 134 93 l 88 220 q 218 179 145 195 q 352 163 292 163 l 352 462 q 157 565 213 506 q 101 715 101 623 q 170 861 101 804 q 352 931 239 918 l 352 1054 l 440 1054 l 440 932 q 680 882 564 928 l 645 793 q 440 840 544 833 l 440 546 q 599 479 546 512 q 677 405 652 447 q 702 304 702 364 m 587 295 q 557 374 587 344 q 440 434 526 404 l 440 170 q 587 295 587 190 m 216 717 q 246 634 216 665 q 352 575 277 603 l 352 838 q 250 795 285 827 q 216 717 216 764 "},"w":{"x_min":15.59375,"x_max":1065.078125,"ha":1080,"o":"m 726 0 l 589 435 q 541 617 576 475 l 536 617 q 488 434 509 498 l 348 0 l 218 0 l 15 743 l 133 743 q 243 316 205 463 q 286 119 280 170 l 291 119 q 315 219 298 157 q 344 316 332 280 l 480 743 l 602 743 l 735 316 q 787 120 773 199 l 792 120 q 807 195 795 145 q 948 743 818 246 l 1065 743 l 859 0 l 726 0 "},"Ԅ":{"x_min":52.890625,"x_max":1128.890625,"ha":1255,"o":"m 291 464 l 155 464 l 155 561 l 286 561 q 488 610 416 561 q 560 750 560 660 q 508 866 560 823 q 369 909 456 909 q 239 891 299 909 q 109 825 179 872 l 52 902 q 199 978 115 951 q 370 1006 282 1006 q 599 939 515 1006 q 682 759 682 873 q 621 602 682 664 q 455 522 561 539 l 455 516 q 699 276 695 482 q 737 131 701 174 q 858 88 774 88 q 976 129 939 88 q 1014 262 1014 170 l 1014 575 l 1128 575 l 1128 255 q 1057 53 1128 121 q 858 -14 986 -14 q 650 56 721 -14 q 578 263 580 127 q 508 414 577 365 q 291 464 438 464 "},"о":{"x_min":78,"x_max":761,"ha":839,"o":"m 761 372 q 669 88 761 190 q 416 -14 577 -14 q 239 32 316 -14 q 120 167 162 79 q 78 372 78 254 q 168 655 78 554 q 421 757 259 757 q 669 653 577 757 q 761 372 761 549 m 194 372 q 251 154 194 229 q 419 80 308 80 q 587 154 529 80 q 644 372 644 228 q 587 587 644 514 q 417 661 529 661 q 250 588 307 661 q 194 372 194 516 "},"Д":{"x_min":9.5,"x_max":918.46875,"ha":949,"o":"m 918 -258 l 808 -258 l 808 0 l 119 0 l 119 -258 l 9 -258 l 9 104 l 86 104 q 264 531 190 280 q 347 992 339 783 l 792 992 l 792 104 l 918 104 l 918 -258 m 677 104 l 677 888 l 451 888 q 369 493 439 724 q 206 104 299 263 l 677 104 "},"Ç":{"x_min":84.75,"x_max":834.640625,"ha":876,"o":"m 560 902 q 302 793 397 902 q 208 495 208 685 q 299 194 208 300 q 559 88 390 88 q 796 125 663 88 l 796 24 q 541 -14 692 -14 q 203 119 322 -14 q 84 497 84 252 q 142 765 84 650 q 307 943 199 881 q 562 1006 415 1006 q 834 949 718 1006 l 785 850 q 560 902 673 902 m 644 -196 q 592 -298 644 -262 q 439 -334 540 -334 q 374 -327 404 -334 l 374 -256 q 444 -261 404 -261 q 525 -247 497 -261 q 552 -197 552 -234 q 526 -150 552 -168 q 425 -120 499 -132 l 485 0 l 559 0 l 522 -78 q 644 -196 644 -104 "},"Ŝ":{"x_min":71.859375,"x_max":695.5625,"ha":762,"o":"m 695 263 q 600 59 695 132 q 343 -14 505 -14 q 71 31 166 -14 l 71 142 q 204 101 132 116 q 347 87 276 87 q 520 130 462 87 q 578 252 578 174 q 558 337 578 304 q 489 397 537 370 q 341 461 440 425 q 144 578 203 510 q 84 755 84 646 q 170 938 84 870 q 398 1006 256 1006 q 670 951 546 1006 l 634 851 q 395 902 511 902 q 252 863 304 902 q 201 754 201 824 q 220 669 201 702 q 284 609 239 636 q 422 548 329 581 q 636 429 578 492 q 695 263 695 365 m 166 1086 q 287 1221 252 1178 q 337 1293 322 1265 l 450 1293 q 502 1219 465 1264 q 623 1086 539 1174 l 623 1071 l 543 1071 q 393 1196 483 1108 q 244 1071 301 1106 l 166 1071 l 166 1086 "},"Ӛ":{"x_min":79.359375,"x_max":927.859375,"ha":1014,"o":"m 450 903 q 143 852 296 903 l 143 959 q 292 996 221 985 q 454 1007 363 1007 q 803 871 678 1007 q 927 494 927 736 q 810 121 927 256 q 483 -14 693 -14 q 79 492 79 -14 l 79 540 l 805 540 q 705 812 794 720 q 450 903 615 903 m 483 88 q 710 179 626 88 q 805 438 794 270 l 202 438 q 271 173 202 259 q 483 88 341 88 m 309 1174 q 327 1225 309 1209 q 370 1241 345 1241 q 415 1225 396 1241 q 433 1174 433 1209 q 415 1123 433 1140 q 370 1107 396 1107 q 327 1123 345 1107 q 309 1174 309 1140 m 568 1174 q 586 1225 568 1209 q 629 1241 604 1241 q 673 1225 654 1241 q 691 1174 691 1209 q 673 1123 691 1140 q 629 1107 654 1107 q 586 1123 604 1107 q 568 1174 568 1140 "},"ӣ":{"x_min":119.328125,"x_max":760.671875,"ha":880,"o":"m 225 743 l 225 271 l 220 148 l 218 109 l 620 743 l 760 743 l 760 0 l 655 0 l 655 454 l 657 543 l 660 631 l 259 0 l 119 0 l 119 743 l 225 743 m 237 934 l 643 934 l 643 842 l 237 842 l 237 934 "},"C":{"x_min":84.75,"x_max":834.640625,"ha":876,"o":"m 560 902 q 302 793 397 902 q 208 495 208 685 q 299 194 208 300 q 559 88 390 88 q 796 125 663 88 l 796 24 q 541 -14 692 -14 q 203 119 322 -14 q 84 497 84 252 q 142 765 84 650 q 307 943 199 881 q 562 1006 415 1006 q 834 949 718 1006 l 785 850 q 560 902 673 902 "},"Ӂ":{"x_min":1.359375,"x_max":1169.609375,"ha":1173,"o":"m 405 510 l 15 992 l 144 992 l 530 511 l 530 992 l 641 992 l 641 511 l 1028 992 l 1157 992 l 766 511 l 1169 0 l 1036 0 l 641 502 l 641 0 l 530 0 l 530 502 l 136 0 l 1 0 l 405 510 m 580 1073 q 397 1121 454 1073 q 332 1281 339 1169 l 438 1281 q 475 1182 444 1210 q 582 1155 506 1155 q 686 1184 652 1155 q 727 1281 720 1214 l 834 1281 q 765 1123 825 1173 q 580 1073 705 1073 "},"Ḁ":{"x_min":0,"x_max":879,"ha":879,"o":"m 759 0 l 636 315 l 238 315 l 116 0 l 0 0 l 392 996 l 489 996 l 879 0 l 759 0 m 600 419 l 484 726 q 438 869 462 784 q 396 726 423 804 l 279 419 l 600 419 m 593 -229 q 551 -336 593 -295 q 439 -377 508 -377 q 330 -337 370 -377 q 289 -231 289 -297 q 330 -124 289 -164 q 439 -85 370 -85 q 550 -125 508 -85 q 593 -229 593 -165 m 518 -231 q 496 -171 518 -192 q 439 -151 474 -151 q 382 -171 404 -151 q 359 -231 359 -192 q 380 -289 359 -269 q 439 -310 400 -310 q 497 -289 475 -310 q 518 -231 518 -269 "},"̉":{"x_min":-515.453125,"x_max":-269.25,"ha":0,"o":"m -269 1013 q -381 895 -269 918 l -388 819 l -459 819 l -467 938 q -383 964 -409 947 q -356 1010 -356 981 q -379 1053 -356 1039 q -451 1067 -402 1067 q -515 1063 -493 1067 l -515 1131 q -442 1138 -489 1138 q -269 1013 -269 1138 "},"Ĵ":{"x_min":-108.515625,"x_max":415.875,"ha":371,"o":"m -8 -261 q -108 -242 -71 -261 l -108 -144 q -8 -157 -60 -157 q 93 -117 59 -157 q 128 0 128 -76 l 128 992 l 244 992 l 244 9 q 179 -190 244 -119 q -8 -261 113 -261 m -41 1086 q 79 1221 44 1178 q 129 1293 114 1265 l 242 1293 q 294 1219 257 1264 q 415 1086 331 1174 l 415 1071 l 335 1071 q 185 1196 275 1108 q 36 1071 93 1106 l -41 1071 l -41 1086 "},"Ẻ":{"x_min":136.40625,"x_max":689.53125,"ha":773,"o":"m 689 0 l 136 0 l 136 992 l 689 992 l 689 889 l 251 889 l 251 570 l 663 570 l 663 468 l 251 468 l 251 103 l 689 103 l 689 0 m 566 1242 q 454 1124 566 1147 l 447 1048 l 376 1048 l 368 1167 q 452 1193 426 1176 q 479 1239 479 1210 q 456 1282 479 1268 q 384 1296 433 1296 q 320 1292 342 1296 l 320 1360 q 393 1367 346 1367 q 566 1242 566 1367 "},"Ҕ":{"x_min":136.34375,"x_max":843.15625,"ha":892,"o":"m 380 444 q 251 436 312 444 l 251 0 l 136 0 l 136 992 l 706 992 l 706 888 l 251 888 l 251 538 q 394 545 312 545 q 727 430 611 545 q 843 102 843 315 q 746 -229 843 -111 q 473 -347 649 -347 q 374 -339 417 -347 q 284 -313 332 -332 l 284 -210 q 461 -243 368 -243 q 721 102 721 -243 q 634 356 721 268 q 380 444 547 444 "},"È":{"x_min":136.40625,"x_max":689.53125,"ha":773,"o":"m 689 0 l 136 0 l 136 992 l 689 992 l 689 889 l 251 889 l 251 570 l 663 570 l 663 468 l 251 468 l 251 103 l 689 103 l 689 0 m 483 1071 l 408 1071 q 304 1171 364 1106 q 216 1278 243 1236 l 216 1293 l 354 1293 q 414 1185 376 1246 q 483 1087 453 1123 l 483 1071 "},"ﬁ":{"x_min":19.6875,"x_max":713.6875,"ha":822,"o":"m 454 655 l 265 655 l 265 0 l 152 0 l 152 655 l 19 655 l 19 706 l 152 747 l 152 788 q 392 1063 152 1063 q 530 1039 451 1063 l 501 949 q 390 970 436 970 q 295 927 326 970 q 265 791 265 885 l 265 742 l 454 742 l 454 655 m 702 0 l 590 0 l 590 743 l 702 743 l 702 0 m 580 944 q 599 1000 580 982 q 647 1018 618 1018 q 694 1000 674 1018 q 713 944 713 982 q 694 887 713 906 q 647 869 674 869 q 599 887 618 869 q 580 944 580 906 "},"X":{"x_min":5.421875,"x_max":796.578125,"ha":802,"o":"m 796 0 l 665 0 l 398 436 l 127 0 l 5 0 l 335 518 l 27 992 l 155 992 l 401 599 l 650 992 l 772 992 l 465 522 l 796 0 "},"ô":{"x_min":78,"x_max":761,"ha":839,"o":"m 761 372 q 669 88 761 190 q 416 -14 577 -14 q 239 32 316 -14 q 120 167 162 79 q 78 372 78 254 q 168 655 78 554 q 421 757 259 757 q 669 653 577 757 q 761 372 761 549 m 194 372 q 251 154 194 229 q 419 80 308 80 q 587 154 529 80 q 644 372 644 228 q 587 587 644 514 q 417 661 529 661 q 250 588 307 661 q 194 372 194 516 m 191 857 q 312 992 277 949 q 362 1064 347 1036 l 475 1064 q 527 990 490 1035 q 648 857 564 945 l 648 842 l 568 842 q 418 967 508 879 q 269 842 326 877 l 191 842 l 191 857 "},"ҝ":{"x_min":119.421875,"x_max":734.890625,"ha":741,"o":"m 312 294 l 232 376 l 232 0 l 119 0 l 119 743 l 232 743 l 232 381 l 312 463 l 312 687 l 401 687 l 401 548 l 584 743 l 708 743 l 401 420 l 401 348 l 734 0 l 603 0 l 400 213 l 400 63 l 312 63 l 312 294 "},"Ė":{"x_min":136.40625,"x_max":689.53125,"ha":773,"o":"m 689 0 l 136 0 l 136 992 l 689 992 l 689 889 l 251 889 l 251 570 l 663 570 l 663 468 l 251 468 l 251 103 l 689 103 l 689 0 m 358 1154 q 377 1211 358 1193 q 425 1229 396 1229 q 472 1210 452 1229 q 491 1154 491 1192 q 472 1097 491 1116 q 425 1079 452 1079 q 377 1097 396 1079 q 358 1154 358 1116 "},"г":{"x_min":119.40625,"x_max":567.1875,"ha":595,"o":"m 567 646 l 231 646 l 231 0 l 119 0 l 119 743 l 567 743 l 567 646 "},"℠":{"x_min":62.40625,"x_max":983.609375,"ha":1103,"o":"m 396 638 q 345 534 396 571 q 210 498 295 498 q 62 520 112 498 l 62 593 q 215 566 134 566 q 315 634 315 566 q 307 669 315 656 q 281 694 299 683 q 205 726 263 705 q 96 787 124 756 q 69 869 69 818 q 117 963 69 927 q 240 999 165 999 q 387 972 324 999 l 364 905 q 240 930 296 930 q 173 914 199 930 q 148 872 148 899 q 154 840 148 852 q 175 818 160 828 q 254 785 189 809 q 369 720 341 751 q 396 638 396 690 m 682 503 l 546 882 l 540 882 l 544 794 l 544 503 l 464 503 l 464 992 l 591 992 l 723 612 l 861 992 l 983 992 l 983 503 l 897 503 l 897 787 l 901 880 l 896 880 l 752 503 l 682 503 "},"ấ":{"x_min":63.796875,"x_max":738.390625,"ha":773,"o":"m 576 0 l 554 105 l 549 105 q 438 10 493 35 q 299 -14 382 -14 q 126 43 189 -14 q 63 205 63 100 q 424 441 63 431 l 550 446 l 550 492 q 512 621 550 579 q 392 663 475 663 q 181 606 299 663 l 147 692 q 267 739 202 722 q 399 756 333 756 q 596 696 532 756 q 660 507 660 637 l 660 0 l 576 0 m 322 78 q 487 136 427 78 q 547 298 547 194 l 547 365 l 435 361 q 241 319 300 356 q 181 204 181 282 q 218 110 181 142 q 322 78 255 78 m 589 842 l 526 842 q 383 954 450 892 q 239 842 305 886 l 176 842 l 176 858 l 212 899 q 323 1035 288 982 l 442 1035 q 589 858 487 971 l 589 842 m 535 990 q 621 1128 585 1052 l 738 1128 l 738 1113 q 600 974 682 1039 l 535 974 l 535 990 "},"Ŀ":{"x_min":136.328125,"x_max":689.125,"ha":721,"o":"m 136 0 l 136 992 l 251 992 l 251 104 l 689 104 l 689 0 l 136 0 m 459 493 q 478 550 459 532 q 526 568 497 568 q 573 549 553 568 q 592 493 592 531 q 573 436 592 455 q 526 418 553 418 q 478 436 497 418 q 459 493 459 455 "},"х":{"x_min":26.5625,"x_max":700.1875,"ha":728,"o":"m 298 380 l 40 743 l 168 743 l 364 458 l 559 743 l 686 743 l 428 380 l 700 0 l 572 0 l 364 301 l 154 0 l 26 0 l 298 380 "},"Ԋ":{"x_min":136.328125,"x_max":1279.171875,"ha":1406,"o":"m 861 263 q 898 129 861 170 q 1013 88 935 88 q 1128 129 1089 88 q 1166 262 1166 170 l 1166 575 l 1279 575 l 1279 255 q 1211 55 1279 125 q 1013 -14 1143 -14 q 813 54 881 -14 q 746 258 746 123 l 746 466 l 251 466 l 251 0 l 136 0 l 136 992 l 251 992 l 251 570 l 746 570 l 746 992 l 861 992 l 861 263 "},"ŋ":{"x_min":119.4375,"x_max":741.03125,"ha":853,"o":"m 546 -334 q 450 -317 487 -334 l 450 -225 q 533 -239 491 -239 q 628 -122 628 -239 l 628 480 q 587 616 628 571 q 457 661 545 661 q 286 598 340 661 q 232 390 232 535 l 232 0 l 119 0 l 119 743 l 210 743 l 229 641 l 236 641 q 332 727 271 697 q 468 757 393 757 q 673 692 605 757 q 741 484 741 627 l 741 -114 q 693 -276 741 -218 q 546 -334 646 -334 "},"Ỵ":{"x_min":0,"x_max":778,"ha":778,"o":"m 388 496 l 653 992 l 778 992 l 446 384 l 446 0 l 330 0 l 330 379 l 0 992 l 126 992 l 388 496 m 319 -164 q 339 -107 319 -125 q 387 -89 359 -89 q 434 -107 414 -89 q 454 -164 454 -125 q 434 -220 454 -201 q 387 -239 414 -239 q 339 -220 359 -239 q 319 -164 319 -201 "},"Ч":{"x_min":115.28125,"x_max":829.375,"ha":965,"o":"m 829 0 l 714 0 l 714 409 q 545 360 613 373 q 406 347 478 347 q 190 411 266 347 q 115 597 115 476 l 115 992 l 230 992 l 230 611 q 273 489 230 528 q 413 450 316 450 q 539 459 479 450 q 714 507 599 469 l 714 992 l 829 992 l 829 0 "},"ü":{"x_min":111.296875,"x_max":733.5625,"ha":853,"o":"m 225 743 l 225 260 q 266 125 225 169 q 396 80 308 80 q 567 144 513 80 q 620 352 620 207 l 620 743 l 733 743 l 733 0 l 640 0 l 624 99 l 618 99 q 522 15 583 44 q 382 -14 460 -14 q 178 50 246 -14 q 111 256 111 114 l 111 743 l 225 743 m 231 945 q 249 996 231 980 q 292 1012 267 1012 q 337 996 318 1012 q 355 945 355 980 q 337 894 355 911 q 292 878 318 878 q 249 894 267 878 q 231 945 231 911 m 490 945 q 508 996 490 980 q 551 1012 526 1012 q 595 996 576 1012 q 613 945 613 980 q 595 894 613 911 q 551 878 576 878 q 508 894 526 878 q 490 945 490 911 "},"ь":{"x_min":119.359375,"x_max":746.046875,"ha":822,"o":"m 231 436 l 461 436 q 746 226 746 436 q 671 58 746 116 q 454 0 597 0 l 119 0 l 119 743 l 231 743 l 231 436 m 231 339 l 231 94 l 448 94 q 585 125 538 94 q 633 219 633 156 q 589 310 633 281 q 445 339 545 339 l 231 339 "},"Җ":{"x_min":1.359375,"x_max":1209.5625,"ha":1236,"o":"m 405 510 l 15 992 l 144 992 l 530 511 l 530 992 l 641 992 l 641 511 l 1027 992 l 1156 992 l 766 511 l 1087 104 l 1209 104 l 1209 -258 l 1099 -258 l 1099 0 l 1035 0 l 641 502 l 641 0 l 530 0 l 530 502 l 136 0 l 1 0 l 405 510 "},"Ҍ":{"x_min":31.875,"x_max":779.125,"ha":851,"o":"m 31 866 l 136 866 l 136 992 l 251 992 l 251 866 l 483 866 l 483 764 l 251 764 l 251 569 l 381 569 q 779 289 779 569 q 685 73 779 146 q 408 0 591 0 l 136 0 l 136 764 l 31 764 l 31 866 m 251 98 l 401 98 q 658 289 658 98 q 596 422 658 378 q 397 465 533 465 l 251 465 l 251 98 "},"Ÿ":{"x_min":0,"x_max":778,"ha":778,"o":"m 388 496 l 653 992 l 778 992 l 446 384 l 446 0 l 330 0 l 330 379 l 0 992 l 126 992 l 388 496 m 199 1174 q 217 1225 199 1209 q 260 1241 235 1241 q 305 1225 286 1241 q 323 1174 323 1209 q 305 1123 323 1140 q 260 1107 286 1107 q 217 1123 235 1107 q 199 1174 199 1140 m 458 1174 q 476 1225 458 1209 q 519 1241 494 1241 q 563 1225 544 1241 q 581 1174 581 1209 q 563 1123 581 1140 q 519 1107 544 1107 q 476 1123 494 1107 q 458 1174 458 1140 "},"€":{"x_min":42.71875,"x_max":787.140625,"ha":819,"o":"m 539 904 q 269 631 322 904 l 614 631 l 614 543 l 259 543 l 258 504 l 258 461 l 259 431 l 573 431 l 573 343 l 270 343 q 364 154 295 221 q 548 87 433 87 q 757 131 654 87 l 757 30 q 543 -14 659 -14 q 284 77 382 -14 q 155 343 186 168 l 42 343 l 42 431 l 145 431 l 144 459 l 144 489 l 145 543 l 42 543 l 42 631 l 153 631 q 279 906 180 807 q 539 1006 378 1006 q 787 940 675 1006 l 739 845 q 539 904 626 904 "},"ҽ":{"x_min":34.609375,"x_max":844.75,"ha":916,"o":"m 571 -14 q 312 83 406 -14 q 215 351 219 180 q 34 504 34 354 q 51 585 34 551 l 147 585 q 133 512 133 553 q 205 443 133 443 l 219 443 l 223 466 q 331 679 246 603 q 540 756 416 756 q 762 666 681 756 q 844 422 844 576 l 844 351 l 331 351 q 394 150 335 216 q 569 84 452 84 q 692 95 638 84 q 812 134 746 106 l 812 34 q 699 -2 753 8 q 571 -14 646 -14 m 538 661 q 396 606 447 661 q 335 443 344 550 l 724 443 q 676 605 724 549 q 538 661 629 661 "},"в":{"x_min":119.34375,"x_max":745.921875,"ha":790,"o":"m 722 556 q 680 446 722 484 q 563 395 638 408 l 563 389 q 702 334 658 376 q 745 216 745 291 q 669 56 745 112 q 446 0 593 0 l 119 0 l 119 743 l 445 743 q 722 556 722 743 m 633 223 q 587 311 633 284 q 436 339 541 339 l 231 339 l 231 94 l 438 94 q 633 223 633 94 m 612 545 q 570 622 612 599 q 444 645 528 645 l 231 645 l 231 436 l 422 436 q 569 461 526 436 q 612 545 612 487 "},"Η":{"x_min":136.34375,"x_max":889.328125,"ha":1025,"o":"m 889 0 l 774 0 l 774 466 l 251 466 l 251 0 l 136 0 l 136 992 l 251 992 l 251 570 l 774 570 l 774 992 l 889 992 l 889 0 "},"С":{"x_min":84.75,"x_max":834.640625,"ha":876,"o":"m 560 902 q 302 793 397 902 q 208 495 208 685 q 299 194 208 300 q 559 88 390 88 q 796 125 663 88 l 796 24 q 541 -14 692 -14 q 203 119 322 -14 q 84 497 84 252 q 142 765 84 650 q 307 943 199 881 q 562 1006 415 1006 q 834 949 718 1006 l 785 850 q 560 902 673 902 "},"ß":{"x_min":119.359375,"x_max":800.25,"ha":864,"o":"m 711 858 q 614 689 711 767 q 535 618 554 641 q 516 573 516 596 q 525 537 516 551 q 559 504 535 523 q 636 450 583 484 q 765 332 731 385 q 800 210 800 279 q 734 44 800 102 q 547 -14 668 -14 q 347 33 419 -14 l 347 138 q 442 95 389 111 q 544 78 495 78 q 690 202 690 78 q 662 289 690 253 q 559 373 634 325 q 440 470 473 429 q 408 569 408 512 q 431 648 408 612 q 503 720 455 684 q 575 789 554 759 q 597 856 597 820 q 551 939 597 910 q 419 968 505 968 q 231 816 231 968 l 231 0 l 119 0 l 119 815 q 193 999 119 936 q 419 1063 268 1063 q 635 1009 558 1063 q 711 858 711 956 "},"њ":{"x_min":119.375,"x_max":1153,"ha":1231,"o":"m 694 742 l 694 434 l 868 434 q 1084 382 1015 434 q 1153 226 1153 330 q 858 0 1153 0 l 576 0 l 576 335 l 236 335 l 236 0 l 119 0 l 119 742 l 236 742 l 236 432 l 579 432 l 579 742 l 694 742 m 691 339 l 691 94 l 854 94 q 1041 219 1041 94 q 998 310 1041 282 q 851 339 954 339 l 691 339 "},"Ể":{"x_min":136.40625,"x_max":732.796875,"ha":773,"o":"m 689 0 l 136 0 l 136 992 l 689 992 l 689 889 l 251 889 l 251 570 l 663 570 l 663 468 l 251 468 l 251 103 l 689 103 l 689 0 m 618 1071 l 555 1071 q 412 1183 479 1121 q 268 1071 334 1115 l 205 1071 l 205 1087 l 241 1128 q 352 1264 317 1211 l 471 1264 q 618 1087 516 1200 l 618 1071 m 732 1344 q 646 1255 732 1274 l 642 1200 l 588 1200 l 581 1288 q 641 1305 620 1295 q 662 1342 662 1316 q 643 1376 662 1367 q 595 1384 624 1384 q 546 1380 563 1384 l 546 1434 q 600 1439 563 1439 q 732 1344 732 1439 "},"Ӓ":{"x_min":0,"x_max":879,"ha":879,"o":"m 759 0 l 636 315 l 238 315 l 116 0 l 0 0 l 392 996 l 489 996 l 879 0 l 759 0 m 600 419 l 484 726 q 438 869 462 784 q 396 726 423 804 l 279 419 l 600 419 m 250 1174 q 268 1225 250 1209 q 311 1241 286 1241 q 356 1225 337 1241 q 374 1174 374 1209 q 356 1123 374 1140 q 311 1107 337 1107 q 268 1123 286 1107 q 250 1174 250 1140 m 509 1174 q 527 1225 509 1209 q 570 1241 545 1241 q 614 1225 595 1241 q 632 1174 632 1209 q 614 1123 632 1140 q 570 1107 595 1107 q 527 1123 545 1107 q 509 1174 509 1140 "},"ẳ":{"x_min":63.796875,"x_max":660.34375,"ha":773,"o":"m 576 0 l 554 105 l 549 105 q 438 10 493 35 q 299 -14 382 -14 q 126 43 189 -14 q 63 205 63 100 q 424 441 63 431 l 550 446 l 550 492 q 512 621 550 579 q 392 663 475 663 q 181 606 299 663 l 147 692 q 267 739 202 722 q 399 756 333 756 q 596 696 532 756 q 660 507 660 637 l 660 0 l 576 0 m 322 78 q 487 136 427 78 q 547 298 547 194 l 547 365 l 435 361 q 241 319 300 356 q 181 204 181 282 q 218 110 181 142 q 322 78 255 78 m 488 1124 q 402 1036 488 1056 l 398 1009 l 343 1009 l 336 1070 q 397 1087 375 1076 q 419 1123 419 1097 q 400 1156 419 1148 q 351 1165 381 1165 q 301 1161 326 1165 l 301 1214 q 358 1220 316 1220 q 488 1124 488 1220 m 387 842 q 190 1018 200 842 l 259 1018 q 291 950 265 969 q 389 930 317 930 q 484 952 455 930 q 519 1018 514 974 l 590 1018 q 532 889 583 936 q 387 842 482 842 "},"Ű":{"x_min":126.125,"x_max":884.875,"ha":1011,"o":"m 884 992 l 884 349 q 782 83 884 180 q 501 -14 680 -14 q 224 83 322 -14 q 126 352 126 181 l 126 992 l 241 992 l 241 344 q 309 153 241 220 q 508 87 377 87 q 701 153 633 87 q 769 345 769 220 l 769 992 l 884 992 m 309 1087 q 371 1183 334 1120 q 429 1293 408 1246 l 556 1293 l 556 1278 q 472 1169 530 1236 q 375 1071 414 1103 l 309 1071 l 309 1087 m 551 1087 q 619 1193 585 1133 q 671 1293 653 1253 l 797 1293 l 797 1278 q 714 1169 772 1236 q 617 1071 656 1103 l 551 1071 l 551 1087 "},"c":{"x_min":77.96875,"x_max":614.90625,"ha":661,"o":"m 416 -14 q 166 85 254 -14 q 77 366 77 184 q 167 655 77 553 q 423 757 257 757 q 530 745 477 757 q 614 718 584 733 l 580 622 q 498 647 543 637 q 421 657 454 657 q 194 368 194 657 q 249 157 194 230 q 413 84 305 84 q 604 124 506 84 l 604 24 q 416 -14 529 -14 "},"¶":{"x_min":76.6875,"x_max":760.03125,"ha":910,"o":"m 760 -176 l 682 -176 l 682 984 l 538 984 l 538 -176 l 460 -176 l 460 379 q 361 367 418 367 q 145 451 214 367 q 76 706 76 536 q 150 968 76 882 q 382 1055 224 1055 l 760 1055 l 760 -176 "},"Ή":{"x_min":-29.3125,"x_max":991.328125,"ha":1127,"o":"m 991 0 l 876 0 l 876 466 l 353 466 l 353 0 l 238 0 l 238 992 l 353 992 l 353 570 l 876 570 l 876 992 l 991 992 l 991 0 m -29 790 q 6 916 -11 839 q 33 1049 24 993 l 157 1049 l 157 1033 q 108 902 145 983 q 38 771 71 822 l -29 771 l -29 790 "},"Ὅ":{"x_min":-196,"x_max":1011.203125,"ha":1097,"o":"m 1011 496 q 890 122 1011 258 q 556 -14 770 -14 q 217 119 336 -14 q 98 498 98 253 q 218 873 98 740 q 557 1007 337 1007 q 891 871 771 1007 q 1011 496 1011 735 m 220 496 q 306 191 220 295 q 556 87 392 87 q 805 190 720 87 q 889 496 889 294 q 805 800 889 696 q 557 903 721 903 q 306 799 392 903 q 220 496 220 695 m -6 786 q 60 992 41 909 l 188 992 l 188 978 q 120 867 160 925 q 46 770 79 808 l -6 770 l -6 786 m -196 849 q -35 1002 -196 960 l -35 953 q -117 889 -117 925 q -106 869 -117 875 q -83 857 -96 862 q -60 843 -71 851 q -50 815 -50 834 q -113 765 -50 765 q -173 788 -150 765 q -196 849 -196 811 "},"Ụ":{"x_min":126.125,"x_max":884.875,"ha":1011,"o":"m 884 992 l 884 349 q 782 83 884 180 q 501 -14 680 -14 q 224 83 322 -14 q 126 352 126 181 l 126 992 l 241 992 l 241 344 q 309 153 241 220 q 508 87 377 87 q 701 153 633 87 q 769 345 769 220 l 769 992 l 884 992 m 437 -164 q 457 -107 437 -125 q 505 -89 477 -89 q 552 -107 532 -89 q 572 -164 572 -125 q 552 -220 572 -201 q 505 -239 532 -239 q 457 -220 477 -239 q 437 -164 437 -201 "},"γ":{"x_min":6.78125,"x_max":703.546875,"ha":711,"o":"m 360 -334 l 238 -334 q 260 -169 238 -268 q 311 7 281 -69 l 6 743 l 123 743 l 286 347 q 362 118 349 187 l 368 118 q 385 186 371 138 q 413 278 399 234 q 586 743 428 322 l 703 743 l 429 17 q 378 -165 396 -66 q 360 -334 360 -264 "},"­":{"x_min":56.984375,"x_max":390.015625,"ha":447,"o":"m 56 320 l 56 424 l 390 424 l 390 320 l 56 320 "},"ѫ":{"x_min":8.140625,"x_max":881.828125,"ha":892,"o":"m 788 743 l 788 671 l 559 433 q 656 411 618 428 q 718 368 693 395 q 760 305 743 341 q 881 0 776 270 l 765 0 l 674 227 q 632 310 651 286 q 584 344 612 334 q 503 353 555 353 l 497 353 l 497 0 l 393 0 l 393 353 l 385 353 q 307 344 335 353 q 260 314 279 336 q 215 228 241 292 l 123 0 l 8 0 l 97 227 q 129 304 113 269 q 170 366 145 340 q 232 410 195 393 q 328 433 269 427 l 101 671 l 101 743 l 788 743 m 644 648 l 245 648 l 444 431 l 644 648 "},":":{"x_min":103.1875,"x_max":266.640625,"ha":370,"o":"m 103 71 q 123 140 103 117 q 183 163 144 163 q 244 140 222 163 q 266 71 266 117 q 244 3 266 27 q 183 -20 221 -20 q 125 1 148 -20 q 103 71 103 22 m 103 670 q 183 762 103 762 q 266 670 266 762 q 244 602 266 626 q 183 578 221 578 q 125 600 148 578 q 103 670 103 621 "},"Ѝ":{"x_min":137.71875,"x_max":924,"ha":1059,"o":"m 137 992 l 245 992 l 245 440 q 236 164 245 287 l 241 164 l 797 992 l 924 992 l 924 0 l 815 0 l 815 546 q 827 832 815 682 l 820 832 l 263 0 l 137 0 l 137 992 m 604 1071 l 529 1071 q 425 1171 485 1106 q 337 1278 364 1236 l 337 1293 l 475 1293 q 535 1185 497 1246 q 604 1087 574 1123 l 604 1071 "},"₫":{"x_min":77.984375,"x_max":837.4375,"ha":851,"o":"m 625 99 l 619 99 q 385 -14 541 -14 q 159 85 240 -14 q 77 369 77 185 q 159 655 77 553 q 385 757 240 757 q 617 647 537 757 l 626 647 q 619 752 619 703 l 619 842 l 315 842 l 315 930 l 619 930 l 619 1055 l 731 1055 l 731 930 l 837 930 l 837 842 l 731 842 l 731 0 l 640 0 l 625 99 m 400 80 q 567 143 515 80 q 619 345 619 205 l 619 369 q 566 595 619 527 q 398 662 513 662 q 247 585 299 662 q 194 368 194 508 q 246 152 194 225 q 400 80 299 80 m 747 -213 l 119 -213 l 119 -125 l 747 -125 l 747 -213 "},"ś":{"x_min":71.9375,"x_max":599.203125,"ha":663,"o":"m 599 202 q 521 42 599 98 q 304 -14 444 -14 q 73 33 156 -14 l 73 138 q 189 94 127 110 q 307 78 250 78 q 443 107 395 78 q 490 193 490 135 q 453 267 490 236 q 306 340 415 298 q 158 407 202 378 q 93 473 114 436 q 71 560 71 509 q 145 704 71 651 q 348 757 219 757 q 583 708 468 757 l 543 616 q 340 662 431 662 q 219 637 260 662 q 179 568 179 612 q 194 517 179 538 q 243 477 209 496 q 373 422 277 458 q 552 325 506 374 q 599 202 599 276 m 251 858 q 321 960 284 900 q 381 1064 359 1020 l 518 1064 l 518 1049 q 429 941 488 1005 q 326 842 370 877 l 251 842 l 251 858 "},"ӄ":{"x_min":119.3125,"x_max":716.578125,"ha":762,"o":"m 230 0 l 119 0 l 119 743 l 230 743 l 230 391 l 557 743 l 682 743 l 372 416 q 631 317 545 413 q 716 40 716 220 q 679 -165 716 -79 q 572 -295 642 -250 q 413 -340 503 -340 q 256 -299 321 -340 l 256 -200 q 324 -230 288 -217 q 409 -243 361 -243 q 552 -170 500 -243 q 604 38 604 -96 q 540 251 604 181 q 348 321 477 321 q 230 305 292 321 l 230 0 "}," ":{"x_min":0,"x_max":0,"ha":361},"У":{"x_min":18.3125,"x_max":863,"ha":863,"o":"m 198 -14 q 66 6 123 -14 l 66 118 q 194 89 129 89 q 314 124 269 89 q 404 252 359 158 l 18 992 l 145 992 l 438 427 q 465 362 455 394 l 470 362 q 497 434 489 419 l 740 992 l 863 992 l 546 281 q 443 97 489 155 q 340 12 397 39 q 198 -14 282 -14 "},"ү":{"x_min":0,"x_max":696,"ha":696,"o":"m 404 -334 l 291 -334 l 291 -3 l 0 743 l 116 743 l 276 327 q 345 110 333 176 l 351 110 q 421 327 373 204 l 579 743 l 696 743 l 404 -3 l 404 -334 "},"¾":{"x_min":17.375,"x_max":1064.125,"ha":1083,"o":"m 420 850 q 392 761 420 796 q 318 711 364 726 q 437 569 437 679 q 375 434 437 482 q 199 386 312 386 q 17 423 96 386 l 17 507 q 200 461 117 461 q 343 571 343 461 q 186 669 343 669 l 107 669 l 107 742 l 188 742 q 291 768 258 742 q 325 841 325 795 q 298 905 325 882 q 225 928 270 928 q 142 914 180 928 q 66 875 104 899 l 20 936 q 110 985 62 967 q 221 1004 157 1004 q 366 963 313 1004 q 420 850 420 923 m 942 992 l 330 0 l 233 0 l 845 992 l 942 992 m 1064 137 l 979 137 l 979 0 l 881 0 l 881 137 l 608 137 l 608 206 l 885 599 l 979 599 l 979 217 l 1064 217 l 1064 137 m 881 217 l 881 349 q 885 491 881 440 q 873 469 881 483 q 855 441 865 456 q 834 410 845 426 q 817 383 824 395 l 703 217 l 881 217 "},"Ί":{"x_min":-19.3125,"x_max":366.53125,"ha":503,"o":"m 251 0 l 251 992 l 366 992 l 366 0 l 251 0 m -19 790 q 16 916 -1 839 q 43 1049 34 993 l 167 1049 l 167 1033 q 118 902 155 983 q 48 771 81 822 l -19 771 l -19 790 "},"ŉ":{"x_min":0.953125,"x_max":833.03125,"ha":946,"o":"m 720 0 l 720 480 q 679 616 720 571 q 549 661 637 661 q 378 598 432 661 q 324 390 324 535 l 324 0 l 211 0 l 211 743 l 302 743 l 321 641 l 326 641 q 423 726 361 696 q 562 757 486 757 q 765 692 697 757 q 833 485 833 627 l 833 0 l 720 0 m 193 992 l 203 977 q 152 819 186 909 q 83 652 119 729 l 0 652 q 70 992 48 845 l 193 992 "},"⁶":{"x_min":27.796875,"x_max":456.921875,"ha":482,"o":"m 27 653 q 102 916 27 830 q 324 1003 176 1003 q 408 992 374 1003 l 408 915 q 316 927 372 927 q 170 875 221 927 q 112 711 119 824 l 117 711 q 175 760 137 740 q 271 781 214 781 q 406 730 356 781 q 456 595 456 680 q 400 441 456 497 q 248 386 344 386 q 86 457 145 386 q 27 653 27 528 m 247 461 q 335 492 302 461 q 369 591 369 524 q 339 676 369 645 q 251 707 309 707 q 155 676 193 707 q 118 605 118 645 q 153 503 118 545 q 247 461 189 461 "},"Ѭ":{"x_min":136.3125,"x_max":1348.9375,"ha":1353,"o":"m 1256 992 l 1256 901 l 972 563 q 1105 535 1053 559 q 1191 462 1157 510 q 1256 307 1226 413 l 1348 0 l 1235 0 l 1141 310 q 1096 414 1120 380 q 1037 461 1072 447 q 937 475 1001 475 l 921 475 l 921 0 l 804 0 l 804 475 l 787 475 q 689 461 723 475 q 633 415 655 447 q 588 310 611 383 l 497 0 l 376 0 l 467 302 q 543 466 505 427 l 251 466 l 251 0 l 136 0 l 136 992 l 251 992 l 251 570 l 744 570 l 467 901 l 467 992 l 1256 992 m 1119 888 l 605 888 l 862 578 l 1119 888 "},"Ģ":{"x_min":84.765625,"x_max":909.296875,"ha":1011,"o":"m 572 519 l 909 519 l 909 36 q 749 -1 830 11 q 560 -14 667 -14 q 210 120 335 -14 q 84 495 84 254 q 146 766 84 650 q 325 944 208 883 q 598 1006 442 1006 q 894 947 757 1006 l 849 845 q 591 902 715 902 q 308 794 410 902 q 206 495 206 687 q 304 190 206 294 q 592 87 402 87 q 794 110 695 87 l 794 415 l 572 415 l 572 519 m 450 -290 q 486 -183 469 -246 q 508 -85 504 -120 l 622 -85 l 622 -97 q 582 -197 615 -131 q 511 -307 548 -262 l 450 -307 l 450 -290 "},"m":{"x_min":119.359375,"x_max":1179.421875,"ha":1292,"o":"m 1066 0 l 1066 483 q 1028 616 1066 572 q 910 661 990 661 q 755 601 805 661 q 705 415 705 540 l 705 0 l 592 0 l 592 483 q 554 616 592 572 q 436 661 516 661 q 281 597 330 661 q 231 390 231 534 l 231 0 l 119 0 l 119 743 l 210 743 l 229 642 l 234 642 q 324 726 266 696 q 454 757 382 757 q 682 631 628 757 l 687 631 q 784 723 720 689 q 927 757 847 757 q 1116 692 1053 757 q 1179 485 1179 627 l 1179 0 l 1066 0 "},"Ị":{"x_min":125.140625,"x_max":260.109375,"ha":387,"o":"m 136 0 l 136 992 l 251 992 l 251 0 l 136 0 m 125 -164 q 145 -107 125 -125 q 193 -89 165 -89 q 240 -107 220 -89 q 260 -164 260 -125 q 240 -220 260 -201 q 193 -239 220 -239 q 145 -220 165 -239 q 125 -164 125 -201 "},"Ҏ":{"x_min":136.25,"x_max":776.140625,"ha":848,"o":"m 776 702 q 737 548 776 616 q 624 441 698 480 l 706 335 l 638 278 l 537 408 q 376 390 468 390 l 251 390 l 251 0 l 136 0 l 136 992 l 402 992 q 682 919 588 992 q 776 702 776 846 m 251 489 l 364 489 q 474 495 423 489 l 401 591 l 474 647 l 569 527 q 655 697 655 576 q 589 844 655 795 q 387 892 523 892 l 251 892 l 251 489 "},"Е":{"x_min":136.40625,"x_max":689.53125,"ha":773,"o":"m 689 0 l 136 0 l 136 992 l 689 992 l 689 889 l 251 889 l 251 570 l 663 570 l 663 468 l 251 468 l 251 103 l 689 103 l 689 0 "},"ž":{"x_min":55.640625,"x_max":595.046875,"ha":650,"o":"m 595 0 l 55 0 l 55 76 l 461 655 l 80 655 l 80 743 l 584 743 l 584 655 l 184 87 l 595 87 l 595 0 m 98 1064 l 176 1064 q 325 936 254 1014 q 475 1064 413 1024 l 555 1064 l 555 1047 l 511 1001 q 382 842 413 900 l 269 842 q 219 912 254 869 q 98 1047 184 955 l 98 1064 "},"⁵":{"x_min":40,"x_max":439.96875,"ha":482,"o":"m 222 765 q 380 716 320 765 q 439 584 439 668 q 382 437 439 489 q 212 385 324 385 q 114 395 162 385 q 40 421 67 406 l 40 510 q 125 474 77 487 q 209 461 172 461 q 311 489 273 461 q 348 578 348 517 q 311 660 348 630 q 205 690 274 690 q 140 684 166 690 q 94 673 115 678 l 54 701 l 76 983 l 412 983 l 412 912 l 153 912 l 140 756 q 222 765 182 765 "},"ớ":{"x_min":78.015625,"x_max":885.3125,"ha":846,"o":"m 761 372 q 669 88 761 190 q 416 -14 578 -14 q 239 32 316 -14 q 120 167 162 79 q 78 372 78 254 q 168 655 78 554 q 421 757 259 757 q 661 661 568 757 q 715 693 696 671 q 744 748 735 715 q 753 857 753 782 l 875 857 l 885 841 q 823 676 864 735 q 713 591 782 617 q 761 372 761 497 m 194 372 q 248 154 194 228 q 419 80 301 80 q 591 154 538 80 q 644 372 644 228 q 590 588 644 514 q 417 661 536 661 q 247 588 300 661 q 194 372 194 514 m 340 858 q 410 960 373 900 q 470 1064 448 1020 l 607 1064 l 607 1049 q 518 941 577 1005 q 415 842 459 877 l 340 842 l 340 858 "},"á":{"x_min":63.796875,"x_max":660.34375,"ha":773,"o":"m 576 0 l 554 105 l 549 105 q 438 10 493 35 q 299 -14 382 -14 q 126 43 189 -14 q 63 205 63 100 q 424 441 63 431 l 550 446 l 550 492 q 512 621 550 579 q 392 663 475 663 q 181 606 299 663 l 147 692 q 267 739 202 722 q 399 756 333 756 q 596 696 532 756 q 660 507 660 637 l 660 0 l 576 0 m 322 78 q 487 136 427 78 q 547 298 547 194 l 547 365 l 435 361 q 241 319 300 356 q 181 204 181 282 q 218 110 181 142 q 322 78 255 78 m 295 858 q 365 960 328 900 q 425 1064 403 1020 l 562 1064 l 562 1049 q 473 941 532 1005 q 370 842 414 877 l 295 842 l 295 858 "},"Ӻ":{"x_min":31.890625,"x_max":700.109375,"ha":732,"o":"m 700 992 l 700 888 l 251 888 l 251 542 l 539 542 l 539 440 l 251 440 l 251 0 l 136 0 l 136 440 l 31 440 l 31 542 l 136 542 l 136 992 l 700 992 m 350 104 l 350 -91 q 195 -268 350 -268 q 116 -251 157 -268 l 116 -156 q 186 -169 144 -169 q 250 -101 250 -169 l 250 104 l 350 104 "},"×":{"x_min":90.1875,"x_max":702.46875,"ha":794,"o":"m 637 797 l 702 730 l 463 490 l 701 251 l 636 184 l 395 422 l 160 184 l 91 251 l 328 490 l 90 729 l 158 797 l 397 556 l 637 797 "},"Ӱ":{"x_min":18.3125,"x_max":863,"ha":863,"o":"m 198 -14 q 66 6 123 -14 l 66 118 q 194 89 129 89 q 314 124 269 89 q 404 252 359 158 l 18 992 l 145 992 l 438 427 q 465 362 455 394 l 470 362 q 497 434 489 419 l 740 992 l 863 992 l 546 281 q 443 97 489 155 q 340 12 397 39 q 198 -14 282 -14 m 249 1174 q 267 1225 249 1209 q 310 1241 285 1241 q 355 1225 336 1241 q 373 1174 373 1209 q 355 1123 373 1140 q 310 1107 336 1107 q 267 1123 285 1107 q 249 1174 249 1140 m 508 1174 q 526 1225 508 1209 q 569 1241 544 1241 q 613 1225 594 1241 q 631 1174 631 1209 q 613 1123 631 1140 q 569 1107 594 1107 q 526 1123 544 1107 q 508 1174 508 1140 "},"ӆ":{"x_min":10.84375,"x_max":791.28125,"ha":794,"o":"m 671 96 l 791 96 l 703 -256 l 587 -256 l 671 0 l 559 0 l 559 645 l 334 645 q 284 261 315 401 q 200 57 252 122 q 69 -8 149 -8 q 10 -1 29 -8 l 10 84 q 44 80 25 80 q 167 241 121 80 q 237 742 214 401 l 671 742 l 671 96 "},"п":{"x_min":119.40625,"x_max":743.59375,"ha":863,"o":"m 231 0 l 119 0 l 119 743 l 743 743 l 743 0 l 629 0 l 629 645 l 231 645 l 231 0 "},"Ǻ":{"x_min":0,"x_max":882,"ha":882,"o":"m 591 970 q 521 842 591 880 l 882 0 l 763 0 l 644 272 l 230 272 l 118 0 l 0 0 l 360 840 q 289 968 289 876 q 330 1075 289 1036 q 438 1114 371 1114 q 549 1074 506 1114 q 591 970 591 1034 m 609 377 l 489 669 q 440 807 472 709 q 414 729 430 774 q 392 667 398 683 l 272 377 l 609 377 m 375 1161 q 443 1251 408 1201 q 493 1331 477 1302 l 630 1331 l 630 1320 q 552 1234 609 1288 q 450 1149 495 1179 l 375 1149 l 375 1161 m 518 968 q 495 1027 518 1006 q 438 1047 473 1047 q 381 1027 404 1047 q 359 968 359 1006 q 379 910 359 930 q 438 889 400 889 q 496 910 474 889 q 518 968 518 930 "},"K":{"x_min":136.40625,"x_max":853,"ha":853,"o":"m 853 0 l 717 0 l 355 481 l 251 388 l 251 0 l 136 0 l 136 992 l 251 992 l 251 500 l 701 992 l 838 992 l 439 561 l 853 0 "},"7":{"x_min":63.734375,"x_max":723.484375,"ha":794,"o":"m 193 0 l 604 888 l 63 888 l 63 992 l 723 992 l 723 901 l 318 0 l 193 0 "},"¨":{"x_min":209.65625,"x_max":591.65625,"ha":802,"o":"m 209 945 q 227 996 209 980 q 270 1012 245 1012 q 315 996 296 1012 q 333 945 333 980 q 315 894 333 911 q 270 878 296 878 q 227 894 245 878 q 209 945 209 911 m 468 945 q 486 996 468 980 q 529 1012 504 1012 q 573 996 554 1012 q 591 945 591 980 q 573 894 591 911 q 529 878 554 878 q 486 894 504 878 q 468 945 468 911 "},"Y":{"x_min":0,"x_max":778,"ha":778,"o":"m 388 496 l 653 992 l 778 992 l 446 384 l 446 0 l 330 0 l 330 379 l 0 992 l 126 992 l 388 496 "},"E":{"x_min":136.40625,"x_max":689.53125,"ha":773,"o":"m 689 0 l 136 0 l 136 992 l 689 992 l 689 889 l 251 889 l 251 570 l 663 570 l 663 468 l 251 468 l 251 103 l 689 103 l 689 0 "},"Ô":{"x_min":84.796875,"x_max":997.203125,"ha":1082,"o":"m 997 496 q 876 122 997 258 q 542 -14 756 -14 q 203 119 322 -14 q 84 498 84 253 q 204 873 84 740 q 543 1007 323 1007 q 877 871 757 1007 q 997 496 997 735 m 206 496 q 292 191 206 295 q 542 87 378 87 q 791 190 706 87 q 875 496 875 294 q 791 800 875 696 q 543 903 707 903 q 292 799 378 903 q 206 496 206 695 m 303 1086 q 424 1221 389 1178 q 474 1293 459 1265 l 587 1293 q 639 1219 602 1264 q 760 1086 676 1174 l 760 1071 l 680 1071 q 530 1196 620 1108 q 381 1071 438 1106 l 303 1071 l 303 1086 "},"ổ":{"x_min":78,"x_max":761,"ha":839,"o":"m 761 372 q 669 88 761 190 q 416 -14 577 -14 q 239 32 316 -14 q 120 167 162 79 q 78 372 78 254 q 168 655 78 554 q 421 757 259 757 q 669 653 577 757 q 761 372 761 549 m 194 372 q 251 154 194 229 q 419 80 308 80 q 587 154 529 80 q 644 372 644 228 q 587 587 644 514 q 417 661 529 661 q 250 588 307 661 q 194 372 194 516 m 624 842 l 561 842 q 418 954 485 892 q 274 842 340 886 l 211 842 l 211 858 l 247 899 q 358 1035 323 982 l 477 1035 q 624 858 522 971 l 624 842 m 738 1115 q 652 1026 738 1045 l 648 971 l 594 971 l 587 1059 q 647 1076 626 1066 q 668 1113 668 1087 q 649 1147 668 1138 q 601 1155 630 1155 q 552 1151 569 1155 l 552 1205 q 606 1210 569 1210 q 738 1115 738 1210 "},"Є":{"x_min":84.796875,"x_max":848.65625,"ha":888,"o":"m 565 902 q 321 817 412 902 q 209 569 229 732 l 700 569 l 700 467 l 206 467 q 304 184 213 281 q 563 88 394 88 q 809 125 673 88 l 809 24 q 547 -14 700 -14 q 203 117 322 -14 q 84 496 84 249 q 212 870 84 734 q 567 1007 340 1007 q 848 947 727 1007 l 800 846 q 565 902 685 902 "},"Ï":{"x_min":3.65625,"x_max":385.65625,"ha":387,"o":"m 136 0 l 136 992 l 251 992 l 251 0 l 136 0 m 3 1174 q 21 1225 3 1209 q 64 1241 39 1241 q 109 1225 90 1241 q 127 1174 127 1209 q 109 1123 127 1140 q 64 1107 90 1107 q 21 1123 39 1107 q 3 1174 3 1140 m 262 1174 q 280 1225 262 1209 q 323 1241 298 1241 q 367 1225 348 1241 q 385 1174 385 1209 q 367 1123 385 1140 q 323 1107 348 1107 q 280 1123 298 1107 q 262 1174 262 1140 "},"Ѷ":{"x_min":0,"x_max":916.46875,"ha":869,"o":"m 846 905 q 780 870 806 905 q 715 712 753 835 l 492 0 l 359 0 l 0 992 l 122 992 l 351 355 q 423 123 399 220 q 492 372 445 221 l 602 723 q 671 904 642 852 q 736 977 699 955 q 834 1000 774 1000 q 916 987 862 1000 l 916 891 q 846 905 878 905 m 614 1071 l 549 1071 q 454 1167 514 1099 q 369 1278 394 1236 l 369 1293 l 495 1293 q 548 1192 514 1251 q 614 1087 581 1133 l 614 1071 m 373 1071 l 308 1071 q 211 1168 270 1100 q 127 1278 152 1236 l 127 1293 l 254 1293 q 306 1192 273 1251 q 373 1087 340 1133 l 373 1071 "},"ġ":{"x_min":26.453125,"x_max":727.765625,"ha":761,"o":"m 727 743 l 727 671 l 590 655 q 624 593 609 631 q 638 507 638 555 q 564 333 638 398 q 359 268 489 268 q 297 273 326 268 q 225 177 225 235 q 250 132 225 147 q 336 118 275 118 l 467 118 q 653 67 588 118 q 718 -80 718 16 q 619 -269 718 -204 q 330 -334 520 -334 q 105 -279 184 -334 q 26 -126 26 -225 q 69 -8 26 -58 q 191 58 113 40 q 144 98 163 71 q 124 161 124 125 q 146 232 124 202 q 215 291 168 263 q 121 372 157 315 q 84 502 84 429 q 158 690 84 624 q 365 757 231 757 q 470 743 423 757 l 727 743 m 134 -124 q 185 -216 134 -185 q 331 -247 236 -247 q 541 -205 473 -247 q 609 -90 609 -162 q 572 -6 609 -29 q 432 16 535 16 l 297 16 q 177 -19 220 16 q 134 -124 134 -56 m 196 505 q 240 387 196 427 q 362 347 284 347 q 527 507 527 347 q 360 674 527 674 q 238 632 281 674 q 196 505 196 589 m 304 944 q 323 1001 304 983 q 371 1019 342 1019 q 418 1000 398 1019 q 437 944 437 982 q 418 887 437 906 q 371 869 398 869 q 323 887 342 869 q 304 944 304 906 "},"Ẳ":{"x_min":0,"x_max":879,"ha":879,"o":"m 759 0 l 636 315 l 238 315 l 116 0 l 0 0 l 392 996 l 489 996 l 879 0 l 759 0 m 600 419 l 484 726 q 438 869 462 784 q 396 726 423 804 l 279 419 l 600 419 m 538 1353 q 452 1265 538 1285 l 448 1238 l 393 1238 l 386 1299 q 447 1316 425 1305 q 469 1352 469 1326 q 450 1385 469 1377 q 401 1394 431 1394 q 351 1390 376 1394 l 351 1443 q 408 1449 366 1449 q 538 1353 538 1449 m 437 1071 q 240 1247 250 1071 l 309 1247 q 341 1179 315 1198 q 439 1159 367 1159 q 534 1181 505 1159 q 569 1247 564 1203 l 640 1247 q 582 1118 633 1165 q 437 1071 532 1071 "},"ҕ":{"x_min":119.359375,"x_max":690.34375,"ha":729,"o":"m 394 -340 q 227 -299 296 -340 l 227 -198 q 389 -240 306 -240 q 526 -172 480 -240 q 572 41 572 -104 q 511 263 572 192 q 328 333 451 333 q 231 322 282 333 l 231 0 l 119 0 l 119 743 l 571 743 l 571 646 l 231 646 l 231 423 q 327 432 287 432 q 601 336 512 432 q 690 40 690 240 q 613 -240 690 -140 q 394 -340 535 -340 "},"ứ":{"x_min":111.265625,"x_max":970.0625,"ha":924,"o":"m 225 742 l 225 260 q 266 125 225 169 q 396 80 307 80 q 566 144 512 80 q 620 352 620 207 l 620 742 l 733 742 l 733 659 q 814 710 788 667 q 839 859 839 754 l 959 859 l 970 843 q 888 652 948 717 q 733 577 828 587 l 733 0 l 640 0 l 624 99 l 618 99 q 521 14 582 43 q 384 -14 459 -14 q 179 50 246 -14 q 111 256 111 114 l 111 742 l 225 742 m 348 858 q 418 960 381 900 q 478 1064 456 1020 l 615 1064 l 615 1049 q 526 941 585 1005 q 423 842 467 877 l 348 842 l 348 858 "},"έ":{"x_min":61.046875,"x_max":612.515625,"ha":660,"o":"m 485 435 l 485 339 l 384 339 q 173 206 173 339 q 223 112 173 145 q 372 78 273 78 q 485 92 429 78 q 609 137 541 105 l 609 36 q 366 -14 516 -14 q 142 43 224 -14 q 61 201 61 100 q 98 312 61 267 q 223 384 135 356 l 223 392 q 121 454 157 411 q 84 559 84 497 q 160 703 84 649 q 366 757 236 757 q 488 745 432 757 q 612 704 544 734 l 569 613 q 461 651 506 642 q 364 661 417 661 q 194 551 194 661 q 409 435 194 435 l 485 435 m 306 861 q 342 987 325 910 q 369 1120 360 1064 l 493 1120 l 493 1104 q 444 973 481 1054 q 374 842 407 893 l 306 842 l 306 861 "},"Ấ":{"x_min":0,"x_max":879,"ha":879,"o":"m 759 0 l 636 315 l 238 315 l 116 0 l 0 0 l 392 996 l 489 996 l 879 0 l 759 0 m 600 419 l 484 726 q 438 869 462 784 q 396 726 423 804 l 279 419 l 600 419 m 645 1071 l 582 1071 q 439 1183 506 1121 q 295 1071 361 1115 l 232 1071 l 232 1087 l 268 1128 q 379 1264 344 1211 l 498 1264 q 645 1087 543 1200 l 645 1071 m 591 1219 q 677 1357 641 1281 l 794 1357 l 794 1342 q 656 1203 738 1268 l 591 1203 l 591 1219 "}," ":{"x_min":0,"x_max":0,"ha":463},"ể":{"x_min":77.96875,"x_max":713.796875,"ha":779,"o":"m 433 -14 q 173 86 268 -14 q 77 365 77 186 q 166 651 77 545 q 404 757 254 757 q 625 665 543 757 q 706 422 706 573 l 706 351 l 194 351 q 260 152 198 220 q 437 84 323 84 q 674 134 557 84 l 674 34 q 561 -2 614 8 q 433 -14 508 -14 m 402 662 q 260 604 313 662 q 197 443 206 546 l 585 443 q 538 606 585 549 q 402 662 490 662 m 599 842 l 536 842 q 393 954 460 892 q 249 842 315 886 l 186 842 l 186 858 l 222 899 q 333 1035 298 982 l 452 1035 q 599 858 497 971 l 599 842 m 713 1115 q 627 1026 713 1045 l 623 971 l 569 971 l 562 1059 q 622 1076 601 1066 q 643 1113 643 1087 q 624 1147 643 1138 q 576 1155 605 1155 q 527 1151 544 1155 l 527 1205 q 581 1210 544 1210 q 713 1115 713 1210 "},"ϋ":{"x_min":111.265625,"x_max":771.375,"ha":846,"o":"m 425 -14 q 189 70 268 -14 q 111 336 111 155 l 111 743 l 223 743 l 223 341 q 277 145 223 211 q 434 78 331 78 q 602 159 548 78 q 657 410 657 240 q 647 574 657 498 q 615 743 638 650 l 727 743 q 761 572 752 645 q 771 405 771 500 q 683 87 771 189 q 425 -14 596 -14 m 248 945 q 266 996 248 980 q 309 1012 284 1012 q 354 996 335 1012 q 372 945 372 980 q 354 894 372 911 q 309 878 335 878 q 266 894 284 878 q 248 945 248 911 m 507 945 q 525 996 507 980 q 568 1012 543 1012 q 612 996 593 1012 q 630 945 630 980 q 612 894 630 911 q 568 878 593 878 q 525 894 543 878 q 507 945 507 911 "},"җ":{"x_min":2.71875,"x_max":1062.65625,"ha":1083,"o":"m 458 743 l 562 743 l 562 383 l 869 743 l 992 743 l 682 383 l 931 96 l 1062 96 l 1062 -256 l 952 -256 l 952 0 l 889 0 l 562 377 l 562 0 l 458 0 l 458 377 l 132 0 l 2 0 l 339 383 l 29 743 l 152 743 l 458 383 l 458 743 "},"й":{"x_min":119.328125,"x_max":760.671875,"ha":880,"o":"m 225 743 l 225 271 l 220 148 l 218 109 l 620 743 l 760 743 l 760 0 l 655 0 l 655 454 l 657 543 l 660 631 l 259 0 l 119 0 l 119 743 l 225 743 m 437 842 q 254 890 311 842 q 189 1050 196 938 l 295 1050 q 332 951 301 979 q 439 924 363 924 q 543 953 509 924 q 584 1050 577 983 l 691 1050 q 622 892 682 942 q 437 842 562 842 "},"b":{"x_min":119.34375,"x_max":773.703125,"ha":851,"o":"m 465 756 q 692 655 611 756 q 773 372 773 555 q 691 87 773 189 q 465 -14 610 -14 q 332 12 392 -14 q 231 95 272 39 l 223 95 l 200 0 l 119 0 l 119 1055 l 231 1055 l 231 799 q 226 644 231 713 l 231 644 q 465 756 310 756 m 448 661 q 282 595 333 661 q 231 372 231 529 q 284 147 231 215 q 451 80 336 80 q 606 156 555 80 q 657 373 657 231 q 606 590 657 519 q 448 661 555 661 "},"̃":{"x_min":-677.953125,"x_max":-173.359375,"ha":0,"o":"m -322 843 q -379 855 -351 843 q -434 883 -407 868 q -485 911 -460 898 q -533 924 -510 924 q -584 903 -567 924 q -611 842 -602 883 l -677 842 q -630 970 -669 924 q -529 1017 -591 1017 q -469 1004 -498 1017 q -413 976 -439 991 q -362 948 -387 961 q -316 935 -338 935 q -266 955 -283 935 q -240 1018 -250 975 l -173 1018 q -220 889 -182 935 q -322 843 -258 843 "},"ύ":{"x_min":111.265625,"x_max":771.375,"ha":846,"o":"m 425 -14 q 189 70 268 -14 q 111 336 111 155 l 111 743 l 223 743 l 223 341 q 277 145 223 211 q 434 78 331 78 q 602 159 548 78 q 657 410 657 240 q 647 574 657 498 q 615 743 638 650 l 727 743 q 761 572 752 645 q 771 405 771 500 q 683 87 771 189 q 425 -14 596 -14 m 370 861 q 406 987 389 910 q 433 1120 424 1064 l 557 1120 l 557 1104 q 508 973 545 1054 q 438 842 471 893 l 370 842 l 370 861 "},"ﬂ":{"x_min":19.6875,"x_max":702.84375,"ha":822,"o":"m 454 655 l 265 655 l 265 0 l 152 0 l 152 655 l 19 655 l 19 706 l 152 747 l 152 788 q 392 1063 152 1063 q 530 1039 451 1063 l 501 949 q 390 970 436 970 q 295 927 326 970 q 265 791 265 885 l 265 742 l 454 742 l 454 655 m 702 0 l 590 0 l 590 1055 l 702 1055 l 702 0 "},"ԅ":{"x_min":54.28125,"x_max":1002.0625,"ha":1114,"o":"m 739 80 q 889 262 889 80 l 889 475 l 1002 475 l 1002 255 q 938 52 1002 118 q 742 -14 875 -14 q 474 212 485 -14 q 423 309 471 279 q 275 339 375 339 l 180 339 l 180 435 l 255 435 q 451 551 451 435 q 287 661 451 661 q 191 649 236 661 q 92 613 145 636 l 54 705 q 167 744 111 732 q 293 757 222 757 q 489 704 417 757 q 561 561 561 651 q 430 397 561 436 l 430 392 q 539 337 497 378 q 584 223 581 295 q 739 80 590 80 "},"ӏ":{"x_min":136.234375,"x_max":251.53125,"ha":387,"o":"m 136 0 l 136 992 l 251 992 l 251 0 l 136 0 "},"ҋ":{"x_min":119.34375,"x_max":880.109375,"ha":893,"o":"m 225 743 l 225 294 q 218 109 225 202 l 620 743 l 760 743 l 760 96 l 880 96 l 792 -256 l 676 -256 l 760 0 l 655 0 l 655 455 q 661 633 655 562 l 258 0 l 119 0 l 119 743 l 225 743 m 452 841 q 269 889 327 841 q 205 1049 212 937 l 311 1049 q 346 951 315 979 q 455 923 377 923 q 559 953 525 923 q 600 1049 593 984 l 706 1049 q 638 891 698 941 q 452 841 577 841 "},"ф":{"x_min":76.640625,"x_max":915.671875,"ha":993,"o":"m 915 372 q 819 103 915 203 q 551 -11 723 3 l 551 -334 l 440 -334 l 440 -11 q 174 104 271 1 q 76 372 76 206 q 173 640 76 541 q 444 754 271 740 l 444 1055 l 551 1055 l 551 754 q 818 636 721 738 q 915 372 915 534 m 194 372 q 254 168 194 241 q 444 81 314 94 l 444 659 q 256 578 318 648 q 194 372 194 507 m 799 372 q 551 658 799 631 l 551 81 q 739 168 680 94 q 799 372 799 242 "},"Ŋ":{"x_min":136.296875,"x_max":910.703125,"ha":1047,"o":"m 657 -261 q 554 -242 590 -261 l 554 -144 q 658 -157 602 -157 q 765 -116 729 -157 q 801 0 801 -75 l 237 832 l 231 832 q 242 546 242 653 l 242 0 l 136 0 l 136 992 l 266 992 l 806 176 l 812 176 q 802 429 802 277 l 802 992 l 910 992 l 910 9 q 845 -191 910 -122 q 657 -261 779 -261 "},"Ũ":{"x_min":126.125,"x_max":884.875,"ha":1011,"o":"m 884 992 l 884 349 q 782 83 884 180 q 501 -14 680 -14 q 224 83 322 -14 q 126 352 126 181 l 126 992 l 241 992 l 241 344 q 309 153 241 220 q 508 87 377 87 q 701 153 633 87 q 769 345 769 220 l 769 992 l 884 992 m 609 1072 q 552 1084 580 1072 q 497 1112 524 1097 q 446 1140 471 1127 q 398 1153 421 1153 q 347 1132 364 1153 q 320 1071 330 1112 l 254 1071 q 301 1199 262 1153 q 402 1246 340 1246 q 462 1233 433 1246 q 518 1205 492 1220 q 569 1177 545 1190 q 615 1164 593 1164 q 665 1184 648 1164 q 691 1247 681 1204 l 758 1247 q 711 1118 749 1164 q 609 1072 673 1072 "},"Щ":{"x_min":136.3125,"x_max":1391.59375,"ha":1435,"o":"m 136 0 l 136 992 l 251 992 l 251 104 l 646 104 l 646 992 l 763 992 l 763 104 l 1159 104 l 1159 992 l 1274 992 l 1274 104 l 1391 104 l 1391 -258 l 1281 -258 l 1281 0 l 136 0 "},"L":{"x_min":136.328125,"x_max":689.125,"ha":721,"o":"m 136 0 l 136 992 l 251 992 l 251 104 l 689 104 l 689 0 l 136 0 "},"Ҡ":{"x_min":10.859375,"x_max":957,"ha":957,"o":"m 10 992 l 355 992 l 355 496 l 804 992 l 942 992 l 543 561 l 957 0 l 820 0 l 459 481 l 355 388 l 355 0 l 240 0 l 240 888 l 10 888 l 10 992 "},"ď":{"x_min":77.984375,"x_max":955.90625,"ha":851,"o":"m 625 99 l 619 99 q 385 -14 541 -14 q 159 85 240 -14 q 77 369 77 185 q 159 655 77 553 q 385 757 240 757 q 617 647 537 757 l 626 647 l 621 700 l 619 752 l 619 1055 l 731 1055 l 731 0 l 640 0 l 625 99 m 400 80 q 567 143 515 80 q 619 345 619 205 l 619 369 q 566 595 619 527 q 398 662 513 662 q 247 585 299 662 q 194 368 194 508 q 246 152 194 225 q 400 80 299 80 m 795 850 q 821 944 808 887 q 841 1056 835 1001 l 955 1056 l 955 1043 q 918 945 948 1009 q 856 834 888 881 l 795 834 l 795 850 "},"Ο":{"x_min":84.796875,"x_max":997.203125,"ha":1082,"o":"m 997 496 q 876 122 997 258 q 542 -14 756 -14 q 203 119 322 -14 q 84 498 84 253 q 204 873 84 740 q 543 1007 323 1007 q 877 871 757 1007 q 997 496 997 735 m 206 496 q 292 191 206 295 q 542 87 378 87 q 791 190 706 87 q 875 496 875 294 q 791 800 875 696 q 543 903 707 903 q 292 799 378 903 q 206 496 206 695 "},"Ĭ":{"x_min":-17.28125,"x_max":403.21875,"ha":387,"o":"m 136 0 l 136 992 l 251 992 l 251 0 l 136 0 m 189 1071 q 41 1117 94 1071 q -17 1253 -11 1164 l 53 1253 q 71 1200 57 1219 q 109 1172 85 1181 q 192 1163 134 1163 q 293 1185 260 1163 q 332 1253 325 1207 l 403 1253 q 339 1119 396 1167 q 189 1071 283 1071 "},"ŧ":{"x_min":21.015625,"x_max":460.859375,"ha":490,"o":"m 362 78 q 460 92 420 78 l 460 6 q 403 -8 439 -3 q 338 -14 367 -14 q 127 222 127 -14 l 127 394 l 31 394 l 31 482 l 127 482 l 127 655 l 21 655 l 21 709 l 127 756 l 174 915 l 240 915 l 240 743 l 455 743 l 455 655 l 240 655 l 240 482 l 443 482 l 443 394 l 240 394 l 240 228 q 362 78 240 78 "},"À":{"x_min":0,"x_max":879,"ha":879,"o":"m 759 0 l 636 315 l 238 315 l 116 0 l 0 0 l 392 996 l 489 996 l 879 0 l 759 0 m 600 419 l 484 726 q 438 869 462 784 q 396 726 423 804 l 279 419 l 600 419 m 491 1071 l 416 1071 q 312 1171 372 1106 q 224 1278 251 1236 l 224 1293 l 362 1293 q 422 1185 384 1246 q 491 1087 461 1123 l 491 1071 "},"Ϊ":{"x_min":3.65625,"x_max":385.65625,"ha":387,"o":"m 136 0 l 136 992 l 251 992 l 251 0 l 136 0 m 3 1174 q 21 1225 3 1209 q 64 1241 39 1241 q 109 1225 90 1241 q 127 1174 127 1209 q 109 1123 127 1140 q 64 1107 90 1107 q 21 1123 39 1107 q 3 1174 3 1140 m 262 1174 q 280 1225 262 1209 q 323 1241 298 1241 q 367 1225 348 1241 q 385 1174 385 1209 q 367 1123 385 1140 q 323 1107 348 1107 q 280 1123 298 1107 q 262 1174 262 1140 "},"ḁ":{"x_min":63.796875,"x_max":660.34375,"ha":773,"o":"m 576 0 l 554 105 l 549 105 q 438 10 493 35 q 299 -14 382 -14 q 126 43 189 -14 q 63 205 63 100 q 424 441 63 431 l 550 446 l 550 492 q 512 621 550 579 q 392 663 475 663 q 181 606 299 663 l 147 692 q 267 739 202 722 q 399 756 333 756 q 596 696 532 756 q 660 507 660 637 l 660 0 l 576 0 m 322 78 q 487 136 427 78 q 547 298 547 194 l 547 365 l 435 361 q 241 319 300 356 q 181 204 181 282 q 218 110 181 142 q 322 78 255 78 m 518 -229 q 476 -336 518 -295 q 364 -377 433 -377 q 255 -337 295 -377 q 214 -231 214 -297 q 255 -124 214 -164 q 364 -85 295 -85 q 475 -125 433 -85 q 518 -229 518 -165 m 443 -231 q 421 -171 443 -192 q 364 -151 399 -151 q 307 -171 329 -151 q 284 -231 284 -192 q 305 -289 284 -269 q 364 -310 325 -310 q 422 -289 400 -310 q 443 -231 443 -269 "},"½":{"x_min":31.515625,"x_max":1016.6875,"ha":1083,"o":"m 833 992 l 221 0 l 124 0 l 736 992 l 833 992 m 209 992 l 306 992 l 306 397 l 215 397 l 215 790 q 220 913 215 852 q 186 883 205 898 q 76 803 168 867 l 31 868 l 209 992 m 1016 0 l 607 0 l 607 70 l 767 226 q 855 317 827 284 q 894 376 883 350 q 905 438 905 402 q 878 508 905 484 q 808 531 851 531 q 740 518 773 531 q 660 472 706 505 l 615 531 q 807 607 704 607 q 946 562 896 607 q 996 442 996 518 q 966 337 996 388 q 836 192 936 286 l 718 80 l 1016 80 l 1016 0 "},"ԍ":{"x_min":77.984375,"x_max":813.734375,"ha":889,"o":"m 467 390 l 813 390 l 813 344 q 465 -14 813 -14 q 178 86 279 -14 q 77 370 77 186 q 187 655 77 554 q 492 757 297 757 q 755 702 636 757 l 715 613 q 488 664 601 664 q 272 588 349 664 q 194 370 194 513 q 263 154 194 230 q 466 78 332 78 q 640 133 581 78 q 699 294 699 187 l 467 294 l 467 390 "},"'":{"x_min":90.140625,"x_max":216.296875,"ha":307,"o":"m 216 992 l 189 634 l 117 634 l 90 992 l 216 992 "},"ĳ":{"x_min":109.765625,"x_max":593.6875,"ha":703,"o":"m 231 0 l 119 0 l 119 743 l 231 743 l 231 0 m 109 944 q 128 1000 109 982 q 176 1018 147 1018 q 223 1000 203 1018 q 242 944 242 982 q 223 887 242 906 q 176 869 203 869 q 128 887 147 869 q 109 944 109 906 m 380 -334 q 275 -317 315 -334 l 275 -225 q 367 -239 322 -239 q 445 -210 420 -239 q 470 -122 470 -181 l 470 743 l 582 743 l 582 -114 q 380 -334 582 -334 m 460 944 q 479 1000 460 982 q 527 1018 498 1018 q 574 1000 554 1018 q 593 944 593 982 q 574 887 593 906 q 527 869 554 869 q 479 887 498 869 q 460 944 460 906 "},"Ҽ":{"x_min":41.375,"x_max":1084.640625,"ha":1164,"o":"m 41 612 q 59 698 41 661 l 158 698 q 144 623 144 664 q 221 554 144 554 l 244 554 l 247 583 q 380 896 267 785 q 682 1007 493 1007 q 984 878 883 1007 q 1084 499 1084 749 l 1084 452 l 365 452 q 463 181 375 273 q 719 88 552 88 q 856 98 788 88 q 1020 138 925 109 l 1020 32 q 868 -3 943 6 q 705 -14 793 -14 q 374 106 492 -14 q 242 452 255 227 q 93 492 146 452 q 41 612 41 532 m 681 903 q 457 813 539 903 q 365 554 376 722 l 961 554 q 892 818 961 733 q 681 903 823 903 "},"Р":{"x_min":136.28125,"x_max":764.8125,"ha":836,"o":"m 764 702 q 662 471 764 552 q 368 389 559 389 l 251 389 l 251 0 l 136 0 l 136 992 l 393 992 q 764 702 764 992 m 251 489 l 355 489 q 576 538 508 489 q 645 697 645 588 q 581 844 645 795 q 380 892 516 892 l 251 892 l 251 489 "},"˛":{"x_min":25.0625,"x_max":249.96875,"ha":273,"o":"m 120 -160 q 184 -224 120 -224 q 249 -215 212 -224 l 249 -289 q 165 -302 205 -302 q 25 -174 25 -302 q 54 -81 25 -127 q 132 0 83 -35 l 213 0 q 144 -81 167 -44 q 120 -160 120 -118 "},"⁷":{"x_min":38.640625,"x_max":444.03125,"ha":482,"o":"m 109 397 l 347 913 l 38 913 l 38 992 l 444 992 l 444 928 l 205 397 l 109 397 "},"Ѿ":{"x_min":63.765625,"x_max":1301.875,"ha":1367,"o":"m 962 1218 l 962 1199 l 908 1083 l 886 1083 l 852 1152 l 726 1152 l 693 1083 l 670 1083 l 637 1152 l 510 1152 l 478 1083 l 455 1083 l 401 1199 l 401 1218 l 962 1218 m 968 899 q 895 885 927 899 q 833 850 864 871 l 786 949 q 974 1004 870 1004 q 1215 876 1128 1004 q 1301 519 1301 748 q 1204 126 1301 266 q 932 -14 1107 -14 q 795 2 853 -14 q 685 51 736 18 l 679 51 q 567 1 626 17 q 433 -14 509 -14 q 160 127 257 -14 q 63 519 63 268 q 150 877 63 750 q 393 1004 238 1004 q 580 949 495 1004 l 533 850 q 471 885 502 871 q 398 899 439 899 q 243 798 299 899 q 187 517 187 698 q 258 199 187 312 q 458 87 329 87 q 546 99 502 87 q 625 138 590 112 l 625 449 l 740 449 l 740 138 q 908 87 810 87 q 1107 198 1035 87 q 1179 517 1179 310 q 1123 799 1179 698 q 968 899 1067 899 "},"Ć":{"x_min":84.75,"x_max":834.640625,"ha":876,"o":"m 560 902 q 302 793 397 902 q 208 495 208 685 q 299 194 208 300 q 559 88 390 88 q 796 125 663 88 l 796 24 q 541 -14 692 -14 q 203 119 322 -14 q 84 497 84 252 q 142 765 84 650 q 307 943 199 881 q 562 1006 415 1006 q 834 949 718 1006 l 785 850 q 560 902 673 902 m 445 1087 q 515 1189 478 1129 q 575 1293 553 1249 l 712 1293 l 712 1278 q 623 1170 682 1234 q 520 1071 564 1106 l 445 1071 l 445 1087 "},"Т":{"x_min":12.203125,"x_max":755.125,"ha":768,"o":"m 441 0 l 326 0 l 326 889 l 12 889 l 12 992 l 755 992 l 755 889 l 441 889 l 441 0 "},"£":{"x_min":42.71875,"x_max":740.4375,"ha":794,"o":"m 462 1004 q 706 947 591 1004 l 665 856 q 463 909 560 909 q 338 867 380 909 q 295 730 295 824 l 295 530 l 581 530 l 581 443 l 295 443 l 295 294 q 273 180 295 226 q 201 104 251 134 l 740 104 l 740 0 l 42 0 l 42 95 q 181 292 181 127 l 181 443 l 47 443 l 47 530 l 181 530 l 181 744 q 257 934 181 864 q 462 1004 333 1004 "},"ẹ":{"x_min":77.96875,"x_max":706.453125,"ha":779,"o":"m 433 -14 q 173 86 268 -14 q 77 365 77 186 q 166 651 77 545 q 404 757 254 757 q 625 665 543 757 q 706 422 706 573 l 706 351 l 194 351 q 260 152 198 220 q 437 84 323 84 q 674 134 557 84 l 674 34 q 561 -2 614 8 q 433 -14 508 -14 m 402 662 q 260 604 313 662 q 197 443 206 546 l 585 443 q 538 606 585 549 q 402 662 490 662 m 338 -164 q 358 -107 338 -125 q 406 -89 378 -89 q 453 -107 433 -89 q 473 -164 473 -125 q 453 -220 473 -201 q 406 -239 433 -239 q 358 -220 378 -239 q 338 -164 338 -201 "},"ů":{"x_min":111.296875,"x_max":733.5625,"ha":853,"o":"m 225 743 l 225 260 q 266 125 225 169 q 396 80 308 80 q 567 144 513 80 q 620 352 620 207 l 620 743 l 733 743 l 733 0 l 640 0 l 624 99 l 618 99 q 522 15 583 44 q 382 -14 460 -14 q 178 50 246 -14 q 111 256 111 114 l 111 743 l 225 743 m 575 989 q 533 882 575 922 q 422 842 492 842 q 313 881 354 842 q 273 987 273 921 q 314 1093 273 1054 q 422 1132 355 1132 q 533 1091 491 1132 q 575 989 575 1051 m 502 987 q 479 1046 502 1025 q 422 1066 457 1066 q 365 1046 388 1066 q 343 987 343 1025 q 363 929 343 949 q 422 908 384 908 q 480 929 458 908 q 502 987 502 949 "},"Ō":{"x_min":84.796875,"x_max":997.203125,"ha":1082,"o":"m 997 496 q 876 122 997 258 q 542 -14 756 -14 q 203 119 322 -14 q 84 498 84 253 q 204 873 84 740 q 543 1007 323 1007 q 877 871 757 1007 q 997 496 997 735 m 206 496 q 292 191 206 295 q 542 87 378 87 q 791 190 706 87 q 875 496 875 294 q 791 800 875 696 q 543 903 707 903 q 292 799 378 903 q 206 496 206 695 m 339 1163 l 745 1163 l 745 1071 l 339 1071 l 339 1163 "},"а":{"x_min":63.796875,"x_max":660.34375,"ha":773,"o":"m 576 0 l 554 105 l 549 105 q 438 10 493 35 q 299 -14 382 -14 q 126 43 189 -14 q 63 205 63 100 q 424 441 63 431 l 550 446 l 550 492 q 512 621 550 579 q 392 663 475 663 q 181 606 299 663 l 147 692 q 267 739 202 722 q 399 756 333 756 q 596 696 532 756 q 660 507 660 637 l 660 0 l 576 0 m 322 78 q 487 136 427 78 q 547 298 547 194 l 547 365 l 435 361 q 241 319 300 356 q 181 204 181 282 q 218 110 181 142 q 322 78 255 78 "},"Ğ":{"x_min":84.765625,"x_max":909.296875,"ha":1011,"o":"m 572 519 l 909 519 l 909 36 q 749 -1 830 11 q 560 -14 667 -14 q 210 120 335 -14 q 84 495 84 254 q 146 766 84 650 q 325 944 208 883 q 598 1006 442 1006 q 894 947 757 1006 l 849 845 q 591 902 715 902 q 308 794 410 902 q 206 495 206 687 q 304 190 206 294 q 592 87 402 87 q 794 110 695 87 l 794 415 l 572 415 l 572 519 m 579 1071 q 431 1117 484 1071 q 372 1253 378 1164 l 443 1253 q 461 1200 447 1219 q 499 1172 475 1181 q 582 1163 524 1163 q 683 1185 650 1163 q 722 1253 715 1207 l 793 1253 q 729 1119 786 1167 q 579 1071 673 1071 "},"ә":{"x_min":69.21875,"x_max":698.953125,"ha":777,"o":"m 343 757 q 604 655 509 757 q 698 376 698 553 q 611 91 698 197 q 375 -14 523 -14 q 151 76 234 -14 q 69 320 69 167 l 69 392 l 582 392 q 518 593 578 530 q 344 657 457 657 q 222 646 278 657 q 101 607 166 634 l 101 706 q 217 745 162 733 q 343 757 272 757 m 376 80 q 519 136 466 80 q 579 298 571 192 l 190 298 q 238 135 190 191 q 376 80 286 80 "},"v":{"x_min":0,"x_max":696,"ha":696,"o":"m 282 0 l 0 743 l 120 743 l 280 302 q 344 101 335 147 l 350 101 q 397 250 357 137 q 575 743 436 363 l 696 743 l 413 0 l 282 0 "},"Ї":{"x_min":3.65625,"x_max":385.65625,"ha":387,"o":"m 136 0 l 136 992 l 251 992 l 251 0 l 136 0 m 3 1174 q 21 1225 3 1209 q 64 1241 39 1241 q 109 1225 90 1241 q 127 1174 127 1209 q 109 1123 127 1140 q 64 1107 90 1107 q 21 1123 39 1107 q 3 1174 3 1140 m 262 1174 q 280 1225 262 1209 q 323 1241 298 1241 q 367 1225 348 1241 q 385 1174 385 1209 q 367 1123 385 1140 q 323 1107 348 1107 q 280 1123 298 1107 q 262 1174 262 1140 "},"Ѯ":{"x_min":42.703125,"x_max":730.046875,"ha":808,"o":"m 162 -93 q 192 -147 162 -130 q 282 -164 221 -164 q 429 -159 347 -164 q 557 -155 510 -155 q 711 -182 662 -155 l 711 -295 q 548 -260 656 -260 q 431 -263 502 -260 q 288 -267 359 -267 q 105 -224 167 -267 q 42 -92 42 -182 q 116 37 42 -6 q 347 86 189 80 q 546 139 485 92 q 607 281 607 186 q 304 464 607 464 l 156 464 l 156 561 l 298 561 q 513 610 437 561 q 589 750 589 660 q 534 866 589 822 q 387 909 479 909 q 251 890 315 909 q 113 825 188 872 l 55 902 q 298 999 169 980 q 180 1125 259 1043 l 147 1160 l 147 1179 l 230 1179 q 381 1047 292 1139 q 488 1153 444 1124 q 576 1183 532 1183 q 642 1173 610 1183 l 642 1096 q 597 1103 626 1103 q 529 1075 567 1103 q 459 1000 492 1048 q 645 920 580 984 q 711 759 711 856 q 646 602 711 664 q 466 522 581 539 l 466 516 q 661 440 592 500 q 730 281 730 379 q 634 68 730 140 q 347 -10 538 -3 q 208 -32 253 -13 q 162 -93 162 -50 "},"û":{"x_min":111.296875,"x_max":733.5625,"ha":853,"o":"m 225 743 l 225 260 q 266 125 225 169 q 396 80 308 80 q 567 144 513 80 q 620 352 620 207 l 620 743 l 733 743 l 733 0 l 640 0 l 624 99 l 618 99 q 522 15 583 44 q 382 -14 460 -14 q 178 50 246 -14 q 111 256 111 114 l 111 743 l 225 743 m 193 857 q 314 992 279 949 q 364 1064 349 1036 l 477 1064 q 529 990 492 1035 q 650 857 566 945 l 650 842 l 570 842 q 420 967 510 879 q 271 842 328 877 l 193 842 l 193 857 "},"Ź":{"x_min":55.625,"x_max":737.375,"ha":793,"o":"m 737 0 l 55 0 l 55 90 l 582 888 l 71 888 l 71 992 l 722 992 l 722 901 l 196 104 l 737 104 l 737 0 m 311 1087 q 381 1189 344 1129 q 441 1293 419 1249 l 578 1293 l 578 1278 q 489 1170 548 1234 q 386 1071 430 1106 l 311 1071 l 311 1087 "},"ˉ":{"x_min":204.09375,"x_max":610.90625,"ha":815,"o":"m 204 934 l 610 934 l 610 842 l 204 842 l 204 934 "},"Ĺ":{"x_min":136.328125,"x_max":689.125,"ha":721,"o":"m 136 0 l 136 992 l 251 992 l 251 104 l 689 104 l 689 0 l 136 0 m 160 1087 q 230 1189 193 1129 q 290 1293 268 1249 l 427 1293 l 427 1278 q 338 1170 397 1234 q 235 1071 279 1106 l 160 1071 l 160 1087 "},"ỵ":{"x_min":1.359375,"x_max":698.640625,"ha":700,"o":"m 1 743 l 122 743 l 284 319 q 351 109 338 173 l 356 109 q 393 227 365 144 q 577 743 421 311 l 698 743 l 379 -103 q 268 -281 331 -228 q 112 -334 204 -334 q 10 -322 61 -334 l 10 -232 q 94 -240 48 -240 q 259 -110 210 -240 l 301 -4 l 1 743 m 494 -166 q 514 -109 494 -127 q 562 -91 534 -91 q 609 -109 589 -91 q 629 -166 629 -127 q 609 -222 629 -203 q 562 -241 589 -241 q 514 -222 534 -241 q 494 -166 494 -203 "},"ӻ":{"x_min":12.21875,"x_max":565.828125,"ha":595,"o":"m 565 648 l 231 648 l 231 415 l 466 415 l 466 328 l 231 328 l 231 0 l 119 0 l 119 328 l 12 328 l 12 415 l 119 415 l 119 743 l 565 743 l 565 648 m 329 97 l 329 -91 q 174 -268 329 -268 q 95 -251 136 -268 l 95 -156 q 165 -169 123 -169 q 229 -101 229 -169 l 229 97 l 329 97 "},"₤":{"x_min":46.109375,"x_max":743.140625,"ha":794,"o":"m 466 1004 q 709 949 602 1004 l 669 860 q 466 909 566 909 q 341 863 383 909 q 298 730 298 817 l 298 604 l 583 604 l 583 516 l 298 516 l 298 404 l 583 404 l 583 316 l 298 316 l 298 294 q 276 180 298 226 q 204 104 254 134 l 743 104 l 743 0 l 46 0 l 46 95 q 185 292 185 128 l 185 316 l 50 316 l 50 404 l 185 404 l 185 516 l 50 516 l 50 604 l 185 604 l 185 744 q 261 934 185 865 q 466 1004 337 1004 "},"Č":{"x_min":84.75,"x_max":834.640625,"ha":876,"o":"m 560 902 q 302 793 397 902 q 208 495 208 685 q 299 194 208 300 q 559 88 390 88 q 796 125 663 88 l 796 24 q 541 -14 692 -14 q 203 119 322 -14 q 84 497 84 252 q 142 765 84 650 q 307 943 199 881 q 562 1006 415 1006 q 834 949 718 1006 l 785 850 q 560 902 673 902 m 312 1293 l 390 1293 q 539 1165 468 1243 q 689 1293 627 1253 l 769 1293 l 769 1276 l 725 1230 q 596 1071 627 1129 l 483 1071 q 433 1141 468 1098 q 312 1276 398 1184 l 312 1293 "},"x":{"x_min":26.5625,"x_max":700.1875,"ha":728,"o":"m 298 380 l 40 743 l 168 743 l 364 458 l 559 743 l 686 743 l 428 380 l 700 0 l 572 0 l 364 301 l 154 0 l 26 0 l 298 380 "},"è":{"x_min":77.96875,"x_max":706.453125,"ha":779,"o":"m 433 -14 q 173 86 268 -14 q 77 365 77 186 q 166 651 77 545 q 404 757 254 757 q 625 665 543 757 q 706 422 706 573 l 706 351 l 194 351 q 260 152 198 220 q 437 84 323 84 q 674 134 557 84 l 674 34 q 561 -2 614 8 q 433 -14 508 -14 m 402 662 q 260 604 313 662 q 197 443 206 546 l 585 443 q 538 606 585 549 q 402 662 490 662 m 482 842 l 407 842 q 303 942 363 877 q 215 1049 242 1007 l 215 1064 l 353 1064 q 413 956 375 1017 q 482 858 452 894 l 482 842 "},"Ń":{"x_min":136.296875,"x_max":910.703125,"ha":1047,"o":"m 910 0 l 779 0 l 237 832 l 231 832 q 242 563 242 685 l 242 0 l 136 0 l 136 992 l 266 992 l 806 162 l 812 162 q 806 280 811 181 q 802 422 801 379 l 802 992 l 910 992 l 910 0 m 441 1087 q 511 1189 474 1129 q 571 1293 549 1249 l 708 1293 l 708 1278 q 619 1170 678 1234 q 516 1071 560 1106 l 441 1071 l 441 1087 "},"ḿ":{"x_min":119.359375,"x_max":1179.421875,"ha":1292,"o":"m 1066 0 l 1066 483 q 1028 616 1066 572 q 910 661 990 661 q 755 601 805 661 q 705 415 705 540 l 705 0 l 592 0 l 592 483 q 554 616 592 572 q 436 661 516 661 q 281 597 330 661 q 231 390 231 534 l 231 0 l 119 0 l 119 743 l 210 743 l 229 642 l 234 642 q 324 726 266 696 q 454 757 382 757 q 682 631 628 757 l 687 631 q 784 723 720 689 q 927 757 847 757 q 1116 692 1053 757 q 1179 485 1179 627 l 1179 0 l 1066 0 m 579 858 q 649 960 612 900 q 709 1064 687 1020 l 846 1064 l 846 1049 q 757 941 816 1005 q 654 842 698 877 l 579 842 l 579 858 "},"μ":{"x_min":119.375,"x_max":740.625,"ha":860,"o":"m 231 257 q 404 80 231 80 q 574 144 520 80 q 628 352 628 208 l 628 743 l 740 743 l 740 0 l 648 0 l 630 99 l 623 99 q 393 -14 548 -14 q 231 48 291 -14 l 225 48 q 231 -117 231 -8 l 231 -334 l 119 -334 l 119 743 l 231 743 l 231 257 "},".":{"x_min":103.1875,"x_max":266.640625,"ha":370,"o":"m 103 71 q 123 140 103 117 q 183 163 144 163 q 244 140 222 163 q 266 71 266 117 q 244 3 266 27 q 183 -20 221 -20 q 125 1 148 -20 q 103 71 103 22 "},"Ѡ":{"x_min":90.234375,"x_max":1314.09375,"ha":1405,"o":"m 979 899 q 907 885 938 899 q 844 850 875 871 l 797 949 q 985 1004 883 1004 q 1226 876 1139 1004 q 1314 519 1314 748 q 1218 126 1314 267 q 949 -14 1122 -14 q 817 1 875 -14 q 702 51 759 16 l 697 51 q 585 1 643 17 q 455 -14 528 -14 q 186 125 282 -14 q 90 519 90 264 q 176 876 90 748 q 417 1004 263 1004 q 605 949 521 1004 l 558 850 q 496 885 527 871 q 424 899 464 899 q 268 798 324 899 q 212 517 212 698 q 282 200 212 313 q 479 87 352 87 q 643 138 573 87 l 643 449 l 758 449 l 758 138 q 924 87 827 87 q 1120 199 1050 87 q 1190 517 1190 311 q 1134 799 1190 698 q 979 899 1078 899 "},"ӑ":{"x_min":63.796875,"x_max":660.34375,"ha":773,"o":"m 576 0 l 554 105 l 549 105 q 438 10 493 35 q 299 -14 382 -14 q 126 43 189 -14 q 63 205 63 100 q 424 441 63 431 l 550 446 l 550 492 q 512 621 550 579 q 392 663 475 663 q 181 606 299 663 l 147 692 q 267 739 202 722 q 399 756 333 756 q 596 696 532 756 q 660 507 660 637 l 660 0 l 576 0 m 322 78 q 487 136 427 78 q 547 298 547 194 l 547 365 l 435 361 q 241 319 300 356 q 181 204 181 282 q 218 110 181 142 q 322 78 255 78 m 380 842 q 197 890 254 842 q 132 1050 139 938 l 238 1050 q 275 951 244 979 q 382 924 306 924 q 486 953 452 924 q 527 1050 520 983 l 634 1050 q 565 892 625 942 q 380 842 505 842 "},"‘":{"x_min":16.953125,"x_max":219.71875,"ha":236,"o":"m 25 652 l 16 666 q 65 818 31 728 q 136 992 98 909 l 219 992 q 149 652 174 819 l 25 652 "},"π":{"x_min":16.953125,"x_max":860.265625,"ha":903,"o":"m 779 78 q 837 91 805 78 l 837 2 q 751 -14 808 -14 q 603 157 603 -14 l 603 646 l 279 646 l 279 0 l 166 0 l 166 646 l 16 646 l 16 696 l 113 743 l 860 743 l 860 646 l 715 646 l 715 166 q 733 97 715 116 q 779 78 750 78 "},"Ỏ":{"x_min":84.796875,"x_max":997.203125,"ha":1082,"o":"m 997 496 q 876 122 997 258 q 542 -14 756 -14 q 203 119 322 -14 q 84 498 84 253 q 204 873 84 740 q 543 1007 323 1007 q 877 871 757 1007 q 997 496 997 735 m 206 496 q 292 191 206 295 q 542 87 378 87 q 791 190 706 87 q 875 496 875 294 q 791 800 875 696 q 543 903 707 903 q 292 799 378 903 q 206 496 206 695 m 695 1242 q 583 1124 695 1147 l 576 1048 l 505 1048 l 497 1167 q 581 1193 555 1176 q 608 1239 608 1210 q 585 1282 608 1268 q 513 1296 562 1296 q 449 1292 471 1296 l 449 1360 q 522 1367 475 1367 q 695 1242 695 1367 "},"Ѩ":{"x_min":136.3125,"x_max":1279,"ha":1279,"o":"m 958 466 l 861 466 l 861 0 l 756 0 l 756 466 l 657 466 l 463 0 l 337 0 l 534 466 l 251 466 l 251 0 l 136 0 l 136 992 l 251 992 l 251 570 l 577 570 l 755 992 l 862 992 l 1279 0 l 1151 0 l 958 466 m 699 570 l 915 570 q 826 808 835 779 q 808 869 816 837 q 783 789 795 824 q 699 570 771 753 "},"Ớ":{"x_min":84.765625,"x_max":1109.46875,"ha":1083,"o":"m 995 496 q 875 121 995 256 q 541 -14 754 -14 q 203 119 322 -14 q 84 498 84 252 q 204 874 84 742 q 543 1007 324 1007 q 884 861 763 1007 q 938 891 918 869 q 967 949 958 914 q 976 1055 976 983 l 1099 1055 l 1109 1040 q 1045 876 1089 935 q 930 791 1000 817 q 995 496 995 671 m 206 496 q 291 190 206 294 q 541 87 376 87 q 790 190 706 87 q 873 496 873 293 q 790 800 873 696 q 543 903 707 903 q 292 801 378 903 q 206 496 206 698 m 469 1087 q 539 1189 502 1129 q 599 1293 577 1249 l 736 1293 l 736 1278 q 647 1170 706 1234 q 544 1071 588 1106 l 469 1071 l 469 1087 "},"9":{"x_min":71.875,"x_max":719.421875,"ha":794,"o":"m 719 568 q 269 -14 719 -14 q 144 0 190 -14 l 144 96 q 267 78 198 78 q 513 179 430 78 q 604 489 596 280 l 595 489 q 497 403 558 433 q 358 374 435 374 q 149 452 226 374 q 71 672 71 531 q 158 916 71 826 q 385 1006 244 1006 q 562 954 486 1006 q 678 802 638 902 q 719 568 719 703 m 385 909 q 235 847 288 909 q 183 673 183 784 q 231 520 183 576 q 380 464 280 464 q 493 489 442 464 q 575 557 545 514 q 605 648 605 601 q 577 780 605 719 q 500 875 549 840 q 385 909 450 909 "},"l":{"x_min":119.265625,"x_max":231.84375,"ha":351,"o":"m 231 0 l 119 0 l 119 1055 l 231 1055 l 231 0 "},"Ẫ":{"x_min":0,"x_max":879,"ha":879,"o":"m 759 0 l 636 315 l 238 315 l 116 0 l 0 0 l 392 996 l 489 996 l 879 0 l 759 0 m 600 419 l 484 726 q 438 869 462 784 q 396 726 423 804 l 279 419 l 600 419 m 533 1307 q 484 1317 508 1307 q 437 1340 460 1327 q 393 1363 414 1353 q 352 1373 371 1373 q 311 1356 325 1373 q 287 1306 297 1340 l 226 1306 q 269 1416 234 1378 q 354 1455 303 1455 q 404 1444 379 1455 q 451 1422 428 1434 q 495 1399 474 1409 q 534 1389 516 1389 q 576 1405 561 1389 q 598 1456 590 1422 l 659 1456 q 618 1346 651 1385 q 533 1307 584 1307 m 648 1071 l 584 1071 q 441 1183 519 1115 q 298 1071 369 1118 l 234 1071 l 234 1086 l 270 1127 q 382 1263 346 1210 l 501 1263 q 648 1086 546 1199 l 648 1071 "},"Ъ":{"x_min":12.21875,"x_max":884.078125,"ha":956,"o":"m 884 289 q 796 74 884 149 q 539 0 708 0 l 240 0 l 240 889 l 12 889 l 12 992 l 355 992 l 355 569 l 521 569 q 791 499 698 569 q 884 289 884 429 m 355 99 l 526 99 q 706 146 649 99 q 764 289 764 194 q 704 424 764 381 q 507 467 645 467 l 355 467 l 355 99 "}," ":{"x_min":0,"x_max":0,"ha":139},"Ś":{"x_min":71.859375,"x_max":695.5625,"ha":762,"o":"m 695 263 q 600 59 695 132 q 343 -14 505 -14 q 71 31 166 -14 l 71 142 q 204 101 132 116 q 347 87 276 87 q 520 130 462 87 q 578 252 578 174 q 558 337 578 304 q 489 397 537 370 q 341 461 440 425 q 144 578 203 510 q 84 755 84 646 q 170 938 84 870 q 398 1006 256 1006 q 670 951 546 1006 l 634 851 q 395 902 511 902 q 252 863 304 902 q 201 754 201 824 q 220 669 201 702 q 284 609 239 636 q 422 548 329 581 q 636 429 578 492 q 695 263 695 365 m 320 1087 q 390 1189 353 1129 q 450 1293 428 1249 l 587 1293 l 587 1278 q 498 1170 557 1234 q 395 1071 439 1106 l 320 1071 l 320 1087 "},"Ü":{"x_min":126.125,"x_max":884.875,"ha":1011,"o":"m 884 992 l 884 349 q 782 83 884 180 q 501 -14 680 -14 q 224 83 322 -14 q 126 352 126 181 l 126 992 l 241 992 l 241 344 q 309 153 241 220 q 508 87 377 87 q 701 153 633 87 q 769 345 769 220 l 769 992 l 884 992 m 312 1174 q 330 1225 312 1209 q 373 1241 348 1241 q 418 1225 399 1241 q 436 1174 436 1209 q 418 1123 436 1140 q 373 1107 399 1107 q 330 1123 348 1107 q 312 1174 312 1140 m 571 1174 q 589 1225 571 1209 q 632 1241 607 1241 q 676 1225 657 1241 q 694 1174 694 1209 q 676 1123 694 1140 q 632 1107 657 1107 q 589 1123 607 1107 q 571 1174 571 1140 "},"à":{"x_min":63.796875,"x_max":660.34375,"ha":773,"o":"m 576 0 l 554 105 l 549 105 q 438 10 493 35 q 299 -14 382 -14 q 126 43 189 -14 q 63 205 63 100 q 424 441 63 431 l 550 446 l 550 492 q 512 621 550 579 q 392 663 475 663 q 181 606 299 663 l 147 692 q 267 739 202 722 q 399 756 333 756 q 596 696 532 756 q 660 507 660 637 l 660 0 l 576 0 m 322 78 q 487 136 427 78 q 547 298 547 194 l 547 365 l 435 361 q 241 319 300 356 q 181 204 181 282 q 218 110 181 142 q 322 78 255 78 m 456 842 l 381 842 q 277 942 337 877 q 189 1049 216 1007 l 189 1064 l 327 1064 q 387 956 349 1017 q 456 858 426 894 l 456 842 "},"η":{"x_min":119.4375,"x_max":741.03125,"ha":853,"o":"m 628 -334 l 628 480 q 587 616 628 571 q 457 661 545 661 q 286 598 340 661 q 232 390 232 535 l 232 0 l 119 0 l 119 743 l 210 743 l 229 641 l 234 641 q 331 726 269 696 q 470 757 394 757 q 673 692 605 757 q 741 484 741 627 l 741 -334 l 628 -334 "},"ó":{"x_min":78,"x_max":761,"ha":839,"o":"m 761 372 q 669 88 761 190 q 416 -14 577 -14 q 239 32 316 -14 q 120 167 162 79 q 78 372 78 254 q 168 655 78 554 q 421 757 259 757 q 669 653 577 757 q 761 372 761 549 m 194 372 q 251 154 194 229 q 419 80 308 80 q 587 154 529 80 q 644 372 644 228 q 587 587 644 514 q 417 661 529 661 q 250 588 307 661 q 194 372 194 516 m 324 858 q 394 960 357 900 q 454 1064 432 1020 l 591 1064 l 591 1049 q 502 941 561 1005 q 399 842 443 877 l 324 842 l 324 858 "},"¦":{"x_min":335.03125,"x_max":430.65625,"ha":765,"o":"m 335 1055 l 430 1055 l 430 529 l 335 529 l 335 1055 m 335 191 l 430 191 l 430 -336 l 335 -336 l 335 191 "},"Ѣ":{"x_min":15.59375,"x_max":865.125,"ha":937,"o":"m 15 864 l 231 864 l 231 1055 l 348 1055 l 348 864 l 631 864 l 631 763 l 348 763 l 348 568 l 484 568 q 865 288 865 568 q 775 73 865 147 q 508 0 685 0 l 231 0 l 231 763 l 15 763 l 15 864 m 348 98 l 492 98 q 684 144 623 98 q 745 288 745 191 q 682 423 745 382 q 471 464 619 464 l 348 464 l 348 98 "},"Ӈ":{"x_min":136.34375,"x_max":889.265625,"ha":1010,"o":"m 889 102 q 793 -230 889 -113 q 520 -347 697 -347 q 423 -340 465 -347 q 330 -313 382 -334 l 330 -212 q 505 -245 413 -245 q 773 95 773 -245 l 773 466 l 251 466 l 251 0 l 136 0 l 136 992 l 251 992 l 251 570 l 773 570 l 773 992 l 889 992 l 889 102 "},"Ỷ":{"x_min":0,"x_max":778,"ha":778,"o":"m 388 496 l 653 992 l 778 992 l 446 384 l 446 0 l 330 0 l 330 379 l 0 992 l 126 992 l 388 496 m 540 1242 q 428 1124 540 1147 l 421 1048 l 350 1048 l 342 1167 q 426 1193 400 1176 q 453 1239 453 1210 q 430 1282 453 1268 q 358 1296 407 1296 q 294 1292 316 1296 l 294 1360 q 367 1367 320 1367 q 540 1242 540 1367 "},"Ő":{"x_min":84.796875,"x_max":997.203125,"ha":1082,"o":"m 997 496 q 876 122 997 258 q 542 -14 756 -14 q 203 119 322 -14 q 84 498 84 253 q 204 873 84 740 q 543 1007 323 1007 q 877 871 757 1007 q 997 496 997 735 m 206 496 q 292 191 206 295 q 542 87 378 87 q 791 190 706 87 q 875 496 875 294 q 791 800 875 696 q 543 903 707 903 q 292 799 378 903 q 206 496 206 695 m 343 1087 q 405 1183 368 1120 q 463 1293 442 1246 l 590 1293 l 590 1278 q 506 1169 564 1236 q 409 1071 448 1103 l 343 1071 l 343 1087 m 585 1087 q 653 1193 619 1133 q 705 1293 687 1253 l 831 1293 l 831 1278 q 748 1169 806 1236 q 651 1071 690 1103 l 585 1071 l 585 1087 "},"ҁ":{"x_min":78.046875,"x_max":631.171875,"ha":678,"o":"m 426 -14 q 166 83 254 -14 q 78 366 78 180 q 170 655 78 554 q 433 757 263 757 q 542 745 487 757 q 631 718 598 733 l 597 622 q 430 657 501 657 q 252 587 310 657 q 194 368 194 518 q 252 150 194 218 q 426 82 310 82 q 490 88 462 82 q 555 112 517 94 l 555 -334 l 443 -334 l 443 -14 l 426 -14 "},"Ҧ":{"x_min":136.328125,"x_max":1408.75,"ha":1482,"o":"m 841 0 l 726 0 l 726 888 l 251 888 l 251 0 l 136 0 l 136 992 l 841 992 l 841 536 q 972 545 887 545 q 1294 428 1180 545 q 1408 100 1408 311 q 1312 -229 1408 -112 q 1041 -347 1216 -347 q 852 -313 936 -347 l 852 -210 q 1029 -243 943 -243 q 1285 102 1285 -243 q 1207 354 1285 266 q 972 443 1129 443 q 901 440 944 443 q 841 435 858 438 l 841 0 "},"Ž":{"x_min":55.625,"x_max":737.375,"ha":793,"o":"m 737 0 l 55 0 l 55 90 l 582 888 l 71 888 l 71 992 l 722 992 l 722 901 l 196 104 l 737 104 l 737 0 m 168 1293 l 246 1293 q 395 1165 324 1243 q 545 1293 483 1253 l 625 1293 l 625 1276 l 581 1230 q 452 1071 483 1129 l 339 1071 q 289 1141 324 1098 q 168 1276 254 1184 l 168 1293 "},"е":{"x_min":77.96875,"x_max":706.453125,"ha":779,"o":"m 433 -14 q 173 86 268 -14 q 77 365 77 186 q 166 651 77 545 q 404 757 254 757 q 625 665 543 757 q 706 422 706 573 l 706 351 l 194 351 q 260 152 198 220 q 437 84 323 84 q 674 134 557 84 l 674 34 q 561 -2 614 8 q 433 -14 508 -14 m 402 662 q 260 604 313 662 q 197 443 206 546 l 585 443 q 538 606 585 549 q 402 662 490 662 "},"Î":{"x_min":-38.234375,"x_max":418.875,"ha":387,"o":"m 136 0 l 136 992 l 251 992 l 251 0 l 136 0 m -38 1086 q 82 1221 47 1178 q 132 1293 117 1265 l 245 1293 q 297 1219 260 1264 q 418 1086 334 1174 l 418 1071 l 338 1071 q 188 1196 278 1108 q 39 1071 96 1106 l -38 1071 l -38 1086 "},"e":{"x_min":77.96875,"x_max":706.453125,"ha":779,"o":"m 433 -14 q 173 86 268 -14 q 77 365 77 186 q 166 651 77 545 q 404 757 254 757 q 625 665 543 757 q 706 422 706 573 l 706 351 l 194 351 q 260 152 198 220 q 437 84 323 84 q 674 134 557 84 l 674 34 q 561 -2 614 8 q 433 -14 508 -14 m 402 662 q 260 604 313 662 q 197 443 206 546 l 585 443 q 538 606 585 549 q 402 662 490 662 "},"ό":{"x_min":78,"x_max":761,"ha":839,"o":"m 761 372 q 669 88 761 190 q 416 -14 577 -14 q 239 32 316 -14 q 120 167 162 79 q 78 372 78 254 q 168 655 78 554 q 421 757 259 757 q 669 653 577 757 q 761 372 761 549 m 194 372 q 251 154 194 229 q 419 80 308 80 q 587 154 529 80 q 644 372 644 228 q 587 587 644 514 q 417 661 529 661 q 250 588 307 661 q 194 372 194 516 m 366 861 q 402 987 385 910 q 429 1120 420 1064 l 553 1120 l 553 1104 q 504 973 541 1054 q 434 842 467 893 l 366 842 l 366 861 "},"Ề":{"x_min":63.328125,"x_max":689.53125,"ha":773,"o":"m 689 0 l 136 0 l 136 992 l 689 992 l 689 889 l 251 889 l 251 570 l 663 570 l 663 468 l 251 468 l 251 103 l 689 103 l 689 0 m 625 1071 l 561 1071 q 418 1183 496 1115 q 275 1071 346 1118 l 211 1071 l 211 1086 l 247 1127 q 359 1263 323 1210 l 478 1263 q 625 1086 523 1199 l 625 1071 m 266 1203 l 201 1203 q 63 1342 120 1266 l 63 1357 l 179 1357 q 266 1217 215 1283 l 266 1203 "},"Ĕ":{"x_min":136.40625,"x_max":689.53125,"ha":773,"o":"m 689 0 l 136 0 l 136 992 l 689 992 l 689 889 l 251 889 l 251 570 l 663 570 l 663 468 l 251 468 l 251 103 l 689 103 l 689 0 m 416 1071 q 268 1117 321 1071 q 209 1253 215 1164 l 280 1253 q 298 1200 284 1219 q 336 1172 312 1181 q 419 1163 361 1163 q 520 1185 487 1163 q 559 1253 552 1207 l 630 1253 q 566 1119 623 1167 q 416 1071 510 1071 "},"ļ":{"x_min":60.4375,"x_max":232.84375,"ha":351,"o":"m 231 0 l 119 0 l 119 1055 l 231 1055 l 231 0 m 60 -290 q 96 -183 79 -246 q 118 -85 114 -120 l 232 -85 l 232 -97 q 192 -197 225 -131 q 121 -307 158 -262 l 60 -307 l 60 -290 "},"ị":{"x_min":106.140625,"x_max":242.6875,"ha":351,"o":"m 231 0 l 119 0 l 119 743 l 231 743 l 231 0 m 109 944 q 128 1000 109 982 q 176 1018 147 1018 q 223 1000 203 1018 q 242 944 242 982 q 223 887 242 906 q 176 869 203 869 q 128 887 147 869 q 109 944 109 906 m 106 -164 q 126 -107 106 -125 q 174 -89 146 -89 q 221 -107 201 -89 q 241 -164 241 -125 q 221 -220 241 -201 q 174 -239 201 -239 q 126 -220 146 -239 q 106 -164 106 -201 "}," ":{"x_min":0,"x_max":0,"ha":695},"Ѓ":{"x_min":136.265625,"x_max":688.78125,"ha":722,"o":"m 688 992 l 688 888 l 251 888 l 251 0 l 136 0 l 136 992 l 688 992 m 327 1087 q 397 1189 360 1129 q 457 1293 435 1249 l 594 1293 l 594 1278 q 505 1170 564 1234 q 402 1071 446 1106 l 327 1071 l 327 1087 "},"Ѽ":{"x_min":84.796875,"x_max":1301.84375,"ha":1388,"o":"m 978 1350 l 978 1268 l 966 1268 q 861 1280 909 1268 q 772 1306 813 1292 q 697 1333 731 1321 q 633 1345 662 1345 q 581 1327 601 1345 q 561 1275 561 1310 l 561 1265 l 476 1265 l 476 1283 q 515 1390 476 1353 q 630 1428 554 1428 q 708 1415 670 1428 q 786 1389 746 1403 q 872 1362 826 1374 q 970 1350 917 1350 l 978 1350 m 476 87 q 593 109 535 87 q 693 174 651 131 q 788 111 730 135 q 909 87 846 87 q 1108 200 1037 87 q 1179 517 1179 313 q 1123 799 1179 698 q 968 899 1067 899 q 895 884 927 899 q 833 849 862 870 l 786 948 q 972 1004 868 1004 q 1214 876 1127 1004 q 1301 519 1301 748 q 1204 126 1301 266 q 930 -14 1106 -14 q 802 0 860 -14 q 693 45 744 13 q 585 0 642 15 q 454 -14 529 -14 q 181 126 278 -14 q 84 519 84 266 q 171 877 84 750 q 413 1004 259 1004 q 600 948 518 1004 l 552 849 q 491 884 523 870 q 419 899 459 899 q 262 799 318 899 q 206 517 206 699 q 278 199 206 312 q 476 87 349 87 m 783 1199 q 622 1048 783 1089 l 622 1096 q 704 1160 704 1124 q 693 1180 704 1174 q 670 1192 683 1186 q 648 1206 658 1197 q 637 1234 637 1215 q 700 1284 637 1284 q 760 1260 738 1284 q 783 1199 783 1237 "},"ò":{"x_min":78,"x_max":761,"ha":839,"o":"m 761 372 q 669 88 761 190 q 416 -14 577 -14 q 239 32 316 -14 q 120 167 162 79 q 78 372 78 254 q 168 655 78 554 q 421 757 259 757 q 669 653 577 757 q 761 372 761 549 m 194 372 q 251 154 194 229 q 419 80 308 80 q 587 154 529 80 q 644 372 644 228 q 587 587 644 514 q 417 661 529 661 q 250 588 307 661 q 194 372 194 516 m 503 842 l 428 842 q 324 942 384 877 q 236 1049 263 1007 l 236 1064 l 374 1064 q 434 956 396 1017 q 503 858 473 894 l 503 842 "},"ﬄ":{"x_min":19.6875,"x_max":1173.84375,"ha":1295,"o":"m 921 655 l 732 655 l 732 0 l 619 0 l 619 655 l 486 655 l 486 706 l 619 747 l 619 788 q 859 1063 619 1063 q 997 1039 918 1063 l 968 949 q 857 970 903 970 q 762 927 793 970 q 732 791 732 885 l 732 742 l 921 742 l 921 655 m 454 655 l 265 655 l 265 0 l 152 0 l 152 655 l 19 655 l 19 706 l 152 747 l 152 788 q 392 1063 152 1063 q 530 1039 451 1063 l 501 949 q 390 970 436 970 q 295 927 326 970 q 265 791 265 885 l 265 742 l 454 742 l 454 655 m 1173 0 l 1061 0 l 1061 1055 l 1173 1055 l 1173 0 "},"^":{"x_min":33.234375,"x_max":718.40625,"ha":753,"o":"m 33 374 l 327 999 l 394 999 l 718 374 l 615 374 l 362 879 l 136 374 l 33 374 "},"ⁿ":{"x_min":73.875,"x_max":479.21875,"ha":547,"o":"m 398 543 l 398 827 q 372 909 398 884 q 291 933 345 933 q 183 897 214 933 q 152 779 152 861 l 152 543 l 73 543 l 73 994 l 138 994 l 148 934 l 155 934 q 304 1003 206 1003 q 479 833 479 1003 l 479 543 l 398 543 "},"Ӑ":{"x_min":0,"x_max":879,"ha":879,"o":"m 759 0 l 636 315 l 238 315 l 116 0 l 0 0 l 392 996 l 489 996 l 879 0 l 759 0 m 600 419 l 484 726 q 438 869 462 784 q 396 726 423 804 l 279 419 l 600 419 m 435 1071 q 252 1119 309 1071 q 187 1279 194 1167 l 293 1279 q 330 1180 299 1208 q 437 1153 361 1153 q 541 1182 507 1153 q 582 1279 575 1212 l 689 1279 q 620 1121 680 1171 q 435 1071 560 1071 "},"к":{"x_min":119.375,"x_max":702.6875,"ha":721,"o":"m 552 743 l 676 743 l 355 384 l 702 0 l 571 0 l 231 376 l 231 0 l 119 0 l 119 743 l 231 743 l 231 381 l 552 743 "},"￼":{"x_min":56.96875,"x_max":1346.265625,"ha":1389,"o":"m 56 823 l 56 1030 l 262 1030 l 262 954 l 132 954 l 132 823 l 56 823 m 1140 954 l 1140 1030 l 1346 1030 l 1346 823 l 1272 823 l 1272 954 l 1140 954 m 56 -260 l 56 -54 l 132 -54 l 132 -186 l 262 -186 l 262 -260 l 56 -260 m 1140 -260 l 1140 -186 l 1272 -186 l 1272 -54 l 1346 -54 l 1346 -260 l 1140 -260 m 874 -260 l 874 -186 l 1060 -186 l 1060 -260 l 874 -260 m 344 -260 l 344 -186 l 527 -186 l 527 -260 l 344 -260 m 344 954 l 344 1030 l 527 1030 l 527 954 l 344 954 m 1346 26 l 1272 26 l 1272 209 l 1346 209 l 1346 26 m 1346 558 l 1272 558 l 1272 742 l 1346 742 l 1346 558 m 609 -260 l 609 -186 l 794 -186 l 794 -260 l 609 -260 m 132 26 l 56 26 l 56 209 l 132 209 l 132 26 m 609 954 l 609 1030 l 794 1030 l 794 954 l 609 954 m 874 954 l 874 1030 l 1060 1030 l 1060 954 l 874 954 m 132 291 l 56 291 l 56 476 l 132 476 l 132 291 m 132 558 l 56 558 l 56 742 l 132 742 l 132 558 m 1346 291 l 1272 291 l 1272 476 l 1346 476 l 1346 291 m 585 427 q 540 275 585 328 q 408 223 494 223 q 276 275 322 223 q 230 427 230 328 q 276 578 230 525 q 408 631 322 631 q 539 578 493 631 q 585 427 585 526 m 316 427 q 408 293 316 293 q 499 427 499 293 q 408 559 499 559 q 316 427 316 559 m 642 626 l 759 626 q 871 603 833 626 q 909 523 909 580 q 893 468 909 490 q 848 440 878 445 l 848 434 q 905 402 889 425 q 921 343 921 379 q 884 258 921 288 q 783 228 847 228 l 642 228 l 642 626 m 726 468 l 771 468 q 814 479 802 468 q 826 513 826 491 q 812 546 826 536 q 766 556 798 556 l 726 556 l 726 468 m 726 401 l 726 297 l 776 297 q 822 311 809 297 q 834 351 834 326 q 773 401 834 401 l 726 401 m 1011 224 q 956 230 975 224 l 956 299 q 1003 294 986 294 q 1061 352 1061 294 l 1061 626 l 1146 626 l 1146 355 q 1110 257 1146 291 q 1011 224 1074 224 "},"ѻ":{"x_min":78,"x_max":835,"ha":913,"o":"m 835 372 q 759 116 835 214 q 544 -7 683 18 q 516 -58 538 -43 q 457 -74 495 -74 q 397 -59 418 -74 q 371 -7 377 -44 q 155 117 233 17 q 78 372 78 216 q 153 627 78 530 q 371 750 229 725 q 397 802 376 787 q 457 816 418 816 q 516 801 495 816 q 544 748 538 787 q 758 623 681 722 q 835 372 835 524 m 194 372 q 237 180 194 252 q 372 88 279 109 q 400 128 380 117 q 457 140 421 140 q 543 89 527 140 q 676 182 634 111 q 718 372 718 253 q 541 653 718 610 q 512 613 533 624 q 457 602 491 602 q 400 613 421 602 q 372 654 380 624 q 237 562 279 633 q 194 372 194 491 "},"ū":{"x_min":111.296875,"x_max":733.5625,"ha":853,"o":"m 225 743 l 225 260 q 266 125 225 169 q 396 80 308 80 q 567 144 513 80 q 620 352 620 207 l 620 743 l 733 743 l 733 0 l 640 0 l 624 99 l 618 99 q 522 15 583 44 q 382 -14 460 -14 q 178 50 246 -14 q 111 256 111 114 l 111 743 l 225 743 m 221 934 l 627 934 l 627 842 l 221 842 l 221 934 "},"ˆ":{"x_min":181.765625,"x_max":638.875,"ha":822,"o":"m 181 857 q 302 992 267 949 q 352 1064 337 1036 l 465 1064 q 517 990 480 1035 q 638 857 554 945 l 638 842 l 558 842 q 408 967 498 879 q 259 842 316 877 l 181 842 l 181 857 "},"Ẅ":{"x_min":18.3125,"x_max":1267.015625,"ha":1286,"o":"m 1001 0 l 887 0 l 687 664 q 655 775 673 708 q 637 856 638 842 q 590 660 622 766 l 396 0 l 282 0 l 18 992 l 140 992 l 297 379 q 344 145 329 250 q 398 388 362 270 l 576 992 l 698 992 l 885 383 q 940 145 917 278 q 988 380 952 242 l 1144 992 l 1267 992 l 1001 0 m 450 1174 q 468 1225 450 1209 q 511 1241 486 1241 q 556 1225 537 1241 q 574 1174 574 1209 q 556 1123 574 1140 q 511 1107 537 1107 q 468 1123 486 1107 q 450 1174 450 1140 m 709 1174 q 727 1225 709 1209 q 770 1241 745 1241 q 814 1225 795 1241 q 832 1174 832 1209 q 814 1123 832 1140 q 770 1107 795 1107 q 727 1123 745 1107 q 709 1174 709 1140 "},"ȷ":{"x_min":-75.390625,"x_max":231.84375,"ha":351,"o":"m 29 -334 q -75 -317 -35 -334 l -75 -225 q 16 -239 -28 -239 q 94 -210 69 -239 q 119 -122 119 -181 l 119 743 l 231 743 l 231 -114 q 29 -334 231 -334 "},"Ԍ":{"x_min":84.78125,"x_max":972.671875,"ha":1050,"o":"m 590 510 l 972 510 l 972 451 q 868 99 972 213 q 552 -14 763 -14 q 208 122 332 -14 q 84 497 84 258 q 145 767 84 652 q 321 944 206 883 q 596 1006 437 1006 q 757 989 677 1006 q 894 946 838 972 l 849 845 q 716 887 788 871 q 584 902 643 902 q 305 796 403 902 q 206 495 206 689 q 297 194 206 302 q 555 87 387 87 q 851 406 851 87 l 590 406 l 590 510 "},"č":{"x_min":77.96875,"x_max":629.875,"ha":661,"o":"m 416 -14 q 166 85 254 -14 q 77 366 77 184 q 167 655 77 553 q 423 757 257 757 q 530 745 477 757 q 614 718 584 733 l 580 622 q 498 647 543 637 q 421 657 454 657 q 194 368 194 657 q 249 157 194 230 q 413 84 305 84 q 604 124 506 84 l 604 24 q 416 -14 529 -14 m 172 1064 l 250 1064 q 399 936 328 1014 q 549 1064 487 1024 l 629 1064 l 629 1047 l 585 1001 q 456 842 487 900 l 343 842 q 293 912 328 869 q 172 1047 258 955 l 172 1064 "},"’":{"x_min":16.953125,"x_max":219.71875,"ha":236,"o":"m 209 992 l 219 977 q 168 819 202 909 q 99 652 135 729 l 16 652 q 86 992 64 845 l 209 992 "},"Ν":{"x_min":136.296875,"x_max":910.703125,"ha":1047,"o":"m 910 0 l 779 0 l 237 832 l 231 832 q 242 563 242 685 l 242 0 l 136 0 l 136 992 l 266 992 l 806 162 l 812 162 q 806 280 811 181 q 802 422 801 379 l 802 992 l 910 992 l 910 0 "},"-":{"x_min":56.984375,"x_max":390.015625,"ha":447,"o":"m 56 320 l 56 424 l 390 424 l 390 320 l 56 320 "},"Q":{"x_min":84.796875,"x_max":997.203125,"ha":1082,"o":"m 997 496 q 920 180 997 306 q 704 9 843 53 l 940 -236 l 772 -236 l 579 -12 l 542 -14 q 203 119 322 -14 q 84 498 84 253 q 204 873 84 740 q 543 1007 323 1007 q 877 871 757 1007 q 997 496 997 735 m 206 496 q 292 191 206 295 q 542 87 378 87 q 791 190 706 87 q 875 496 875 294 q 791 800 875 696 q 543 903 707 903 q 292 799 378 903 q 206 496 206 695 "},"ј":{"x_min":-75.390625,"x_max":242.6875,"ha":351,"o":"m 29 -334 q -75 -317 -35 -334 l -75 -225 q 16 -239 -28 -239 q 94 -210 69 -239 q 119 -122 119 -181 l 119 743 l 231 743 l 231 -114 q 29 -334 231 -334 m 109 944 q 128 1000 109 982 q 176 1018 147 1018 q 223 1000 203 1018 q 242 944 242 982 q 223 887 242 906 q 176 869 203 869 q 128 887 147 869 q 109 944 109 906 "},"Ҋ":{"x_min":136.375,"x_max":1047.609375,"ha":1070,"o":"m 136 992 l 245 992 l 245 439 q 238 219 245 358 l 236 162 l 241 162 l 797 992 l 922 992 l 922 103 l 1047 103 l 950 -258 l 816 -258 l 922 0 l 814 0 l 814 546 q 827 832 814 664 l 821 832 l 262 0 l 136 0 l 136 992 m 529 1071 q 346 1119 403 1071 q 282 1279 289 1167 l 387 1279 q 425 1179 394 1205 q 531 1153 457 1153 q 636 1184 603 1153 q 676 1279 670 1216 l 783 1279 q 714 1121 775 1171 q 529 1071 652 1071 "},"ě":{"x_min":77.96875,"x_max":706.453125,"ha":779,"o":"m 433 -14 q 173 86 268 -14 q 77 365 77 186 q 166 651 77 545 q 404 757 254 757 q 625 665 543 757 q 706 422 706 573 l 706 351 l 194 351 q 260 152 198 220 q 437 84 323 84 q 674 134 557 84 l 674 34 q 561 -2 614 8 q 433 -14 508 -14 m 402 662 q 260 604 313 662 q 197 443 206 546 l 585 443 q 538 606 585 549 q 402 662 490 662 m 178 1064 l 256 1064 q 405 936 334 1014 q 555 1064 493 1024 l 635 1064 l 635 1047 l 591 1001 q 462 842 493 900 l 349 842 q 299 912 334 869 q 178 1047 264 955 l 178 1064 "},"œ":{"x_min":76.625,"x_max":1236.125,"ha":1308,"o":"m 969 -14 q 686 145 770 -14 q 573 26 644 66 q 409 -14 502 -14 q 167 89 258 -14 q 76 372 76 193 q 165 654 76 552 q 413 756 254 756 q 571 715 502 756 q 683 597 641 675 q 787 714 722 673 q 938 756 853 756 q 1155 666 1074 756 q 1236 422 1236 576 l 1236 351 l 741 351 q 971 84 747 84 q 1089 96 1034 84 q 1202 134 1143 108 l 1202 34 q 1091 -3 1143 7 q 969 -14 1040 -14 m 194 372 q 246 154 194 229 q 410 80 297 80 q 573 152 521 80 q 625 366 625 224 q 572 589 625 517 q 408 661 520 661 q 245 588 295 661 q 194 372 194 515 m 937 661 q 801 606 850 661 q 744 443 752 550 l 1113 443 q 1068 606 1113 550 q 937 661 1023 661 "},"Ộ":{"x_min":84.796875,"x_max":997.203125,"ha":1082,"o":"m 997 496 q 876 122 997 258 q 542 -14 756 -14 q 203 119 322 -14 q 84 498 84 253 q 204 873 84 740 q 543 1007 323 1007 q 877 871 757 1007 q 997 496 997 735 m 206 496 q 292 191 206 295 q 542 87 378 87 q 791 190 706 87 q 875 496 875 294 q 791 800 875 696 q 543 903 707 903 q 292 799 378 903 q 206 496 206 695 m 473 -164 q 493 -107 473 -125 q 541 -89 513 -89 q 588 -107 568 -89 q 608 -164 608 -125 q 588 -220 608 -201 q 541 -239 568 -239 q 493 -220 513 -239 q 473 -164 473 -201 m 312 1086 q 433 1221 398 1178 q 483 1293 468 1265 l 596 1293 q 648 1219 611 1264 q 769 1086 685 1174 l 769 1071 l 689 1071 q 539 1196 629 1108 q 390 1071 447 1106 l 312 1071 l 312 1086 "},"Ậ":{"x_min":0,"x_max":879,"ha":879,"o":"m 759 0 l 636 315 l 238 315 l 116 0 l 0 0 l 392 996 l 489 996 l 879 0 l 759 0 m 600 419 l 484 726 q 438 869 462 784 q 396 726 423 804 l 279 419 l 600 419 m 372 -164 q 392 -107 372 -125 q 440 -89 412 -89 q 487 -107 467 -89 q 507 -164 507 -125 q 487 -220 507 -201 q 440 -239 467 -239 q 392 -220 412 -239 q 372 -164 372 -201 m 210 1086 q 331 1221 296 1178 q 381 1293 366 1265 l 494 1293 q 546 1219 509 1264 q 667 1086 583 1174 l 667 1071 l 587 1071 q 437 1196 527 1108 q 288 1071 345 1106 l 210 1071 l 210 1086 "},"ҏ":{"x_min":119.34375,"x_max":773.703125,"ha":851,"o":"m 465 -14 q 332 12 392 -14 q 231 95 272 39 l 223 95 q 231 -28 231 -5 l 231 -334 l 119 -334 l 119 743 l 210 743 l 227 641 l 233 641 q 333 729 276 702 q 465 757 391 757 q 693 655 613 757 q 773 372 773 554 q 649 44 773 142 l 727 -61 l 659 -115 l 570 2 q 465 -14 522 -14 m 448 661 q 284 598 334 661 q 231 397 233 535 l 231 372 q 284 147 231 215 q 451 80 336 80 q 511 88 483 80 l 429 195 l 501 249 l 588 134 q 657 373 657 204 q 606 590 657 519 q 448 661 555 661 "},"ӗ":{"x_min":77.96875,"x_max":706.453125,"ha":779,"o":"m 433 -14 q 173 86 268 -14 q 77 365 77 186 q 166 651 77 545 q 404 757 254 757 q 625 665 543 757 q 706 422 706 573 l 706 351 l 194 351 q 260 152 198 220 q 437 84 323 84 q 674 134 557 84 l 674 34 q 561 -2 614 8 q 433 -14 508 -14 m 402 662 q 260 604 313 662 q 197 443 206 546 l 585 443 q 538 606 585 549 q 402 662 490 662 m 404 842 q 221 890 278 842 q 156 1050 163 938 l 262 1050 q 299 951 268 979 q 406 924 330 924 q 510 953 476 924 q 551 1050 544 983 l 658 1050 q 589 892 649 942 q 404 842 529 842 "},"ԏ":{"x_min":27.8125,"x_max":786.375,"ha":899,"o":"m 608 647 l 373 647 l 373 262 q 410 124 373 169 q 527 80 447 80 q 673 256 673 80 l 673 475 l 786 475 l 786 255 q 722 52 786 118 q 527 -14 658 -14 q 329 54 397 -14 q 261 256 261 123 l 261 647 l 27 647 l 27 742 l 608 742 l 608 647 "},"ҩ":{"x_min":77.984375,"x_max":837.46875,"ha":889,"o":"m 508 337 q 531 219 508 273 q 597 128 554 164 q 671 212 643 158 q 699 340 699 265 q 608 499 699 499 q 534 457 559 499 q 508 337 508 414 m 751 -39 q 563 13 651 -39 q 415 -14 498 -14 q 237 33 313 -14 q 119 166 160 80 q 77 364 77 252 q 162 653 77 550 q 400 757 246 757 q 514 742 461 757 l 488 648 q 398 661 452 661 q 243 590 292 661 q 194 362 194 519 q 252 151 194 222 q 421 80 309 80 q 464 83 446 80 q 486 88 482 86 q 391 341 391 188 q 448 524 391 459 q 608 590 505 590 q 761 525 708 590 q 815 341 815 461 q 778 185 815 256 q 678 71 742 115 q 759 53 714 53 q 837 63 804 53 l 837 -29 q 751 -39 811 -39 "},"#":{"x_min":34.53125,"x_max":861.109375,"ha":897,"o":"m 665 609 l 620 379 l 812 379 l 812 291 l 604 291 l 547 0 l 454 0 l 511 291 l 305 291 l 250 0 l 157 0 l 212 291 l 34 291 l 34 379 l 229 379 l 275 609 l 87 609 l 87 696 l 290 696 l 345 992 l 440 992 l 384 696 l 591 696 l 648 992 l 739 992 l 682 696 l 861 696 l 861 609 l 665 609 m 322 379 l 527 379 l 572 609 l 366 609 l 322 379 "},"Џ":{"x_min":136.375,"x_max":876.625,"ha":1013,"o":"m 876 0 l 561 0 l 561 -258 l 441 -258 l 441 0 l 136 0 l 136 992 l 251 992 l 251 104 l 761 104 l 761 992 l 876 992 l 876 0 "},"Ѥ":{"x_min":136.28125,"x_max":1237.359375,"ha":1276,"o":"m 964 902 q 722 818 810 902 q 613 570 634 733 l 1090 570 l 1090 468 l 610 468 q 706 185 616 282 q 963 88 796 88 q 1199 125 1067 88 l 1199 24 q 945 -14 1096 -14 q 611 110 729 -14 q 488 466 494 235 l 251 466 l 251 0 l 136 0 l 136 992 l 251 992 l 251 570 l 492 570 q 638 891 513 778 q 969 1006 763 1004 q 1237 943 1113 1006 l 1188 844 q 1067 890 1120 877 q 964 902 1014 902 "},"Å":{"x_min":0,"x_max":879,"ha":879,"o":"m 759 0 l 636 315 l 238 315 l 116 0 l 0 0 l 392 996 l 489 996 l 879 0 l 759 0 m 600 419 l 484 726 q 438 869 462 784 q 396 726 423 804 l 279 419 l 600 419 m 590 1076 q 548 969 590 1009 q 437 929 507 929 q 328 968 369 929 q 288 1074 288 1008 q 329 1180 288 1141 q 437 1219 370 1219 q 548 1178 506 1219 q 590 1076 590 1138 m 517 1074 q 494 1133 517 1112 q 437 1153 472 1153 q 380 1133 403 1153 q 358 1074 358 1112 q 378 1016 358 1036 q 437 995 399 995 q 495 1016 473 995 q 517 1074 517 1036 "},"ș":{"x_min":71.9375,"x_max":599.203125,"ha":663,"o":"m 599 202 q 521 42 599 98 q 304 -14 444 -14 q 73 33 156 -14 l 73 138 q 189 94 127 110 q 307 78 250 78 q 443 107 395 78 q 490 193 490 135 q 453 267 490 236 q 306 340 415 298 q 158 407 202 378 q 93 473 114 436 q 71 560 71 509 q 145 704 71 651 q 348 757 219 757 q 583 708 468 757 l 543 616 q 340 662 431 662 q 219 637 260 662 q 179 568 179 612 q 194 517 179 538 q 243 477 209 496 q 373 422 277 458 q 552 325 506 374 q 599 202 599 276 m 202 -290 q 238 -183 221 -246 q 260 -85 256 -120 l 374 -85 l 374 -97 q 334 -197 367 -131 q 263 -307 300 -262 l 202 -307 l 202 -290 "},"Ѵ":{"x_min":0,"x_max":916.46875,"ha":869,"o":"m 846 905 q 780 870 806 905 q 715 712 753 835 l 492 0 l 359 0 l 0 992 l 122 992 l 351 355 q 423 123 399 220 q 492 372 445 221 l 602 723 q 671 904 642 852 q 736 977 699 955 q 834 1000 774 1000 q 916 987 862 1000 l 916 891 q 846 905 878 905 "},"Ә":{"x_min":79.359375,"x_max":927.859375,"ha":1014,"o":"m 450 903 q 143 852 296 903 l 143 959 q 292 996 221 985 q 454 1007 363 1007 q 803 871 678 1007 q 927 494 927 736 q 810 121 927 256 q 483 -14 693 -14 q 79 492 79 -14 l 79 540 l 805 540 q 705 812 794 720 q 450 903 615 903 m 483 88 q 710 179 626 88 q 805 438 794 270 l 202 438 q 271 173 202 259 q 483 88 341 88 "},"¸":{"x_min":25.0625,"x_max":295.359375,"ha":315,"o":"m 295 -196 q 243 -298 295 -262 q 90 -334 191 -334 q 25 -327 55 -334 l 25 -256 q 95 -261 55 -261 q 176 -247 148 -261 q 203 -197 203 -234 q 177 -150 203 -168 q 76 -120 150 -132 l 136 0 l 210 0 l 173 -78 q 295 -196 295 -104 "},"=":{"x_min":80.6875,"x_max":711.28125,"ha":794,"o":"m 80 582 l 80 675 l 711 675 l 711 582 l 80 582 m 80 305 l 80 397 l 711 397 l 711 305 l 80 305 "},"ạ":{"x_min":63.796875,"x_max":660.34375,"ha":773,"o":"m 576 0 l 554 105 l 549 105 q 438 10 493 35 q 299 -14 382 -14 q 126 43 189 -14 q 63 205 63 100 q 424 441 63 431 l 550 446 l 550 492 q 512 621 550 579 q 392 663 475 663 q 181 606 299 663 l 147 692 q 267 739 202 722 q 399 756 333 756 q 596 696 532 756 q 660 507 660 637 l 660 0 l 576 0 m 322 78 q 487 136 427 78 q 547 298 547 194 l 547 365 l 435 361 q 241 319 300 356 q 181 204 181 282 q 218 110 181 142 q 322 78 255 78 m 296 -164 q 316 -107 296 -125 q 364 -89 336 -89 q 411 -107 391 -89 q 431 -164 431 -125 q 411 -220 431 -201 q 364 -239 391 -239 q 316 -220 336 -239 q 296 -164 296 -201 "},"ρ":{"x_min":112.59375,"x_max":761,"ha":839,"o":"m 761 372 q 674 87 761 188 q 429 -14 587 -14 q 226 49 307 -14 l 221 49 q 226 -135 226 8 l 226 -334 l 112 -334 l 112 381 q 197 659 112 562 q 441 757 282 757 q 675 654 590 757 q 761 372 761 551 m 436 661 q 277 591 328 661 q 226 378 226 520 l 226 149 q 433 80 309 80 q 592 150 541 80 q 644 372 644 221 q 595 589 644 517 q 436 661 546 661 "},"Ћ":{"x_min":12.203125,"x_max":912.5625,"ha":1019,"o":"m 355 606 l 626 606 q 839 542 765 606 q 912 355 912 478 l 912 0 l 797 0 l 797 340 q 754 464 797 426 q 617 502 712 502 l 355 502 l 355 0 l 240 0 l 240 889 l 12 889 l 12 992 l 699 992 l 699 889 l 355 889 l 355 606 "},"ú":{"x_min":111.296875,"x_max":733.5625,"ha":853,"o":"m 225 743 l 225 260 q 266 125 225 169 q 396 80 308 80 q 567 144 513 80 q 620 352 620 207 l 620 743 l 733 743 l 733 0 l 640 0 l 624 99 l 618 99 q 522 15 583 44 q 382 -14 460 -14 q 178 50 246 -14 q 111 256 111 114 l 111 743 l 225 743 m 343 858 q 413 960 376 900 q 473 1064 451 1020 l 610 1064 l 610 1049 q 521 941 580 1005 q 418 842 462 877 l 343 842 l 343 858 "},"˚":{"x_min":249.015625,"x_max":551.625,"ha":802,"o":"m 551 989 q 509 882 551 922 q 398 842 468 842 q 289 881 330 842 q 249 987 249 921 q 290 1093 249 1054 q 398 1132 331 1132 q 509 1091 467 1132 q 551 989 551 1051 m 478 987 q 455 1046 478 1025 q 398 1066 433 1066 q 341 1046 364 1066 q 319 987 319 1025 q 339 929 319 949 q 398 908 360 908 q 456 929 434 908 q 478 987 478 949 "},"д":{"x_min":27.796875,"x_max":764.84375,"ha":794,"o":"m 764 -257 l 655 -257 l 655 0 l 136 0 l 136 -257 l 27 -257 l 27 96 l 86 96 q 228 386 176 220 q 282 743 280 552 l 658 743 l 658 96 l 764 96 l 764 -257 m 549 96 l 549 654 l 383 654 q 325 349 374 503 q 202 96 275 195 l 549 96 "},"ӥ":{"x_min":119.328125,"x_max":760.671875,"ha":880,"o":"m 225 743 l 225 271 l 220 148 l 218 109 l 620 743 l 760 743 l 760 0 l 655 0 l 655 454 l 657 543 l 660 631 l 259 0 l 119 0 l 119 743 l 225 743 m 250 945 q 268 996 250 980 q 311 1012 286 1012 q 356 996 337 1012 q 374 945 374 980 q 356 894 374 911 q 311 878 337 878 q 268 894 286 878 q 250 945 250 911 m 509 945 q 527 996 509 980 q 570 1012 545 1012 q 614 996 595 1012 q 632 945 632 980 q 614 894 632 911 q 570 878 595 878 q 527 894 545 878 q 509 945 509 911 "},"¯":{"x_min":-4.0625,"x_max":699.0625,"ha":695,"o":"m 699 1054 l -4 1054 l -4 1141 l 699 1141 l 699 1054 "},"u":{"x_min":111.296875,"x_max":733.5625,"ha":853,"o":"m 225 743 l 225 260 q 266 125 225 169 q 396 80 308 80 q 567 144 513 80 q 620 352 620 207 l 620 743 l 733 743 l 733 0 l 640 0 l 624 99 l 618 99 q 522 15 583 44 q 382 -14 460 -14 q 178 50 246 -14 q 111 256 111 114 l 111 743 l 225 743 "},"З":{"x_min":50.1875,"x_max":730.375,"ha":807,"o":"m 711 759 q 649 601 711 662 q 478 523 587 539 l 478 518 q 666 440 602 501 q 730 280 730 379 q 626 63 730 141 q 333 -14 522 -14 q 50 39 160 -14 l 50 146 q 190 98 115 115 q 336 81 266 81 q 539 132 470 81 q 608 279 608 183 q 531 417 608 370 q 304 464 455 464 l 156 464 l 156 561 l 298 561 q 513 610 437 561 q 589 750 589 660 q 535 866 589 822 q 387 909 480 909 q 252 892 312 909 q 112 825 191 875 l 55 902 q 209 979 124 953 q 385 1006 294 1006 q 624 939 538 1006 q 711 759 711 872 "},"Α":{"x_min":0,"x_max":879,"ha":879,"o":"m 759 0 l 636 315 l 238 315 l 116 0 l 0 0 l 392 996 l 489 996 l 879 0 l 759 0 m 600 419 l 484 726 q 438 869 462 784 q 396 726 423 804 l 279 419 l 600 419 "},"⅝":{"x_min":48,"x_max":1044.75,"ha":1083,"o":"m 896 992 l 284 0 l 187 0 l 799 992 l 896 992 m 230 765 q 388 716 328 765 q 447 584 447 668 q 390 437 447 489 q 220 385 332 385 q 122 395 170 385 q 48 421 75 406 l 48 510 q 133 474 85 487 q 217 461 180 461 q 319 489 281 461 q 356 578 356 517 q 319 660 356 630 q 213 690 282 690 q 148 684 174 690 q 102 673 123 678 l 62 701 l 84 983 l 420 983 l 420 912 l 161 912 l 148 756 q 230 765 190 765 m 839 604 q 974 563 923 604 q 1025 453 1025 523 q 925 313 1025 365 q 1044 156 1044 263 q 988 33 1044 79 q 839 -13 932 -13 q 686 30 740 -13 q 632 152 632 73 q 657 238 632 198 q 739 308 682 277 q 670 371 689 339 q 650 449 650 403 q 704 561 650 518 q 839 604 757 604 m 721 152 q 749 86 721 111 q 836 62 778 62 q 926 86 897 62 q 954 152 954 111 q 923 221 954 194 q 836 267 891 248 l 817 274 q 745 222 768 251 q 721 152 721 194 m 837 530 q 766 509 791 530 q 741 450 741 489 q 764 394 741 418 q 842 348 787 370 q 936 450 936 384 q 910 509 936 489 q 837 530 884 530 "},"ẻ":{"x_min":77.96875,"x_max":706.453125,"ha":779,"o":"m 433 -14 q 173 86 268 -14 q 77 365 77 186 q 166 651 77 545 q 404 757 254 757 q 625 665 543 757 q 706 422 706 573 l 706 351 l 194 351 q 260 152 198 220 q 437 84 323 84 q 674 134 557 84 l 674 34 q 561 -2 614 8 q 433 -14 508 -14 m 402 662 q 260 604 313 662 q 197 443 206 546 l 585 443 q 538 606 585 549 q 402 662 490 662 m 561 1013 q 449 895 561 918 l 442 819 l 371 819 l 363 938 q 447 964 421 947 q 474 1010 474 981 q 451 1053 474 1039 q 379 1067 428 1067 q 315 1063 337 1067 l 315 1131 q 388 1138 341 1138 q 561 1013 561 1138 "}}}
